<svg xmlns="http://www.w3.org/2000/svg" xmlns:v="https://svgstorm.com"
viewBox = "0 0 225 225"
width="225"
height="225">
<g fill="None" fill-opacity="0.0" stroke="#FEFEFE" stroke-opacity="1.00" stroke-width="0.3"><path d="
M 0.00 225.00 
L 225.00 225.00
L 225.00 0.00
L 0.00 0.00
L 0.00 225.00
M 95.00 124.00 
C 94.33 125.20 93.36 126.58 92.00 127.00
C 88.62 129.27 84.63 129.47 81.00 131.00
C 71.00 131.00 61.00 131.00 51.00 131.00
C 49.34 114.74 49.33 95.19 51.00 79.00
C 61.00 79.00 71.00 79.00 81.00 79.00
C 89.35 82.10 89.59 95.32 89.00 103.00
C 94.07 106.80 95.46 117.67 95.00 124.00
M 106.00 79.00 
C 108.33 89.56 108.79 101.32 113.00 111.00
C 114.97 100.26 118.47 89.89 120.00 79.00
C 125.33 79.00 130.67 79.00 136.00 79.00
C 138.01 89.74 140.85 100.27 143.00 111.00
C 146.17 107.00 145.63 100.93 147.00 96.00
C 151.67 96.00 156.33 96.00 161.00 96.00
C 157.53 107.53 155.09 119.34 152.00 131.00
C 146.67 131.00 141.33 131.00 136.00 131.00
C 133.89 119.54 130.12 108.50 128.00 97.00
C 123.80 107.58 121.73 119.65 119.00 131.00
C 114.00 131.00 109.00 131.00 104.00 131.00
C 99.36 113.75 94.71 96.51 91.00 79.00
C 96.00 79.00 101.00 79.00 106.00 79.00
M 196.00 81.00 
C 196.23 84.43 196.77 87.82 198.00 91.00
C 193.58 93.25 187.18 91.39 182.00 92.00
C 182.00 104.67 182.00 117.33 182.00 130.00
C 177.91 132.24 171.84 130.40 167.00 131.00
C 164.68 118.91 166.66 104.85 166.00 92.00
C 160.17 91.34 153.01 93.32 148.00 91.00
C 148.11 90.00 147.53 88.27 149.00 88.00
C 148.59 84.82 150.69 82.28 150.00 79.00
C 165.01 80.32 182.58 76.36 196.00 81.00
M 35.00 134.00 
C 34.92 134.49 34.77 135.66 35.00 136.00
C 37.64 137.87 40.73 138.30 44.00 138.00
C 43.44 141.64 43.30 142.70 46.00 145.00
C 40.89 144.55 39.42 142.31 43.00 139.00
C 38.02 140.02 33.41 137.21 31.00 133.00
C 32.00 133.00 33.00 133.00 34.00 133.00
C 34.35 132.95 35.10 132.21 35.00 132.00
C 32.13 129.88 28.04 128.01 27.00 124.00
C 24.64 123.47 27.55 120.69 28.00 123.00
C 29.04 124.28 30.73 123.49 31.00 122.00
C 26.12 121.01 21.90 107.64 29.00 113.00
C 29.63 110.28 26.93 108.59 27.00 106.00
C 25.72 105.78 25.58 103.19 27.00 103.00
C 26.45 97.25 28.36 101.00 31.00 102.00
C 29.96 97.39 30.16 93.37 32.00 89.00
C 34.54 87.86 33.78 94.16 36.00 91.00
C 36.28 89.72 35.24 87.50 37.00 87.00
C 37.31 84.27 39.84 82.41 41.00 80.00
C 41.85 83.65 43.84 84.87 46.00 81.00
C 46.84 85.51 41.39 87.33 40.00 83.00
C 37.57 86.48 39.02 96.23 32.00 92.00
C 29.82 95.61 35.38 104.10 28.00 103.00
C 26.90 106.59 33.84 113.90 27.00 114.00
C 26.63 118.68 36.28 122.53 29.00 126.00
C 30.97 128.60 39.65 130.69 35.00 134.00
M 46.00 90.00 
C 44.43 92.28 42.33 94.57 40.00 96.00
C 40.41 93.33 43.28 90.33 46.00 90.00
M 46.00 96.00 
C 45.63 100.74 41.21 97.78 46.00 96.00
M 40.00 97.00 
C 38.94 99.67 36.74 101.92 37.00 105.00
C 34.74 102.94 37.19 97.31 40.00 97.00
M 43.00 100.00 
C 43.06 104.33 39.15 101.49 43.00 100.00
M 44.00 109.00 
C 43.41 111.84 45.22 115.98 43.00 118.00
C 42.97 115.00 40.74 111.83 43.00 109.00
C 43.33 106.60 43.45 103.13 46.00 102.00
C 45.74 104.44 44.24 106.52 44.00 109.00
M 40.00 107.00 
C 40.00 110.67 40.00 114.33 40.00 118.00
C 37.84 115.24 39.55 110.51 39.00 107.00
C 39.57 106.06 40.15 105.18 40.00 104.00
C 41.28 104.22 41.42 106.81 40.00 107.00
M 36.00 110.00 
C 36.00 111.33 36.00 112.67 36.00 114.00
C 36.00 115.67 36.00 117.33 36.00 119.00
C 34.25 118.17 35.34 115.56 35.00 114.00
C 35.00 112.67 35.00 111.33 35.00 110.00
C 35.00 108.67 35.00 107.33 35.00 106.00
C 36.60 106.53 35.72 108.75 36.00 110.00
M 46.00 129.00 
C 42.50 126.89 41.17 122.61 40.00 119.00
C 42.94 121.44 44.43 125.64 46.00 129.00
M 45.00 119.00 
C 48.33 123.70 42.40 122.17 45.00 119.00
M 37.00 120.00 
C 36.74 121.97 39.62 124.76 38.00 126.00
C 37.12 124.74 34.78 121.25 37.00 120.00
M 42.00 130.00 
C 43.57 130.96 45.25 132.32 46.00 134.00
C 43.29 134.88 40.74 129.23 39.00 127.00
C 40.69 126.68 42.29 128.32 42.00 130.00
M 58.00 139.00 
C 57.47 140.28 58.97 140.86 59.00 142.00
C 58.37 146.06 54.09 144.87 51.00 145.00
C 51.00 142.00 51.00 139.00 51.00 136.00
C 53.52 136.07 58.25 135.07 58.00 139.00
M 68.00 145.00 
C 65.36 144.34 62.81 141.41 61.00 145.00
C 61.00 142.00 61.00 139.00 61.00 136.00
C 69.13 133.97 68.64 140.46 68.00 145.00
M 72.00 145.00 
C 70.48 143.04 70.28 137.89 72.00 136.00
C 73.52 137.96 73.72 143.11 72.00 145.00
M 75.00 142.00 
C 73.72 141.78 73.58 139.19 75.00 139.00
C 75.86 136.25 80.22 134.63 82.00 137.00
C 75.68 134.65 74.22 146.77 82.00 143.00
C 82.21 146.41 74.27 145.79 75.00 142.00
M 91.00 136.00 
C 99.42 153.08 72.05 137.92 91.00 136.00
M 100.00 136.00 
C 101.41 137.81 100.83 140.84 103.00 142.00
C 102.79 134.67 107.54 135.99 108.00 142.00
C 109.89 140.65 108.43 135.73 112.00 136.00
C 110.72 138.92 109.75 141.90 109.00 145.00
C 106.19 145.11 105.83 141.22 106.00 139.00
C 103.53 140.08 104.93 143.76 103.00 145.00
C 100.43 144.38 98.25 138.10 100.00 136.00
M 120.00 136.00 
C 128.19 153.20 100.83 138.20 120.00 136.00
M 133.00 139.00 
C 134.28 139.22 134.42 141.81 133.00 142.00
C 123.59 154.58 121.53 126.93 133.00 139.00
M 136.00 145.00 
C 136.00 142.00 136.00 139.00 136.00 136.00
C 146.14 132.40 146.15 148.60 136.00 145.00
M 157.00 137.00 
C 156.74 138.39 154.95 137.78 154.00 138.00
C 153.48 140.19 155.14 143.62 153.00 145.00
C 151.04 143.55 152.44 140.20 152.00 138.00
C 151.00 137.89 149.27 138.47 149.00 137.00
C 150.64 135.50 155.43 135.28 157.00 137.00
M 166.00 145.00 
C 163.29 142.99 161.82 143.04 159.00 145.00
C 159.00 142.00 159.00 139.00 159.00 136.00
C 166.92 134.06 166.87 140.25 166.00 145.00
M 178.00 145.00 
C 174.80 143.69 171.23 143.77 168.00 145.00
C 169.27 141.94 171.45 139.29 172.00 136.00
C 176.18 136.47 175.52 142.31 178.00 145.00
M 180.00 145.00 
C 178.48 143.04 178.28 137.89 180.00 136.00
C 189.99 132.86 190.20 148.41 180.00 145.00
M 197.00 137.00 
C 196.17 138.75 193.56 137.66 192.00 138.00
C 191.48 140.92 195.33 139.73 197.00 140.00
C 191.19 140.98 191.32 143.97 197.00 145.00
C 189.92 147.21 189.11 141.64 190.00 136.00
C 192.19 136.52 195.62 134.86 197.00 137.00 Z"/>
</g>
<g fill="None" fill-opacity="0.0" stroke="#E19C9B" stroke-opacity="1.00" stroke-width="0.3"><path d="
M 51.00 131.00 
C 50.81 130.92 51.00 129.50 51.00 129.00
C 51.00 113.00 51.00 97.00 51.00 81.00
C 51.00 80.50 50.81 79.08 51.00 79.00
C 49.33 95.19 49.34 114.74 51.00 131.00 Z"/>
</g>
<g fill="None" fill-opacity="0.0" stroke="#8B1313" stroke-opacity="1.00" stroke-width="0.3"><path d="
M 51.00 81.00 
C 60.34 78.05 72.07 81.96 81.00 79.00
C 71.00 79.00 61.00 79.00 51.00 79.00
C 50.81 79.08 51.00 80.50 51.00 81.00 Z"/>
</g>
<g fill="None" fill-opacity="0.0" stroke="#B60909" stroke-opacity="1.00" stroke-width="0.3"><path d="
M 51.00 81.00 
C 51.00 97.00 51.00 113.00 51.00 129.00
C 60.34 131.95 72.07 128.04 81.00 131.00
C 84.63 129.47 88.62 129.27 92.00 127.00
C 92.67 125.80 93.64 124.42 95.00 124.00
C 95.46 117.67 94.07 106.80 89.00 103.00
C 89.59 95.32 89.35 82.10 81.00 79.00
C 72.07 81.96 60.34 78.05 51.00 81.00
M 75.00 92.00 
C 85.09 96.27 71.63 101.49 66.00 99.00
C 64.53 97.67 64.29 93.26 66.00 92.00
C 67.96 90.48 73.11 90.28 75.00 92.00
M 78.00 111.00 
C 79.28 110.73 80.72 111.77 81.00 113.00
C 82.28 113.22 82.42 115.81 81.00 116.00
C 77.76 120.19 70.76 117.00 66.00 118.00
C 60.33 109.79 73.11 107.91 78.00 111.00 Z"/>
</g>
<g fill="None" fill-opacity="0.0" stroke="#B30B0A" stroke-opacity="1.00" stroke-width="0.3"><path d="
M 106.00 79.00 
C 101.00 79.00 96.00 79.00 91.00 79.00
C 94.71 96.51 99.36 113.75 104.00 131.00
C 109.00 131.00 114.00 131.00 119.00 131.00
C 121.73 119.65 123.80 107.58 128.00 97.00
C 130.12 108.50 133.89 119.54 136.00 131.00
C 141.33 131.00 146.67 131.00 152.00 131.00
C 155.09 119.34 157.53 107.53 161.00 96.00
C 156.33 96.00 151.67 96.00 147.00 96.00
C 145.63 100.93 146.17 107.00 143.00 111.00
C 140.85 100.27 138.01 89.74 136.00 79.00
C 130.67 79.00 125.33 79.00 120.00 79.00
C 118.47 89.89 114.97 100.26 113.00 111.00
C 108.79 101.32 108.33 89.56 106.00 79.00 Z"/>
</g>
<g fill="None" fill-opacity="0.0" stroke="#8E1213" stroke-opacity="1.00" stroke-width="0.3"><path d="
M 149.00 88.00 
C 150.77 86.06 151.20 82.82 151.00 80.00
C 165.91 80.65 181.53 78.69 196.00 81.00
C 182.58 76.36 165.01 80.32 150.00 79.00
C 150.69 82.28 148.59 84.82 149.00 88.00 Z"/>
</g>
<g fill="None" fill-opacity="0.0" stroke="#111111" stroke-opacity="1.00" stroke-width="0.3"><path d="
M 37.00 87.00 
C 36.72 88.28 37.76 90.50 36.00 91.00
C 33.78 94.16 34.54 87.86 32.00 89.00
C 30.16 93.37 29.96 97.39 31.00 102.00
C 28.36 101.00 26.45 97.25 27.00 103.00
C 27.00 104.00 27.00 105.00 27.00 106.00
C 26.93 108.59 29.63 110.28 29.00 113.00
C 21.90 107.64 26.12 121.01 31.00 122.00
C 30.73 123.49 29.04 124.28 28.00 123.00
C 27.70 122.95 26.96 123.69 27.00 124.00
C 28.04 128.01 32.13 129.88 35.00 132.00
C 36.64 132.22 34.73 133.24 35.00 134.00
C 39.65 130.69 30.97 128.60 29.00 126.00
C 36.28 122.53 26.63 118.68 27.00 114.00
C 33.84 113.90 26.90 106.59 28.00 103.00
C 35.38 104.10 29.82 95.61 32.00 92.00
C 39.02 96.23 37.57 86.48 40.00 83.00
C 41.39 87.33 46.84 85.51 46.00 81.00
C 43.84 84.87 41.85 83.65 41.00 80.00
C 39.84 82.41 37.31 84.27 37.00 87.00 Z"/>
</g>
<g fill="None" fill-opacity="0.0" stroke="#B50506" stroke-opacity="1.00" stroke-width="0.3"><path d="
M 149.00 88.00 
C 147.53 88.27 148.11 90.00 148.00 91.00
C 153.83 91.66 160.99 89.68 166.00 92.00
C 168.32 104.09 166.34 118.15 167.00 131.00
C 171.84 130.40 177.91 132.24 182.00 130.00
C 182.20 115.65 172.24 83.25 198.00 91.00
C 196.77 87.82 196.23 84.43 196.00 81.00
C 181.53 78.69 165.91 80.65 151.00 80.00
C 151.20 82.82 150.77 86.06 149.00 88.00 Z"/>
</g>
<g fill="None" fill-opacity="0.0" stroke="#A0A0A0" stroke-opacity="1.00" stroke-width="0.3"><path d="
M 36.00 91.00 
C 37.76 90.50 36.72 88.28 37.00 87.00
C 35.24 87.50 36.28 89.72 36.00 91.00 Z"/>
</g>
<g fill="None" fill-opacity="0.0" stroke="#505050" stroke-opacity="1.00" stroke-width="0.3"><path d="
M 46.00 90.00 
C 43.28 90.33 40.41 93.33 40.00 96.00
C 42.33 94.57 44.43 92.28 46.00 90.00 Z"/>
</g>
<g fill="None" fill-opacity="0.0" stroke="#CC6462" stroke-opacity="1.00" stroke-width="0.3"><path d="
M 66.00 92.00 
C 69.00 92.00 72.00 92.00 75.00 92.00
C 73.11 90.28 67.96 90.48 66.00 92.00 Z"/>
</g>
<g fill="None" fill-opacity="0.0" stroke="#C86260" stroke-opacity="1.00" stroke-width="0.3"><path d="
M 166.00 92.00 
C 160.99 89.68 153.83 91.66 148.00 91.00
C 153.01 93.32 160.17 91.34 166.00 92.00 Z"/>
</g>
<g fill="None" fill-opacity="0.0" stroke="#B74D4A" stroke-opacity="1.00" stroke-width="0.3"><path d="
M 182.00 130.00 
C 182.00 117.33 182.00 104.67 182.00 92.00
C 187.18 91.39 193.58 93.25 198.00 91.00
C 172.24 83.25 182.20 115.65 182.00 130.00 Z"/>
</g>
<g fill="None" fill-opacity="0.0" stroke="#F0A6A4" stroke-opacity="1.00" stroke-width="0.3"><path d="
M 66.00 99.00 
C 66.00 96.67 66.00 94.33 66.00 92.00
C 64.29 93.26 64.53 97.67 66.00 99.00 Z"/>
</g>
<g fill="None" fill-opacity="0.0" stroke="#FFFEFD" stroke-opacity="1.00" stroke-width="0.3"><path d="
M 66.00 99.00 
C 71.63 101.49 85.09 96.27 75.00 92.00
C 72.00 92.00 69.00 92.00 66.00 92.00
C 66.00 94.33 66.00 96.67 66.00 99.00 Z"/>
</g>
<g fill="None" fill-opacity="0.0" stroke="#FEDADA" stroke-opacity="1.00" stroke-width="0.3"><path d="
M 167.00 131.00 
C 166.34 118.15 168.32 104.09 166.00 92.00
C 166.66 104.85 164.68 118.91 167.00 131.00 Z"/>
</g>
<g fill="None" fill-opacity="0.0" stroke="#4F4F4F" stroke-opacity="1.00" stroke-width="0.3"><path d="
M 46.00 96.00 
C 41.21 97.78 45.63 100.74 46.00 96.00 Z"/>
</g>
<g fill="None" fill-opacity="0.0" stroke="#373737" stroke-opacity="1.00" stroke-width="0.3"><path d="
M 40.00 97.00 
C 37.19 97.31 34.74 102.94 37.00 105.00
C 36.74 101.92 38.94 99.67 40.00 97.00 Z"/>
</g>
<g fill="None" fill-opacity="0.0" stroke="#303030" stroke-opacity="1.00" stroke-width="0.3"><path d="
M 43.00 100.00 
C 39.15 101.49 43.06 104.33 43.00 100.00 Z"/>
</g>
<g fill="None" fill-opacity="0.0" stroke="#484848" stroke-opacity="1.00" stroke-width="0.3"><path d="
M 43.00 109.00 
C 43.21 108.75 44.00 109.00 44.00 109.00
C 44.24 106.52 45.74 104.44 46.00 102.00
C 43.45 103.13 43.33 106.60 43.00 109.00 Z"/>
</g>
<g fill="None" fill-opacity="0.0" stroke="#787878" stroke-opacity="1.00" stroke-width="0.3"><path d="
M 27.00 106.00 
C 27.00 105.00 27.00 104.00 27.00 103.00
C 25.58 103.19 25.72 105.78 27.00 106.00 Z"/>
</g>
<g fill="None" fill-opacity="0.0" stroke="#5E5E5E" stroke-opacity="1.00" stroke-width="0.3"><path d="
M 39.00 107.00 
C 39.00 106.96 40.00 107.00 40.00 107.00
C 41.42 106.81 41.28 104.22 40.00 104.00
C 40.15 105.18 39.57 106.06 39.00 107.00 Z"/>
</g>
<g fill="None" fill-opacity="0.0" stroke="#020202" stroke-opacity="1.00" stroke-width="0.3"><path d="
M 35.00 110.00 
C 35.13 109.78 36.00 110.00 36.00 110.00
C 35.72 108.75 36.60 106.53 35.00 106.00
C 35.00 107.33 35.00 108.67 35.00 110.00 Z"/>
</g>
<g fill="None" fill-opacity="0.0" stroke="#161616" stroke-opacity="1.00" stroke-width="0.3"><path d="
M 40.00 107.00 
C 40.00 107.00 39.00 106.96 39.00 107.00
C 39.55 110.51 37.84 115.24 40.00 118.00
C 40.00 114.33 40.00 110.67 40.00 107.00 Z"/>
</g>
<g fill="None" fill-opacity="0.0" stroke="#979797" stroke-opacity="1.00" stroke-width="0.3"><path d="
M 44.00 109.00 
C 44.00 109.00 43.21 108.75 43.00 109.00
C 40.74 111.83 42.97 115.00 43.00 118.00
C 45.22 115.98 43.41 111.84 44.00 109.00 Z"/>
</g>
<g fill="None" fill-opacity="0.0" stroke="#6F6F6F" stroke-opacity="1.00" stroke-width="0.3"><path d="
M 35.00 114.00 
C 35.13 114.22 36.00 114.00 36.00 114.00
C 36.00 112.67 36.00 111.33 36.00 110.00
C 36.00 110.00 35.13 109.78 35.00 110.00
C 35.00 111.33 35.00 112.67 35.00 114.00 Z"/>
</g>
<g fill="None" fill-opacity="0.0" stroke="#DFA2A0" stroke-opacity="1.00" stroke-width="0.3"><path d="
M 66.00 118.00 
C 66.00 115.67 66.00 113.33 66.00 111.00
C 70.00 111.00 74.00 111.00 78.00 111.00
C 73.11 107.91 60.33 109.79 66.00 118.00 Z"/>
</g>
<g fill="None" fill-opacity="0.0" stroke="#FEFEFE" stroke-opacity="1.00" stroke-width="0.3"><path d="
M 66.00 118.00 
C 70.76 117.00 77.76 120.19 81.00 116.00
C 81.00 115.00 81.00 114.00 81.00 113.00
C 80.72 111.77 79.28 110.73 78.00 111.00
C 74.00 111.00 70.00 111.00 66.00 111.00
C 66.00 113.33 66.00 115.67 66.00 118.00 Z"/>
</g>
<g fill="None" fill-opacity="0.0" stroke="#F0BFBB" stroke-opacity="1.00" stroke-width="0.3"><path d="
M 81.00 116.00 
C 82.42 115.81 82.28 113.22 81.00 113.00
C 81.00 114.00 81.00 115.00 81.00 116.00 Z"/>
</g>
<g fill="None" fill-opacity="0.0" stroke="#0E0E0E" stroke-opacity="1.00" stroke-width="0.3"><path d="
M 36.00 114.00 
C 36.00 114.00 35.13 114.22 35.00 114.00
C 35.34 115.56 34.25 118.17 36.00 119.00
C 36.00 117.33 36.00 115.67 36.00 114.00 Z"/>
</g>
<g fill="None" fill-opacity="0.0" stroke="#4B4B4B" stroke-opacity="1.00" stroke-width="0.3"><path d="
M 46.00 129.00 
C 44.43 125.64 42.94 121.44 40.00 119.00
C 41.17 122.61 42.50 126.89 46.00 129.00 Z"/>
</g>
<g fill="None" fill-opacity="0.0" stroke="#272727" stroke-opacity="1.00" stroke-width="0.3"><path d="
M 45.00 119.00 
C 42.40 122.17 48.33 123.70 45.00 119.00 Z"/>
</g>
<g fill="None" fill-opacity="0.0" stroke="#444444" stroke-opacity="1.00" stroke-width="0.3"><path d="
M 37.00 120.00 
C 34.78 121.25 37.12 124.74 38.00 126.00
C 39.62 124.76 36.74 121.97 37.00 120.00 Z"/>
</g>
<g fill="None" fill-opacity="0.0" stroke="#8B8B8B" stroke-opacity="1.00" stroke-width="0.3"><path d="
M 27.00 124.00 
C 26.96 123.69 27.70 122.95 28.00 123.00
C 27.55 120.69 24.64 123.47 27.00 124.00 Z"/>
</g>
<g fill="None" fill-opacity="0.0" stroke="#E0A4A3" stroke-opacity="1.00" stroke-width="0.3"><path d="
M 92.00 127.00 
C 93.36 126.58 94.33 125.20 95.00 124.00
C 93.64 124.42 92.67 125.80 92.00 127.00 Z"/>
</g>
<g fill="None" fill-opacity="0.0" stroke="#313131" stroke-opacity="1.00" stroke-width="0.3"><path d="
M 46.00 134.00 
C 44.43 133.04 42.75 131.68 42.00 130.00
C 42.29 128.32 40.69 126.68 39.00 127.00
C 40.74 129.23 43.29 134.88 46.00 134.00 Z"/>
</g>
<g fill="None" fill-opacity="0.0" stroke="#8B1316" stroke-opacity="1.00" stroke-width="0.3"><path d="
M 51.00 131.00 
C 61.00 131.00 71.00 131.00 81.00 131.00
C 72.07 128.04 60.34 131.95 51.00 129.00
C 51.00 129.50 50.81 130.92 51.00 131.00 Z"/>
</g>
<g fill="None" fill-opacity="0.0" stroke="#9A9A9A" stroke-opacity="1.00" stroke-width="0.3"><path d="
M 46.00 134.00 
C 45.25 132.32 43.57 130.96 42.00 130.00
C 42.75 131.68 44.43 133.04 46.00 134.00 Z"/>
</g>
<g fill="None" fill-opacity="0.0" stroke="#555555" stroke-opacity="1.00" stroke-width="0.3"><path d="
M 34.00 133.00 
C 34.11 134.00 33.53 135.73 35.00 136.00
C 34.77 135.66 34.92 134.49 35.00 134.00
C 34.73 133.24 36.64 132.22 35.00 132.00
C 35.10 132.21 34.35 132.95 34.00 133.00 Z"/>
</g>
<g fill="None" fill-opacity="0.0" stroke="#0A0A0A" stroke-opacity="1.00" stroke-width="0.3"><path d="
M 35.00 136.00 
C 33.53 135.73 34.11 134.00 34.00 133.00
C 33.00 133.00 32.00 133.00 31.00 133.00
C 33.41 137.21 38.02 140.02 43.00 139.00
C 39.42 142.31 40.89 144.55 46.00 145.00
C 43.30 142.70 43.44 141.64 44.00 138.00
C 40.73 138.30 37.64 137.87 35.00 136.00 Z"/>
</g>
<g fill="None" fill-opacity="0.0" stroke="#030403" stroke-opacity="1.00" stroke-width="0.3"><path d="
M 59.00 142.00 
C 57.72 141.76 56.03 139.56 58.00 139.00
C 58.25 135.07 53.52 136.07 51.00 136.00
C 51.00 139.00 51.00 142.00 51.00 145.00
C 54.09 144.87 58.37 146.06 59.00 142.00
M 56.00 140.00 
C 48.56 141.69 55.36 133.36 56.00 140.00
M 57.00 142.00 
C 52.67 148.21 50.04 137.73 57.00 142.00 Z"/>
</g>
<g fill="None" fill-opacity="0.0" stroke="#080607" stroke-opacity="1.00" stroke-width="0.3"><path d="
M 68.00 145.00 
C 68.64 140.46 69.13 133.97 61.00 136.00
C 61.00 139.00 61.00 142.00 61.00 145.00
C 62.81 141.41 65.36 144.34 68.00 145.00
M 65.00 137.00 
C 72.08 144.06 55.78 140.74 65.00 137.00 Z"/>
</g>
<g fill="None" fill-opacity="0.0" stroke="#000000" stroke-opacity="1.00" stroke-width="0.3"><path d="
M 72.00 145.00 
C 72.00 142.00 72.00 139.00 72.00 136.00
C 70.28 137.89 70.48 143.04 72.00 145.00 Z"/>
</g>
<g fill="None" fill-opacity="0.0" stroke="#B7B7B6" stroke-opacity="1.00" stroke-width="0.3"><path d="
M 72.00 145.00 
C 73.72 143.11 73.52 137.96 72.00 136.00
C 72.00 139.00 72.00 142.00 72.00 145.00 Z"/>
</g>
<g fill="None" fill-opacity="0.0" stroke="#080705" stroke-opacity="1.00" stroke-width="0.3"><path d="
M 75.00 139.00 
C 75.00 140.00 75.00 141.00 75.00 142.00
C 74.27 145.79 82.21 146.41 82.00 143.00
C 74.22 146.77 75.68 134.65 82.00 137.00
C 80.22 134.63 75.86 136.25 75.00 139.00 Z"/>
</g>
<g fill="None" fill-opacity="0.0" stroke="#020201" stroke-opacity="1.00" stroke-width="0.3"><path d="
M 91.00 136.00 
C 72.05 137.92 99.42 153.08 91.00 136.00
M 86.00 142.00 
C 84.72 141.78 84.58 139.19 86.00 139.00
C 92.60 131.35 92.78 149.80 86.00 142.00 Z"/>
</g>
<g fill="None" fill-opacity="0.0" stroke="#0A0708" stroke-opacity="1.00" stroke-width="0.3"><path d="
M 100.00 136.00 
C 98.25 138.10 100.43 144.38 103.00 145.00
C 104.93 143.76 103.53 140.08 106.00 139.00
C 105.83 141.22 106.19 145.11 109.00 145.00
C 109.75 141.90 110.72 138.92 112.00 136.00
C 108.43 135.73 109.89 140.65 108.00 142.00
C 107.54 135.99 102.79 134.67 103.00 142.00
C 100.83 140.84 101.41 137.81 100.00 136.00 Z"/>
</g>
<g fill="None" fill-opacity="0.0" stroke="#050304" stroke-opacity="1.00" stroke-width="0.3"><path d="
M 120.00 136.00 
C 100.83 138.20 128.19 153.20 120.00 136.00
M 119.00 137.00 
C 125.90 148.90 105.70 139.77 119.00 137.00 Z"/>
</g>
<g fill="None" fill-opacity="0.0" stroke="#020402" stroke-opacity="1.00" stroke-width="0.3"><path d="
M 133.00 142.00 
C 133.00 141.00 133.00 140.00 133.00 139.00
C 121.53 126.93 123.59 154.58 133.00 142.00
M 130.00 137.00 
C 137.09 147.88 117.91 141.07 130.00 137.00 Z"/>
</g>
<g fill="None" fill-opacity="0.0" stroke="#030304" stroke-opacity="1.00" stroke-width="0.3"><path d="
M 136.00 145.00 
C 146.15 148.60 146.14 132.40 136.00 136.00
C 136.00 139.00 136.00 142.00 136.00 145.00
M 140.00 138.00 
C 144.57 138.06 142.10 145.42 138.00 144.00
C 135.64 142.82 137.12 134.92 140.00 138.00 Z"/>
</g>
<g fill="None" fill-opacity="0.0" stroke="#010000" stroke-opacity="1.00" stroke-width="0.3"><path d="
M 149.00 137.00 
C 150.00 137.11 151.73 136.53 152.00 138.00
C 152.44 140.20 151.04 143.55 153.00 145.00
C 155.14 143.62 153.48 140.19 154.00 138.00
C 154.26 136.61 156.05 137.22 157.00 137.00
C 155.43 135.28 150.64 135.50 149.00 137.00 Z"/>
</g>
<g fill="None" fill-opacity="0.0" stroke="#050503" stroke-opacity="1.00" stroke-width="0.3"><path d="
M 166.00 145.00 
C 166.87 140.25 166.92 134.06 159.00 136.00
C 159.00 139.00 159.00 142.00 159.00 145.00
C 161.82 143.04 163.29 142.99 166.00 145.00
M 164.00 138.00 
C 166.64 139.59 163.40 143.04 161.00 142.00
C 157.88 140.49 161.95 134.58 164.00 138.00 Z"/>
</g>
<g fill="None" fill-opacity="0.0" stroke="#040305" stroke-opacity="1.00" stroke-width="0.3"><path d="
M 178.00 145.00 
C 175.52 142.31 176.18 136.47 172.00 136.00
C 171.45 139.29 169.27 141.94 168.00 145.00
C 171.23 143.77 174.80 143.69 178.00 145.00
M 175.00 142.00 
C 174.50 144.20 169.06 142.62 172.00 141.00
C 171.73 139.72 172.77 138.28 174.00 138.00
C 173.59 139.56 174.46 140.69 175.00 142.00 Z"/>
</g>
<g fill="None" fill-opacity="0.0" stroke="#878586" stroke-opacity="1.00" stroke-width="0.3"><path d="
M 180.00 145.00 
C 180.00 142.00 180.00 139.00 180.00 136.00
C 178.28 137.89 178.48 143.04 180.00 145.00 Z"/>
</g>
<g fill="None" fill-opacity="0.0" stroke="#050304" stroke-opacity="1.00" stroke-width="0.3"><path d="
M 180.00 145.00 
C 190.20 148.41 189.99 132.86 180.00 136.00
C 180.00 139.00 180.00 142.00 180.00 145.00
M 184.00 138.00 
C 188.38 139.81 184.87 145.17 181.00 144.00
C 181.00 142.00 181.00 140.00 181.00 138.00
C 181.22 136.72 183.81 136.58 184.00 138.00 Z"/>
</g>
<g fill="None" fill-opacity="0.0" stroke="#000000" stroke-opacity="1.00" stroke-width="0.3"><path d="
M 192.00 138.00 
C 192.83 136.25 195.44 137.34 197.00 137.00
C 195.62 134.86 192.19 136.52 190.00 136.00
C 189.11 141.64 189.92 147.21 197.00 145.00
C 191.32 143.97 191.19 140.98 197.00 140.00
C 195.33 139.73 191.48 140.92 192.00 138.00 Z"/>
</g>
<g fill="None" fill-opacity="0.0" stroke="#C5C3C5" stroke-opacity="1.00" stroke-width="0.3"><path d="
M 56.00 140.00 
C 55.36 133.36 48.56 141.69 56.00 140.00 Z"/>
</g>
<g fill="None" fill-opacity="0.0" stroke="#D8D8D8" stroke-opacity="1.00" stroke-width="0.3"><path d="
M 65.00 137.00 
C 55.78 140.74 72.08 144.06 65.00 137.00 Z"/>
</g>
<g fill="None" fill-opacity="0.0" stroke="#ECEDEC" stroke-opacity="1.00" stroke-width="0.3"><path d="
M 86.00 139.00 
C 86.00 140.00 86.00 141.00 86.00 142.00
C 92.78 149.80 92.60 131.35 86.00 139.00 Z"/>
</g>
<g fill="None" fill-opacity="0.0" stroke="#E5E5E5" stroke-opacity="1.00" stroke-width="0.3"><path d="
M 119.00 137.00 
C 105.70 139.77 125.90 148.90 119.00 137.00 Z"/>
</g>
<g fill="None" fill-opacity="0.0" stroke="#F2F1F1" stroke-opacity="1.00" stroke-width="0.3"><path d="
M 130.00 137.00 
C 117.91 141.07 137.09 147.88 130.00 137.00 Z"/>
</g>
<g fill="None" fill-opacity="0.0" stroke="#A4A2A3" stroke-opacity="1.00" stroke-width="0.3"><path d="
M 138.00 144.00 
C 138.45 142.01 136.64 137.77 140.00 138.00
C 137.12 134.92 135.64 142.82 138.00 144.00 Z"/>
</g>
<g fill="None" fill-opacity="0.0" stroke="#777575" stroke-opacity="1.00" stroke-width="0.3"><path d="
M 152.00 138.00 
C 151.73 136.53 150.00 137.11 149.00 137.00
C 149.27 138.47 151.00 137.89 152.00 138.00 Z"/>
</g>
<g fill="None" fill-opacity="0.0" stroke="#6D6E6E" stroke-opacity="1.00" stroke-width="0.3"><path d="
M 154.00 138.00 
C 154.95 137.78 156.74 138.39 157.00 137.00
C 156.05 137.22 154.26 136.61 154.00 138.00 Z"/>
</g>
<g fill="None" fill-opacity="0.0" stroke="#676567" stroke-opacity="1.00" stroke-width="0.3"><path d="
M 161.00 142.00 
C 160.54 139.72 161.11 137.24 164.00 138.00
C 161.95 134.58 157.88 140.49 161.00 142.00 Z"/>
</g>
<g fill="None" fill-opacity="0.0" stroke="#6C6A6A" stroke-opacity="1.00" stroke-width="0.3"><path d="
M 181.00 138.00 
C 182.00 138.00 183.00 138.00 184.00 138.00
C 183.81 136.58 181.22 136.72 181.00 138.00 Z"/>
</g>
<g fill="None" fill-opacity="0.0" stroke="#7D7D7D" stroke-opacity="1.00" stroke-width="0.3"><path d="
M 192.00 138.00 
C 193.56 137.66 196.17 138.75 197.00 137.00
C 195.44 137.34 192.83 136.25 192.00 138.00 Z"/>
</g>
<g fill="None" fill-opacity="0.0" stroke="#F0F0F0" stroke-opacity="1.00" stroke-width="0.3"><path d="
M 138.00 144.00 
C 142.10 145.42 144.57 138.06 140.00 138.00
C 136.64 137.77 138.45 142.01 138.00 144.00 Z"/>
</g>
<g fill="None" fill-opacity="0.0" stroke="#F0F0F0" stroke-opacity="1.00" stroke-width="0.3"><path d="
M 161.00 142.00 
C 163.40 143.04 166.64 139.59 164.00 138.00
C 161.11 137.24 160.54 139.72 161.00 142.00 Z"/>
</g>
<g fill="None" fill-opacity="0.0" stroke="#E0E0DF" stroke-opacity="1.00" stroke-width="0.3"><path d="
M 172.00 141.00 
C 172.26 142.39 174.05 141.78 175.00 142.00
C 174.46 140.69 173.59 139.56 174.00 138.00
C 172.77 138.28 171.73 139.72 172.00 141.00 Z"/>
</g>
<g fill="None" fill-opacity="0.0" stroke="#F3F3F3" stroke-opacity="1.00" stroke-width="0.3"><path d="
M 184.00 138.00 
C 183.00 138.00 182.00 138.00 181.00 138.00
C 181.00 140.00 181.00 142.00 181.00 144.00
C 184.87 145.17 188.38 139.81 184.00 138.00 Z"/>
</g>
<g fill="None" fill-opacity="0.0" stroke="#9CA19F" stroke-opacity="1.00" stroke-width="0.3"><path d="
M 59.00 142.00 
C 58.97 140.86 57.47 140.28 58.00 139.00
C 56.03 139.56 57.72 141.76 59.00 142.00 Z"/>
</g>
<g fill="None" fill-opacity="0.0" stroke="#929193" stroke-opacity="1.00" stroke-width="0.3"><path d="
M 75.00 142.00 
C 75.00 141.00 75.00 140.00 75.00 139.00
C 73.58 139.19 73.72 141.78 75.00 142.00 Z"/>
</g>
<g fill="None" fill-opacity="0.0" stroke="#8D8D91" stroke-opacity="1.00" stroke-width="0.3"><path d="
M 86.00 142.00 
C 86.00 141.00 86.00 140.00 86.00 139.00
C 84.58 139.19 84.72 141.78 86.00 142.00 Z"/>
</g>
<g fill="None" fill-opacity="0.0" stroke="#838481" stroke-opacity="1.00" stroke-width="0.3"><path d="
M 133.00 142.00 
C 134.42 141.81 134.28 139.22 133.00 139.00
C 133.00 140.00 133.00 141.00 133.00 142.00 Z"/>
</g>
<g fill="None" fill-opacity="0.0" stroke="#DEDEDE" stroke-opacity="1.00" stroke-width="0.3"><path d="
M 57.00 142.00 
C 50.04 137.73 52.67 148.21 57.00 142.00 Z"/>
</g>
<g fill="None" fill-opacity="0.0" stroke="#737475" stroke-opacity="1.00" stroke-width="0.3"><path d="
M 175.00 142.00 
C 174.05 141.78 172.26 142.39 172.00 141.00
C 169.06 142.62 174.50 144.20 175.00 142.00 Z"/>
</g>
<g fill="#FEFEFE" fill-opacity="1.00" stroke="None">
<path d="
M 0.00 225.00 
L 225.00 225.00
L 225.00 0.00
L 0.00 0.00
L 0.00 225.00
M 95.00 124.00 
C 94.33 125.20 93.36 126.58 92.00 127.00
C 88.62 129.27 84.63 129.47 81.00 131.00
C 71.00 131.00 61.00 131.00 51.00 131.00
C 49.34 114.74 49.33 95.19 51.00 79.00
C 61.00 79.00 71.00 79.00 81.00 79.00
C 89.35 82.10 89.59 95.32 89.00 103.00
C 94.07 106.80 95.46 117.67 95.00 124.00
M 106.00 79.00 
C 108.33 89.56 108.79 101.32 113.00 111.00
C 114.97 100.26 118.47 89.89 120.00 79.00
C 125.33 79.00 130.67 79.00 136.00 79.00
C 138.01 89.74 140.85 100.27 143.00 111.00
C 146.17 107.00 145.63 100.93 147.00 96.00
C 151.67 96.00 156.33 96.00 161.00 96.00
C 157.53 107.53 155.09 119.34 152.00 131.00
C 146.67 131.00 141.33 131.00 136.00 131.00
C 133.89 119.54 130.12 108.50 128.00 97.00
C 123.80 107.58 121.73 119.65 119.00 131.00
C 114.00 131.00 109.00 131.00 104.00 131.00
C 99.36 113.75 94.71 96.51 91.00 79.00
C 96.00 79.00 101.00 79.00 106.00 79.00
M 196.00 81.00 
C 196.23 84.43 196.77 87.82 198.00 91.00
C 193.58 93.25 187.18 91.39 182.00 92.00
C 182.00 104.67 182.00 117.33 182.00 130.00
C 177.91 132.24 171.84 130.40 167.00 131.00
C 164.68 118.91 166.66 104.85 166.00 92.00
C 160.17 91.34 153.01 93.32 148.00 91.00
C 148.11 90.00 147.53 88.27 149.00 88.00
C 148.59 84.82 150.69 82.28 150.00 79.00
C 165.01 80.32 182.58 76.36 196.00 81.00
M 35.00 134.00 
C 34.92 134.49 34.77 135.66 35.00 136.00
C 37.64 137.87 40.73 138.30 44.00 138.00
C 43.44 141.64 43.30 142.70 46.00 145.00
C 40.89 144.55 39.42 142.31 43.00 139.00
C 38.02 140.02 33.41 137.21 31.00 133.00
C 32.00 133.00 33.00 133.00 34.00 133.00
C 34.35 132.95 35.10 132.21 35.00 132.00
C 32.13 129.88 28.04 128.01 27.00 124.00
C 24.64 123.47 27.55 120.69 28.00 123.00
C 29.04 124.28 30.73 123.49 31.00 122.00
C 26.12 121.01 21.90 107.64 29.00 113.00
C 29.63 110.28 26.93 108.59 27.00 106.00
C 25.72 105.78 25.58 103.19 27.00 103.00
C 26.45 97.25 28.36 101.00 31.00 102.00
C 29.96 97.39 30.16 93.37 32.00 89.00
C 34.54 87.86 33.78 94.16 36.00 91.00
C 36.28 89.72 35.24 87.50 37.00 87.00
C 37.31 84.27 39.84 82.41 41.00 80.00
C 41.85 83.65 43.84 84.87 46.00 81.00
C 46.84 85.51 41.39 87.33 40.00 83.00
C 37.57 86.48 39.02 96.23 32.00 92.00
C 29.82 95.61 35.38 104.10 28.00 103.00
C 26.90 106.59 33.84 113.90 27.00 114.00
C 26.63 118.68 36.28 122.53 29.00 126.00
C 30.97 128.60 39.65 130.69 35.00 134.00
M 46.00 90.00 
C 44.43 92.28 42.33 94.57 40.00 96.00
C 40.41 93.33 43.28 90.33 46.00 90.00
M 46.00 96.00 
C 45.63 100.74 41.21 97.78 46.00 96.00
M 40.00 97.00 
C 38.94 99.67 36.74 101.92 37.00 105.00
C 34.74 102.94 37.19 97.31 40.00 97.00
M 43.00 100.00 
C 43.06 104.33 39.15 101.49 43.00 100.00
M 44.00 109.00 
C 43.41 111.84 45.22 115.98 43.00 118.00
C 42.97 115.00 40.74 111.83 43.00 109.00
C 43.33 106.60 43.45 103.13 46.00 102.00
C 45.74 104.44 44.24 106.52 44.00 109.00
M 40.00 107.00 
C 40.00 110.67 40.00 114.33 40.00 118.00
C 37.84 115.24 39.55 110.51 39.00 107.00
C 39.57 106.06 40.15 105.18 40.00 104.00
C 41.28 104.22 41.42 106.81 40.00 107.00
M 36.00 110.00 
C 36.00 111.33 36.00 112.67 36.00 114.00
C 36.00 115.67 36.00 117.33 36.00 119.00
C 34.25 118.17 35.34 115.56 35.00 114.00
C 35.00 112.67 35.00 111.33 35.00 110.00
C 35.00 108.67 35.00 107.33 35.00 106.00
C 36.60 106.53 35.72 108.75 36.00 110.00
M 46.00 129.00 
C 42.50 126.89 41.17 122.61 40.00 119.00
C 42.94 121.44 44.43 125.64 46.00 129.00
M 45.00 119.00 
C 48.33 123.70 42.40 122.17 45.00 119.00
M 37.00 120.00 
C 36.74 121.97 39.62 124.76 38.00 126.00
C 37.12 124.74 34.78 121.25 37.00 120.00
M 42.00 130.00 
C 43.57 130.96 45.25 132.32 46.00 134.00
C 43.29 134.88 40.74 129.23 39.00 127.00
C 40.69 126.68 42.29 128.32 42.00 130.00
M 58.00 139.00 
C 57.47 140.28 58.97 140.86 59.00 142.00
C 58.37 146.06 54.09 144.87 51.00 145.00
C 51.00 142.00 51.00 139.00 51.00 136.00
C 53.52 136.07 58.25 135.07 58.00 139.00
M 68.00 145.00 
C 65.36 144.34 62.81 141.41 61.00 145.00
C 61.00 142.00 61.00 139.00 61.00 136.00
C 69.13 133.97 68.64 140.46 68.00 145.00
M 72.00 145.00 
C 70.48 143.04 70.28 137.89 72.00 136.00
C 73.52 137.96 73.72 143.11 72.00 145.00
M 75.00 142.00 
C 73.72 141.78 73.58 139.19 75.00 139.00
C 75.86 136.25 80.22 134.63 82.00 137.00
C 75.68 134.65 74.22 146.77 82.00 143.00
C 82.21 146.41 74.27 145.79 75.00 142.00
M 91.00 136.00 
C 99.42 153.08 72.05 137.92 91.00 136.00
M 100.00 136.00 
C 101.41 137.81 100.83 140.84 103.00 142.00
C 102.79 134.67 107.54 135.99 108.00 142.00
C 109.89 140.65 108.43 135.73 112.00 136.00
C 110.72 138.92 109.75 141.90 109.00 145.00
C 106.19 145.11 105.83 141.22 106.00 139.00
C 103.53 140.08 104.93 143.76 103.00 145.00
C 100.43 144.38 98.25 138.10 100.00 136.00
M 120.00 136.00 
C 128.19 153.20 100.83 138.20 120.00 136.00
M 133.00 139.00 
C 134.28 139.22 134.42 141.81 133.00 142.00
C 123.59 154.58 121.53 126.93 133.00 139.00
M 136.00 145.00 
C 136.00 142.00 136.00 139.00 136.00 136.00
C 146.14 132.40 146.15 148.60 136.00 145.00
M 157.00 137.00 
C 156.74 138.39 154.95 137.78 154.00 138.00
C 153.48 140.19 155.14 143.62 153.00 145.00
C 151.04 143.55 152.44 140.20 152.00 138.00
C 151.00 137.89 149.27 138.47 149.00 137.00
C 150.64 135.50 155.43 135.28 157.00 137.00
M 166.00 145.00 
C 163.29 142.99 161.82 143.04 159.00 145.00
C 159.00 142.00 159.00 139.00 159.00 136.00
C 166.92 134.06 166.87 140.25 166.00 145.00
M 178.00 145.00 
C 174.80 143.69 171.23 143.77 168.00 145.00
C 169.27 141.94 171.45 139.29 172.00 136.00
C 176.18 136.47 175.52 142.31 178.00 145.00
M 180.00 145.00 
C 178.48 143.04 178.28 137.89 180.00 136.00
C 189.99 132.86 190.20 148.41 180.00 145.00
M 197.00 137.00 
C 196.17 138.75 193.56 137.66 192.00 138.00
C 191.48 140.92 195.33 139.73 197.00 140.00
C 191.19 140.98 191.32 143.97 197.00 145.00
C 189.92 147.21 189.11 141.64 190.00 136.00
C 192.19 136.52 195.62 134.86 197.00 137.00 Z"/>
</g>
<g fill="#E19C9B" fill-opacity="1.00" stroke="None">
<path d="
M 51.00 131.00 
C 50.81 130.92 51.00 129.50 51.00 129.00
C 51.00 113.00 51.00 97.00 51.00 81.00
C 51.00 80.50 50.81 79.08 51.00 79.00
C 49.33 95.19 49.34 114.74 51.00 131.00 Z"/>
</g>
<g fill="#8B1313" fill-opacity="1.00" stroke="None">
<path d="
M 51.00 81.00 
C 60.34 78.05 72.07 81.96 81.00 79.00
C 71.00 79.00 61.00 79.00 51.00 79.00
C 50.81 79.08 51.00 80.50 51.00 81.00 Z"/>
</g>
<g fill="#B60909" fill-opacity="1.00" stroke="None">
<path d="
M 51.00 81.00 
C 51.00 97.00 51.00 113.00 51.00 129.00
C 60.34 131.95 72.07 128.04 81.00 131.00
C 84.63 129.47 88.62 129.27 92.00 127.00
C 92.67 125.80 93.64 124.42 95.00 124.00
C 95.46 117.67 94.07 106.80 89.00 103.00
C 89.59 95.32 89.35 82.10 81.00 79.00
C 72.07 81.96 60.34 78.05 51.00 81.00
M 75.00 92.00 
C 85.09 96.27 71.63 101.49 66.00 99.00
C 64.53 97.67 64.29 93.26 66.00 92.00
C 67.96 90.48 73.11 90.28 75.00 92.00
M 78.00 111.00 
C 79.28 110.73 80.72 111.77 81.00 113.00
C 82.28 113.22 82.42 115.81 81.00 116.00
C 77.76 120.19 70.76 117.00 66.00 118.00
C 60.33 109.79 73.11 107.91 78.00 111.00 Z"/>
</g>
<g fill="#B30B0A" fill-opacity="1.00" stroke="None">
<path d="
M 106.00 79.00 
C 101.00 79.00 96.00 79.00 91.00 79.00
C 94.71 96.51 99.36 113.75 104.00 131.00
C 109.00 131.00 114.00 131.00 119.00 131.00
C 121.73 119.65 123.80 107.58 128.00 97.00
C 130.12 108.50 133.89 119.54 136.00 131.00
C 141.33 131.00 146.67 131.00 152.00 131.00
C 155.09 119.34 157.53 107.53 161.00 96.00
C 156.33 96.00 151.67 96.00 147.00 96.00
C 145.63 100.93 146.17 107.00 143.00 111.00
C 140.85 100.27 138.01 89.74 136.00 79.00
C 130.67 79.00 125.33 79.00 120.00 79.00
C 118.47 89.89 114.97 100.26 113.00 111.00
C 108.79 101.32 108.33 89.56 106.00 79.00 Z"/>
</g>
<g fill="#8E1213" fill-opacity="1.00" stroke="None">
<path d="
M 149.00 88.00 
C 150.77 86.06 151.20 82.82 151.00 80.00
C 165.91 80.65 181.53 78.69 196.00 81.00
C 182.58 76.36 165.01 80.32 150.00 79.00
C 150.69 82.28 148.59 84.82 149.00 88.00 Z"/>
</g>
<g fill="#111111" fill-opacity="1.00" stroke="None">
<path d="
M 37.00 87.00 
C 36.72 88.28 37.76 90.50 36.00 91.00
C 33.78 94.16 34.54 87.86 32.00 89.00
C 30.16 93.37 29.96 97.39 31.00 102.00
C 28.36 101.00 26.45 97.25 27.00 103.00
C 27.00 104.00 27.00 105.00 27.00 106.00
C 26.93 108.59 29.63 110.28 29.00 113.00
C 21.90 107.64 26.12 121.01 31.00 122.00
C 30.73 123.49 29.04 124.28 28.00 123.00
C 27.70 122.95 26.96 123.69 27.00 124.00
C 28.04 128.01 32.13 129.88 35.00 132.00
C 36.64 132.22 34.73 133.24 35.00 134.00
C 39.65 130.69 30.97 128.60 29.00 126.00
C 36.28 122.53 26.63 118.68 27.00 114.00
C 33.84 113.90 26.90 106.59 28.00 103.00
C 35.38 104.10 29.82 95.61 32.00 92.00
C 39.02 96.23 37.57 86.48 40.00 83.00
C 41.39 87.33 46.84 85.51 46.00 81.00
C 43.84 84.87 41.85 83.65 41.00 80.00
C 39.84 82.41 37.31 84.27 37.00 87.00 Z"/>
</g>
<g fill="#B50506" fill-opacity="1.00" stroke="None">
<path d="
M 149.00 88.00 
C 147.53 88.27 148.11 90.00 148.00 91.00
C 153.83 91.66 160.99 89.68 166.00 92.00
C 168.32 104.09 166.34 118.15 167.00 131.00
C 171.84 130.40 177.91 132.24 182.00 130.00
C 182.20 115.65 172.24 83.25 198.00 91.00
C 196.77 87.82 196.23 84.43 196.00 81.00
C 181.53 78.69 165.91 80.65 151.00 80.00
C 151.20 82.82 150.77 86.06 149.00 88.00 Z"/>
</g>
<g fill="#A0A0A0" fill-opacity="1.00" stroke="None">
<path d="
M 36.00 91.00 
C 37.76 90.50 36.72 88.28 37.00 87.00
C 35.24 87.50 36.28 89.72 36.00 91.00 Z"/>
</g>
<g fill="#505050" fill-opacity="1.00" stroke="None">
<path d="
M 46.00 90.00 
C 43.28 90.33 40.41 93.33 40.00 96.00
C 42.33 94.57 44.43 92.28 46.00 90.00 Z"/>
</g>
<g fill="#CC6462" fill-opacity="1.00" stroke="None">
<path d="
M 66.00 92.00 
C 69.00 92.00 72.00 92.00 75.00 92.00
C 73.11 90.28 67.96 90.48 66.00 92.00 Z"/>
</g>
<g fill="#C86260" fill-opacity="1.00" stroke="None">
<path d="
M 166.00 92.00 
C 160.99 89.68 153.83 91.66 148.00 91.00
C 153.01 93.32 160.17 91.34 166.00 92.00 Z"/>
</g>
<g fill="#B74D4A" fill-opacity="1.00" stroke="None">
<path d="
M 182.00 130.00 
C 182.00 117.33 182.00 104.67 182.00 92.00
C 187.18 91.39 193.58 93.25 198.00 91.00
C 172.24 83.25 182.20 115.65 182.00 130.00 Z"/>
</g>
<g fill="#F0A6A4" fill-opacity="1.00" stroke="None">
<path d="
M 66.00 99.00 
C 66.00 96.67 66.00 94.33 66.00 92.00
C 64.29 93.26 64.53 97.67 66.00 99.00 Z"/>
</g>
<g fill="#FFFEFD" fill-opacity="1.00" stroke="None">
<path d="
M 66.00 99.00 
C 71.63 101.49 85.09 96.27 75.00 92.00
C 72.00 92.00 69.00 92.00 66.00 92.00
C 66.00 94.33 66.00 96.67 66.00 99.00 Z"/>
</g>
<g fill="#FEDADA" fill-opacity="1.00" stroke="None">
<path d="
M 167.00 131.00 
C 166.34 118.15 168.32 104.09 166.00 92.00
C 166.66 104.85 164.68 118.91 167.00 131.00 Z"/>
</g>
<g fill="#4F4F4F" fill-opacity="1.00" stroke="None">
<path d="
M 46.00 96.00 
C 41.21 97.78 45.63 100.74 46.00 96.00 Z"/>
</g>
<g fill="#373737" fill-opacity="1.00" stroke="None">
<path d="
M 40.00 97.00 
C 37.19 97.31 34.74 102.94 37.00 105.00
C 36.74 101.92 38.94 99.67 40.00 97.00 Z"/>
</g>
<g fill="#303030" fill-opacity="1.00" stroke="None">
<path d="
M 43.00 100.00 
C 39.15 101.49 43.06 104.33 43.00 100.00 Z"/>
</g>
<g fill="#484848" fill-opacity="1.00" stroke="None">
<path d="
M 43.00 109.00 
C 43.21 108.75 44.00 109.00 44.00 109.00
C 44.24 106.52 45.74 104.44 46.00 102.00
C 43.45 103.13 43.33 106.60 43.00 109.00 Z"/>
</g>
<g fill="#787878" fill-opacity="1.00" stroke="None">
<path d="
M 27.00 106.00 
C 27.00 105.00 27.00 104.00 27.00 103.00
C 25.58 103.19 25.72 105.78 27.00 106.00 Z"/>
</g>
<g fill="#5E5E5E" fill-opacity="1.00" stroke="None">
<path d="
M 39.00 107.00 
C 39.00 106.96 40.00 107.00 40.00 107.00
C 41.42 106.81 41.28 104.22 40.00 104.00
C 40.15 105.18 39.57 106.06 39.00 107.00 Z"/>
</g>
<g fill="#020202" fill-opacity="1.00" stroke="None">
<path d="
M 35.00 110.00 
C 35.13 109.78 36.00 110.00 36.00 110.00
C 35.72 108.75 36.60 106.53 35.00 106.00
C 35.00 107.33 35.00 108.67 35.00 110.00 Z"/>
</g>
<g fill="#161616" fill-opacity="1.00" stroke="None">
<path d="
M 40.00 107.00 
C 40.00 107.00 39.00 106.96 39.00 107.00
C 39.55 110.51 37.84 115.24 40.00 118.00
C 40.00 114.33 40.00 110.67 40.00 107.00 Z"/>
</g>
<g fill="#979797" fill-opacity="1.00" stroke="None">
<path d="
M 44.00 109.00 
C 44.00 109.00 43.21 108.75 43.00 109.00
C 40.74 111.83 42.97 115.00 43.00 118.00
C 45.22 115.98 43.41 111.84 44.00 109.00 Z"/>
</g>
<g fill="#6F6F6F" fill-opacity="1.00" stroke="None">
<path d="
M 35.00 114.00 
C 35.13 114.22 36.00 114.00 36.00 114.00
C 36.00 112.67 36.00 111.33 36.00 110.00
C 36.00 110.00 35.13 109.78 35.00 110.00
C 35.00 111.33 35.00 112.67 35.00 114.00 Z"/>
</g>
<g fill="#DFA2A0" fill-opacity="1.00" stroke="None">
<path d="
M 66.00 118.00 
C 66.00 115.67 66.00 113.33 66.00 111.00
C 70.00 111.00 74.00 111.00 78.00 111.00
C 73.11 107.91 60.33 109.79 66.00 118.00 Z"/>
</g>
<g fill="#FEFEFE" fill-opacity="1.00" stroke="None">
<path d="
M 66.00 118.00 
C 70.76 117.00 77.76 120.19 81.00 116.00
C 81.00 115.00 81.00 114.00 81.00 113.00
C 80.72 111.77 79.28 110.73 78.00 111.00
C 74.00 111.00 70.00 111.00 66.00 111.00
C 66.00 113.33 66.00 115.67 66.00 118.00 Z"/>
</g>
<g fill="#F0BFBB" fill-opacity="1.00" stroke="None">
<path d="
M 81.00 116.00 
C 82.42 115.81 82.28 113.22 81.00 113.00
C 81.00 114.00 81.00 115.00 81.00 116.00 Z"/>
</g>
<g fill="#0E0E0E" fill-opacity="1.00" stroke="None">
<path d="
M 36.00 114.00 
C 36.00 114.00 35.13 114.22 35.00 114.00
C 35.34 115.56 34.25 118.17 36.00 119.00
C 36.00 117.33 36.00 115.67 36.00 114.00 Z"/>
</g>
<g fill="#4B4B4B" fill-opacity="1.00" stroke="None">
<path d="
M 46.00 129.00 
C 44.43 125.64 42.94 121.44 40.00 119.00
C 41.17 122.61 42.50 126.89 46.00 129.00 Z"/>
</g>
<g fill="#272727" fill-opacity="1.00" stroke="None">
<path d="
M 45.00 119.00 
C 42.40 122.17 48.33 123.70 45.00 119.00 Z"/>
</g>
<g fill="#444444" fill-opacity="1.00" stroke="None">
<path d="
M 37.00 120.00 
C 34.78 121.25 37.12 124.74 38.00 126.00
C 39.62 124.76 36.74 121.97 37.00 120.00 Z"/>
</g>
<g fill="#8B8B8B" fill-opacity="1.00" stroke="None">
<path d="
M 27.00 124.00 
C 26.96 123.69 27.70 122.95 28.00 123.00
C 27.55 120.69 24.64 123.47 27.00 124.00 Z"/>
</g>
<g fill="#E0A4A3" fill-opacity="1.00" stroke="None">
<path d="
M 92.00 127.00 
C 93.36 126.58 94.33 125.20 95.00 124.00
C 93.64 124.42 92.67 125.80 92.00 127.00 Z"/>
</g>
<g fill="#313131" fill-opacity="1.00" stroke="None">
<path d="
M 46.00 134.00 
C 44.43 133.04 42.75 131.68 42.00 130.00
C 42.29 128.32 40.69 126.68 39.00 127.00
C 40.74 129.23 43.29 134.88 46.00 134.00 Z"/>
</g>
<g fill="#8B1316" fill-opacity="1.00" stroke="None">
<path d="
M 51.00 131.00 
C 61.00 131.00 71.00 131.00 81.00 131.00
C 72.07 128.04 60.34 131.95 51.00 129.00
C 51.00 129.50 50.81 130.92 51.00 131.00 Z"/>
</g>
<g fill="#9A9A9A" fill-opacity="1.00" stroke="None">
<path d="
M 46.00 134.00 
C 45.25 132.32 43.57 130.96 42.00 130.00
C 42.75 131.68 44.43 133.04 46.00 134.00 Z"/>
</g>
<g fill="#555555" fill-opacity="1.00" stroke="None">
<path d="
M 34.00 133.00 
C 34.11 134.00 33.53 135.73 35.00 136.00
C 34.77 135.66 34.92 134.49 35.00 134.00
C 34.73 133.24 36.64 132.22 35.00 132.00
C 35.10 132.21 34.35 132.95 34.00 133.00 Z"/>
</g>
<g fill="#0A0A0A" fill-opacity="1.00" stroke="None">
<path d="
M 35.00 136.00 
C 33.53 135.73 34.11 134.00 34.00 133.00
C 33.00 133.00 32.00 133.00 31.00 133.00
C 33.41 137.21 38.02 140.02 43.00 139.00
C 39.42 142.31 40.89 144.55 46.00 145.00
C 43.30 142.70 43.44 141.64 44.00 138.00
C 40.73 138.30 37.64 137.87 35.00 136.00 Z"/>
</g>
<g fill="#030403" fill-opacity="1.00" stroke="None">
<path d="
M 59.00 142.00 
C 57.72 141.76 56.03 139.56 58.00 139.00
C 58.25 135.07 53.52 136.07 51.00 136.00
C 51.00 139.00 51.00 142.00 51.00 145.00
C 54.09 144.87 58.37 146.06 59.00 142.00
M 56.00 140.00 
C 48.56 141.69 55.36 133.36 56.00 140.00
M 57.00 142.00 
C 52.67 148.21 50.04 137.73 57.00 142.00 Z"/>
</g>
<g fill="#080607" fill-opacity="1.00" stroke="None">
<path d="
M 68.00 145.00 
C 68.64 140.46 69.13 133.97 61.00 136.00
C 61.00 139.00 61.00 142.00 61.00 145.00
C 62.81 141.41 65.36 144.34 68.00 145.00
M 65.00 137.00 
C 72.08 144.06 55.78 140.74 65.00 137.00 Z"/>
</g>
<g fill="#000000" fill-opacity="1.00" stroke="None">
<path d="
M 72.00 145.00 
C 72.00 142.00 72.00 139.00 72.00 136.00
C 70.28 137.89 70.48 143.04 72.00 145.00 Z"/>
</g>
<g fill="#B7B7B6" fill-opacity="1.00" stroke="None">
<path d="
M 72.00 145.00 
C 73.72 143.11 73.52 137.96 72.00 136.00
C 72.00 139.00 72.00 142.00 72.00 145.00 Z"/>
</g>
<g fill="#080705" fill-opacity="1.00" stroke="None">
<path d="
M 75.00 139.00 
C 75.00 140.00 75.00 141.00 75.00 142.00
C 74.27 145.79 82.21 146.41 82.00 143.00
C 74.22 146.77 75.68 134.65 82.00 137.00
C 80.22 134.63 75.86 136.25 75.00 139.00 Z"/>
</g>
<g fill="#020201" fill-opacity="1.00" stroke="None">
<path d="
M 91.00 136.00 
C 72.05 137.92 99.42 153.08 91.00 136.00
M 86.00 142.00 
C 84.72 141.78 84.58 139.19 86.00 139.00
C 92.60 131.35 92.78 149.80 86.00 142.00 Z"/>
</g>
<g fill="#0A0708" fill-opacity="1.00" stroke="None">
<path d="
M 100.00 136.00 
C 98.25 138.10 100.43 144.38 103.00 145.00
C 104.93 143.76 103.53 140.08 106.00 139.00
C 105.83 141.22 106.19 145.11 109.00 145.00
C 109.75 141.90 110.72 138.92 112.00 136.00
C 108.43 135.73 109.89 140.65 108.00 142.00
C 107.54 135.99 102.79 134.67 103.00 142.00
C 100.83 140.84 101.41 137.81 100.00 136.00 Z"/>
</g>
<g fill="#050304" fill-opacity="1.00" stroke="None">
<path d="
M 120.00 136.00 
C 100.83 138.20 128.19 153.20 120.00 136.00
M 119.00 137.00 
C 125.90 148.90 105.70 139.77 119.00 137.00 Z"/>
</g>
<g fill="#020402" fill-opacity="1.00" stroke="None">
<path d="
M 133.00 142.00 
C 133.00 141.00 133.00 140.00 133.00 139.00
C 121.53 126.93 123.59 154.58 133.00 142.00
M 130.00 137.00 
C 137.09 147.88 117.91 141.07 130.00 137.00 Z"/>
</g>
<g fill="#030304" fill-opacity="1.00" stroke="None">
<path d="
M 136.00 145.00 
C 146.15 148.60 146.14 132.40 136.00 136.00
C 136.00 139.00 136.00 142.00 136.00 145.00
M 140.00 138.00 
C 144.57 138.06 142.10 145.42 138.00 144.00
C 135.64 142.82 137.12 134.92 140.00 138.00 Z"/>
</g>
<g fill="#010000" fill-opacity="1.00" stroke="None">
<path d="
M 149.00 137.00 
C 150.00 137.11 151.73 136.53 152.00 138.00
C 152.44 140.20 151.04 143.55 153.00 145.00
C 155.14 143.62 153.48 140.19 154.00 138.00
C 154.26 136.61 156.05 137.22 157.00 137.00
C 155.43 135.28 150.64 135.50 149.00 137.00 Z"/>
</g>
<g fill="#050503" fill-opacity="1.00" stroke="None">
<path d="
M 166.00 145.00 
C 166.87 140.25 166.92 134.06 159.00 136.00
C 159.00 139.00 159.00 142.00 159.00 145.00
C 161.82 143.04 163.29 142.99 166.00 145.00
M 164.00 138.00 
C 166.64 139.59 163.40 143.04 161.00 142.00
C 157.88 140.49 161.95 134.58 164.00 138.00 Z"/>
</g>
<g fill="#040305" fill-opacity="1.00" stroke="None">
<path d="
M 178.00 145.00 
C 175.52 142.31 176.18 136.47 172.00 136.00
C 171.45 139.29 169.27 141.94 168.00 145.00
C 171.23 143.77 174.80 143.69 178.00 145.00
M 175.00 142.00 
C 174.50 144.20 169.06 142.62 172.00 141.00
C 171.73 139.72 172.77 138.28 174.00 138.00
C 173.59 139.56 174.46 140.69 175.00 142.00 Z"/>
</g>
<g fill="#878586" fill-opacity="1.00" stroke="None">
<path d="
M 180.00 145.00 
C 180.00 142.00 180.00 139.00 180.00 136.00
C 178.28 137.89 178.48 143.04 180.00 145.00 Z"/>
</g>
<g fill="#050304" fill-opacity="1.00" stroke="None">
<path d="
M 180.00 145.00 
C 190.20 148.41 189.99 132.86 180.00 136.00
C 180.00 139.00 180.00 142.00 180.00 145.00
M 184.00 138.00 
C 188.38 139.81 184.87 145.17 181.00 144.00
C 181.00 142.00 181.00 140.00 181.00 138.00
C 181.22 136.72 183.81 136.58 184.00 138.00 Z"/>
</g>
<g fill="#000000" fill-opacity="1.00" stroke="None">
<path d="
M 192.00 138.00 
C 192.83 136.25 195.44 137.34 197.00 137.00
C 195.62 134.86 192.19 136.52 190.00 136.00
C 189.11 141.64 189.92 147.21 197.00 145.00
C 191.32 143.97 191.19 140.98 197.00 140.00
C 195.33 139.73 191.48 140.92 192.00 138.00 Z"/>
</g>
<g fill="#C5C3C5" fill-opacity="1.00" stroke="None">
<path d="
M 56.00 140.00 
C 55.36 133.36 48.56 141.69 56.00 140.00 Z"/>
</g>
<g fill="#D8D8D8" fill-opacity="1.00" stroke="None">
<path d="
M 65.00 137.00 
C 55.78 140.74 72.08 144.06 65.00 137.00 Z"/>
</g>
<g fill="#ECEDEC" fill-opacity="1.00" stroke="None">
<path d="
M 86.00 139.00 
C 86.00 140.00 86.00 141.00 86.00 142.00
C 92.78 149.80 92.60 131.35 86.00 139.00 Z"/>
</g>
<g fill="#E5E5E5" fill-opacity="1.00" stroke="None">
<path d="
M 119.00 137.00 
C 105.70 139.77 125.90 148.90 119.00 137.00 Z"/>
</g>
<g fill="#F2F1F1" fill-opacity="1.00" stroke="None">
<path d="
M 130.00 137.00 
C 117.91 141.07 137.09 147.88 130.00 137.00 Z"/>
</g>
<g fill="#A4A2A3" fill-opacity="1.00" stroke="None">
<path d="
M 138.00 144.00 
C 138.45 142.01 136.64 137.77 140.00 138.00
C 137.12 134.92 135.64 142.82 138.00 144.00 Z"/>
</g>
<g fill="#777575" fill-opacity="1.00" stroke="None">
<path d="
M 152.00 138.00 
C 151.73 136.53 150.00 137.11 149.00 137.00
C 149.27 138.47 151.00 137.89 152.00 138.00 Z"/>
</g>
<g fill="#6D6E6E" fill-opacity="1.00" stroke="None">
<path d="
M 154.00 138.00 
C 154.95 137.78 156.74 138.39 157.00 137.00
C 156.05 137.22 154.26 136.61 154.00 138.00 Z"/>
</g>
<g fill="#676567" fill-opacity="1.00" stroke="None">
<path d="
M 161.00 142.00 
C 160.54 139.72 161.11 137.24 164.00 138.00
C 161.95 134.58 157.88 140.49 161.00 142.00 Z"/>
</g>
<g fill="#6C6A6A" fill-opacity="1.00" stroke="None">
<path d="
M 181.00 138.00 
C 182.00 138.00 183.00 138.00 184.00 138.00
C 183.81 136.58 181.22 136.72 181.00 138.00 Z"/>
</g>
<g fill="#7D7D7D" fill-opacity="1.00" stroke="None">
<path d="
M 192.00 138.00 
C 193.56 137.66 196.17 138.75 197.00 137.00
C 195.44 137.34 192.83 136.25 192.00 138.00 Z"/>
</g>
<g fill="#F0F0F0" fill-opacity="1.00" stroke="None">
<path d="
M 138.00 144.00 
C 142.10 145.42 144.57 138.06 140.00 138.00
C 136.64 137.77 138.45 142.01 138.00 144.00 Z"/>
</g>
<g fill="#F0F0F0" fill-opacity="1.00" stroke="None">
<path d="
M 161.00 142.00 
C 163.40 143.04 166.64 139.59 164.00 138.00
C 161.11 137.24 160.54 139.72 161.00 142.00 Z"/>
</g>
<g fill="#E0E0DF" fill-opacity="1.00" stroke="None">
<path d="
M 172.00 141.00 
C 172.26 142.39 174.05 141.78 175.00 142.00
C 174.46 140.69 173.59 139.56 174.00 138.00
C 172.77 138.28 171.73 139.72 172.00 141.00 Z"/>
</g>
<g fill="#F3F3F3" fill-opacity="1.00" stroke="None">
<path d="
M 184.00 138.00 
C 183.00 138.00 182.00 138.00 181.00 138.00
C 181.00 140.00 181.00 142.00 181.00 144.00
C 184.87 145.17 188.38 139.81 184.00 138.00 Z"/>
</g>
<g fill="#9CA19F" fill-opacity="1.00" stroke="None">
<path d="
M 59.00 142.00 
C 58.97 140.86 57.47 140.28 58.00 139.00
C 56.03 139.56 57.72 141.76 59.00 142.00 Z"/>
</g>
<g fill="#929193" fill-opacity="1.00" stroke="None">
<path d="
M 75.00 142.00 
C 75.00 141.00 75.00 140.00 75.00 139.00
C 73.58 139.19 73.72 141.78 75.00 142.00 Z"/>
</g>
<g fill="#8D8D91" fill-opacity="1.00" stroke="None">
<path d="
M 86.00 142.00 
C 86.00 141.00 86.00 140.00 86.00 139.00
C 84.58 139.19 84.72 141.78 86.00 142.00 Z"/>
</g>
<g fill="#838481" fill-opacity="1.00" stroke="None">
<path d="
M 133.00 142.00 
C 134.42 141.81 134.28 139.22 133.00 139.00
C 133.00 140.00 133.00 141.00 133.00 142.00 Z"/>
</g>
<g fill="#DEDEDE" fill-opacity="1.00" stroke="None">
<path d="
M 57.00 142.00 
C 50.04 137.73 52.67 148.21 57.00 142.00 Z"/>
</g>
<g fill="#737475" fill-opacity="1.00" stroke="None">
<path d="
M 175.00 142.00 
C 174.05 141.78 172.26 142.39 172.00 141.00
C 169.06 142.62 174.50 144.20 175.00 142.00 Z"/>
</g>
</svg>