<svg xmlns="http://www.w3.org/2000/svg" xmlns:v="https://svgstorm.com"
viewBox = "0 0 225 225"
width="225"
height="225">
<g fill="None" fill-opacity="0.0" stroke="#FEFEFE" stroke-opacity="1.00" stroke-width="0.3"><path d="
M 0.00 225.00 
L 225.00 225.00
L 225.00 0.00
L 0.00 0.00
L 0.00 225.00
M 35.00 69.00 
C 37.84 68.41 41.98 70.22 44.00 68.00
C 44.00 65.33 44.00 62.67 44.00 60.00
C 46.03 62.57 44.30 66.99 46.00 70.00
C 45.34 77.50 47.33 86.33 45.00 93.00
C 45.00 107.67 45.00 122.33 45.00 137.00
C 46.67 137.00 48.33 137.00 50.00 137.00
C 45.01 137.25 44.24 141.06 45.00 146.00
C 42.97 144.23 44.47 140.52 44.00 138.00
C 40.67 138.00 37.33 138.00 34.00 138.00
C 34.00 141.00 34.00 144.00 34.00 147.00
C 31.26 144.50 35.71 136.24 29.00 138.00
C 37.26 134.50 31.10 120.17 33.00 112.00 C 33.00 101.67 33.00 91.33 33.00 81.00
C 33.00 77.00 33.00 73.00 33.00 69.00
C 33.00 66.00 33.00 63.00 33.00 60.00
C 35.35 62.13 32.75 66.51 35.00 69.00
M 71.00 78.00 
C 76.49 73.94 82.53 70.88 89.00 69.00
C 92.33 69.00 95.67 69.00 99.00 69.00
C 100.00 69.11 101.73 68.53 102.00 70.00
C 102.23 70.28 102.68 70.80 103.00 71.00
C 108.36 71.41 112.58 75.30 117.00 78.00
C 117.00 75.33 117.00 72.67 117.00 70.00
C 112.33 70.00 107.67 70.00 103.00 70.00
C 106.75 67.78 112.49 69.59 117.00 69.00
C 117.00 66.00 117.00 63.00 117.00 60.00
C 119.08 62.10 117.50 66.15 118.00 69.00
C 121.00 69.00 124.00 69.00 127.00 69.00
C 127.35 68.95 127.74 68.12 128.00 68.00
C 128.00 65.33 128.00 62.67 128.00 60.00
C 127.98 63.50 132.17 67.60 129.00 68.00
C 129.25 68.25 129.00 69.00 129.00 69.00
C 130.33 69.00 131.67 69.00 133.00 69.00
C 125.82 70.22 130.19 80.33 129.00 86.00 C 129.00 93.33 129.00 100.67 129.00 108.00 C 130.73 113.49 124.99 126.00 133.00 126.00
C 127.46 126.38 129.19 132.58 129.00 137.00
C 129.50 137.05 130.00 137.00 130.00 137.00
C 131.00 137.00 132.00 137.00 133.00 137.00
C 130.64 138.18 129.82 138.59 132.00 141.00
C 127.73 138.53 129.26 144.31 129.00 147.00
C 126.97 145.23 128.47 141.52 128.00 139.00
C 127.95 138.65 127.12 138.26 127.00 138.00
C 124.00 138.00 121.00 138.00 118.00 138.00
C 118.00 141.00 118.00 144.00 118.00 147.00
C 115.92 144.90 117.50 140.85 117.00 138.00
C 111.00 138.00 105.00 138.00 99.00 138.00
C 96.00 138.00 93.00 138.00 90.00 138.00
C 83.67 138.00 77.33 138.00 71.00 138.00
C 71.00 141.00 71.00 144.00 71.00 147.00
C 68.92 144.90 70.50 140.85 70.00 138.00
C 63.48 136.88 57.64 138.03 60.00 146.00
C 57.77 143.83 60.78 136.76 55.00 138.00
C 55.53 136.40 57.75 137.28 59.00 137.00
C 58.32 133.37 61.36 125.56 55.00 127.00
C 63.00 124.33 57.27 111.29 59.00 104.00 C 56.92 96.76 63.52 81.63 55.00 80.00
C 60.21 80.58 61.49 68.37 55.00 70.00
C 57.90 69.05 58.34 67.37 56.00 65.00
C 60.59 67.67 57.67 61.56 60.00 60.00
C 57.70 67.65 63.10 70.67 70.00 69.00
C 70.00 66.00 70.00 63.00 70.00 60.00
C 72.27 65.09 70.38 72.16 71.00 78.00
M 145.00 69.00 
C 148.04 69.92 154.31 66.92 155.00 71.00
C 155.12 71.35 155.71 72.06 156.00 72.00
C 157.34 70.88 159.51 70.32 161.00 69.00
C 162.00 69.00 163.00 69.00 164.00 69.00
C 165.33 69.00 166.67 69.00 168.00 69.00
C 170.00 69.00 172.00 69.00 174.00 69.00
C 174.83 69.41 175.87 69.97 176.00 71.00
C 177.54 70.63 178.40 72.43 180.00 72.00
C 180.00 68.00 180.00 64.00 180.00 60.00
C 182.08 62.10 180.50 66.15 181.00 69.00
C 187.92 70.71 193.25 67.64 191.00 60.00
C 193.74 62.50 189.29 70.76 196.00 69.00
C 190.79 68.42 189.51 80.63 196.00 79.00
C 189.77 79.55 192.59 87.23 192.00 92.00 C 193.19 96.23 188.81 106.07 196.00 105.00
C 190.65 104.47 189.46 117.57 196.00 116.00
C 188.21 118.15 193.58 130.27 192.00 137.00
C 193.33 137.00 194.67 137.00 196.00 137.00
C 190.88 137.36 191.96 142.73 192.00 147.00
C 189.92 144.90 191.50 140.85 191.00 138.00
C 187.67 138.00 184.33 138.00 181.00 138.00
C 181.00 141.00 181.00 144.00 181.00 147.00
C 178.92 144.90 180.50 140.85 180.00 138.00
C 172.00 138.00 164.00 138.00 156.00 138.00
C 153.16 137.41 149.02 139.22 147.00 137.00
C 146.13 135.02 145.89 139.15 144.00 138.00
C 144.00 140.67 144.00 143.33 144.00 146.00
C 141.51 143.65 145.30 136.21 139.00 138.00
C 139.53 136.40 141.75 137.28 143.00 137.00
C 143.00 131.00 143.00 125.00 143.00 119.00
C 143.63 116.47 140.47 117.10 139.00 117.00
C 144.35 117.53 145.54 104.43 139.00 106.00
C 145.23 105.45 142.41 97.77 143.00 93.00 C 141.81 88.77 146.19 78.93 139.00 80.00
C 144.21 80.58 145.49 68.37 139.00 70.00
C 144.12 69.64 143.04 64.27 143.00 60.00
C 145.66 61.96 142.28 67.11 145.00 69.00
M 220.00 152.00 
C 220.00 161.67 220.00 171.33 220.00 181.00
C 212.67 181.00 205.33 181.00 198.00 181.00
C 204.09 178.71 212.16 180.63 219.00 180.00
C 219.00 171.00 219.00 162.00 219.00 153.00
C 148.00 153.00 77.00 153.00 6.00 153.00
C 6.00 162.00 6.00 171.00 6.00 180.00
C 12.33 180.00 18.67 180.00 25.00 180.00
C 19.25 182.28 11.51 180.37 5.00 181.00
C 5.00 171.33 5.00 161.67 5.00 152.00
C 76.67 152.00 148.33 152.00 220.00 152.00
M 12.00 173.00 
C 10.40 169.07 10.30 161.86 12.00 158.00
C 13.33 158.00 14.67 158.00 16.00 158.00
C 16.00 163.00 16.00 168.00 16.00 173.00
C 14.67 173.00 13.33 173.00 12.00 173.00
M 33.00 168.00 
C 37.83 165.17 38.61 156.14 46.00 158.00
C 46.00 163.00 46.00 168.00 46.00 173.00
C 39.14 175.32 42.21 167.86 40.00 165.00
C 37.95 172.79 29.82 173.99 27.00 166.00
C 25.21 168.93 27.22 175.02 21.00 173.00
C 21.00 168.00 21.00 163.00 21.00 158.00
C 27.64 156.51 29.61 164.13 33.00 168.00
M 70.00 158.00 
C 74.77 160.96 74.93 174.29 67.00 173.00 C 60.03 173.25 47.93 175.01 51.00 164.00 C 50.46 153.97 63.87 159.34 70.00 158.00
M 78.00 173.00 
C 78.00 168.00 78.00 163.00 78.00 158.00
C 84.78 158.87 100.97 154.22 97.35 165.69 C 103.15 176.79 84.19 172.07 78.00 173.00
M 109.00 158.00 
C 109.00 163.00 109.00 168.00 109.00 173.00
C 101.33 175.75 101.23 155.27 109.00 158.00
M 118.00 158.00 
C 114.71 169.01 122.47 172.01 132.00 170.00
C 130.60 176.32 119.40 171.48 114.00 173.00
C 115.45 168.29 110.42 157.31 118.00 158.00
M 153.00 162.00 
C 149.67 162.00 146.33 162.00 143.00 162.00
C 137.56 173.42 153.49 169.78 159.00 168.00
C 157.85 176.26 134.10 176.50 137.00 165.00 C 135.95 154.68 159.37 154.62 159.00 164.00
C 156.53 164.68 154.82 163.22 153.00 162.00
M 187.00 173.00 
C 179.30 169.76 171.60 169.33 164.00 173.00
C 167.21 167.91 169.67 160.61 175.03 158.03 C 181.24 159.40 183.03 168.25 187.00 173.00
M 213.00 161.00 
C 214.52 162.96 214.72 168.11 213.00 170.00
C 209.36 176.11 198.54 171.62 192.00 173.00
C 192.00 168.00 192.00 163.00 192.00 158.00
C 198.71 159.42 208.51 154.82 213.00 161.00
M 31.00 185.00 
C 27.98 176.41 37.79 176.98 43.07 178.93 C 45.91 185.64 34.03 181.34 31.00 185.00
M 68.00 184.00 
C 70.53 184.26 69.30 187.37 68.00 185.00
C 64.17 183.33 60.15 182.03 57.00 185.00
C 52.28 174.30 73.55 176.33 68.00 184.00
M 94.00 178.00 
C 100.86 184.61 89.27 186.30 84.00 185.00 C 77.46 178.91 89.23 176.53 94.00 178.00
M 111.00 185.00 
C 107.72 187.97 106.76 179.27 109.00 178.00
C 112.47 177.86 110.44 182.85 111.00 185.00
M 135.00 179.00 
C 132.90 181.08 128.85 179.50 126.00 180.00
C 127.64 182.59 132.43 179.34 134.00 182.00
C 132.23 184.03 128.52 182.53 126.00 183.00
C 128.10 185.08 132.15 183.50 135.00 184.00
C 131.91 186.19 126.84 184.43 123.00 185.00
C 119.76 176.47 130.32 176.78 135.00 179.00
M 161.00 180.00 
C 158.41 181.19 153.61 179.23 150.00 180.00
C 148.66 186.77 157.40 183.27 161.00 183.00
C 159.47 187.21 151.92 183.98 148.00 185.00
C 144.92 176.45 157.05 176.18 161.00 180.00
M 186.00 178.00 
C 185.24 181.25 178.70 179.16 181.00 185.00
C 178.61 182.49 177.92 179.10 173.00 179.00
C 176.42 176.79 181.82 178.58 186.00 178.00 Z"/>
</g>
<g fill="None" fill-opacity="0.0" stroke="#B5B3B3" stroke-opacity="1.00" stroke-width="0.3"><path d="
M 33.00 69.00 
C 33.08 68.81 34.50 69.00 35.00 69.00
C 32.75 66.51 35.35 62.13 33.00 60.00
C 33.00 63.00 33.00 66.00 33.00 69.00 Z"/>
</g>
<g fill="None" fill-opacity="0.0" stroke="#B5B3B3" stroke-opacity="1.00" stroke-width="0.3"><path d="
M 44.00 68.00 
C 45.10 68.03 44.81 69.34 45.00 70.00
C 45.25 69.75 46.00 70.00 46.00 70.00
C 44.30 66.99 46.03 62.57 44.00 60.00
C 44.00 62.67 44.00 65.33 44.00 68.00 Z"/>
</g>
<g fill="None" fill-opacity="0.0" stroke="#B8B7B6" stroke-opacity="1.00" stroke-width="0.3"><path d="
M 59.00 137.00 
C 59.40 138.62 60.89 136.32 62.00 137.00
C 63.65 133.52 68.51 131.92 69.00 128.00
C 65.55 130.05 63.42 134.00 60.00 136.00
C 60.00 133.00 60.00 130.00 60.00 127.00
C 63.00 127.00 66.00 127.00 69.00 127.00
C 68.95 126.50 69.00 126.00 69.00 126.00
C 68.59 125.17 68.03 124.13 67.00 124.00
C 69.22 127.54 61.96 125.42 60.00 126.00
C 60.65 121.17 58.69 115.01 61.00 111.00
C 59.48 106.03 59.51 99.99 61.00 95.00
C 60.08 91.24 57.18 79.89 64.00 80.00
C 59.36 79.61 59.71 75.15 60.00 71.00
C 63.29 72.53 70.03 76.92 68.00 81.00
C 68.22 80.75 69.00 81.00 69.00 81.00
C 69.41 80.17 69.97 79.13 71.00 79.00
C 70.95 78.50 71.00 78.00 71.00 78.00
C 70.38 72.16 72.27 65.09 70.00 60.00
C 70.00 63.00 70.00 66.00 70.00 69.00
C 63.10 70.67 57.70 67.65 60.00 60.00
C 57.67 61.56 60.59 67.67 56.00 65.00
C 58.34 67.37 57.90 69.05 55.00 70.00
C 61.49 68.37 60.21 80.58 55.00 80.00
C 63.52 81.63 56.92 96.76 59.00 104.00 C 57.27 111.29 63.00 124.33 55.00 127.00
C 61.36 125.56 58.32 133.37 59.00 137.00
M 70.00 70.00 
C 71.71 79.38 67.12 75.01 63.00 71.00
C 64.45 69.04 67.80 70.44 70.00 70.00 Z"/>
</g>
<g fill="None" fill-opacity="0.0" stroke="#B9BABA" stroke-opacity="1.00" stroke-width="0.3"><path d="
M 117.00 78.00 
C 117.14 77.77 118.00 78.00 118.00 78.00
C 118.00 75.33 118.00 72.67 118.00 70.00
C 128.66 68.34 121.22 73.18 119.00 78.00
C 122.48 76.35 124.08 71.49 128.00 71.00
C 127.74 88.79 128.17 107.60 128.00 126.00
C 124.67 126.00 121.33 126.00 118.00 126.00
C 118.00 111.00 118.00 96.00 118.00 81.00
C 117.67 81.24 117.00 81.00 117.00 81.00
C 116.33 95.50 118.33 111.32 116.00 125.00
C 116.20 125.40 116.00 126.00 116.00 126.00
C 117.28 125.47 117.86 126.97 119.00 127.00
C 122.00 127.00 125.00 127.00 128.00 127.00
C 128.00 130.00 128.00 133.00 128.00 136.00
C 128.05 136.35 128.65 136.97 129.00 137.00
C 129.19 132.58 127.46 126.38 133.00 126.00
C 124.99 126.00 130.73 113.49 129.00 108.00 C 129.00 100.67 129.00 93.33 129.00 86.00 C 130.19 80.33 125.82 70.22 133.00 69.00
C 131.67 69.00 130.33 69.00 129.00 69.00
C 128.99 70.19 127.01 70.17 127.00 69.00
C 124.00 69.00 121.00 69.00 118.00 69.00
C 117.50 66.15 119.08 62.10 117.00 60.00
C 117.00 63.00 117.00 66.00 117.00 69.00
C 112.49 69.59 106.75 67.78 103.00 70.00
C 107.67 70.00 112.33 70.00 117.00 70.00
C 117.00 72.67 117.00 75.33 117.00 78.00 Z"/>
</g>
<g fill="None" fill-opacity="0.0" stroke="#C4C4C5" stroke-opacity="1.00" stroke-width="0.3"><path d="
M 128.00 68.00 
C 128.41 67.81 129.00 68.00 129.00 68.00
C 132.17 67.60 127.98 63.50 128.00 60.00
C 128.00 62.67 128.00 65.33 128.00 68.00 Z"/>
</g>
<g fill="None" fill-opacity="0.0" stroke="#BBADA6" stroke-opacity="1.00" stroke-width="0.3"><path d="
M 143.00 119.00 
C 143.20 119.24 144.00 119.00 144.00 119.00
C 144.13 118.20 145.09 117.89 145.00 117.00
C 145.09 116.52 145.00 116.00 145.00 116.00
C 143.28 113.25 143.20 107.28 146.00 105.00
C 144.86 102.48 143.76 99.92 144.00 97.00
C 144.00 94.33 144.00 91.67 144.00 89.00
C 143.77 87.17 144.07 85.53 145.00 84.00
C 142.60 79.95 143.74 73.75 145.00 69.00
C 142.28 67.11 145.66 61.96 143.00 60.00
C 143.04 64.27 144.12 69.64 139.00 70.00
C 145.49 68.37 144.21 80.58 139.00 80.00
C 146.19 78.93 141.81 88.77 143.00 93.00 C 142.41 97.77 145.23 105.45 139.00 106.00
C 145.54 104.43 144.35 117.53 139.00 117.00
C 140.47 117.10 143.63 116.47 143.00 119.00 Z"/>
</g>
<g fill="None" fill-opacity="0.0" stroke="#C2BFBE" stroke-opacity="1.00" stroke-width="0.3"><path d="
M 180.00 72.00 
C 180.13 72.80 181.09 73.11 181.00 74.00
C 181.40 74.20 182.00 74.00 182.00 74.00
C 181.07 72.86 180.92 71.45 181.00 70.00
C 184.33 70.00 187.67 70.00 191.00 70.00
C 191.41 77.02 189.29 79.04 191.00 85.00
C 191.00 86.00 191.00 87.00 191.00 88.00
C 190.74 91.03 191.74 94.37 190.00 97.00
C 191.28 97.22 191.42 99.81 190.00 100.00
C 190.06 101.89 188.58 103.29 188.00 105.00
C 187.80 105.40 188.00 106.00 188.00 106.00
C 189.00 106.00 190.00 106.00 191.00 106.00
C 191.00 109.33 191.00 112.67 191.00 116.00
C 187.67 116.00 184.33 116.00 181.00 116.00
C 180.59 114.44 181.46 113.31 182.00 112.00
C 181.20 112.13 180.89 113.09 180.00 113.00
C 178.54 113.55 177.82 115.40 176.00 115.00
C 175.92 116.26 173.94 115.56 174.00 117.00
C 176.00 117.00 178.00 117.00 180.00 117.00
C 179.77 115.95 181.20 116.26 181.00 117.00
C 184.33 117.00 187.67 117.00 191.00 117.00
C 191.00 123.67 191.00 130.33 191.00 137.00
C 191.50 137.00 192.00 137.00 192.00 137.00
C 193.58 130.27 188.21 118.15 196.00 116.00
C 189.46 117.57 190.65 104.47 196.00 105.00
C 188.81 106.07 193.19 96.23 192.00 92.00 C 192.59 87.23 189.77 79.55 196.00 79.00
C 189.51 80.63 190.79 68.42 196.00 69.00
C 189.29 70.76 193.74 62.50 191.00 60.00
C 193.25 67.64 187.92 70.71 181.00 69.00
C 180.50 66.15 182.08 62.10 180.00 60.00
C 180.00 64.00 180.00 68.00 180.00 72.00 Z"/>
</g>
<g fill="None" fill-opacity="0.0" stroke="#A35F41" stroke-opacity="1.00" stroke-width="0.3"><path d="
M 35.00 69.00 
C 34.50 69.00 33.08 68.81 33.00 69.00
C 33.00 73.00 33.00 77.00 33.00 81.00
C 34.10 81.03 33.81 82.34 34.00 83.00
C 36.75 82.73 37.68 86.29 40.00 87.00
C 35.75 82.73 32.27 77.99 34.00 71.00
C 37.67 71.00 41.33 71.00 45.00 71.00
C 45.00 70.50 45.00 70.00 45.00 70.00
C 44.81 69.34 45.10 68.03 44.00 68.00
C 41.98 70.22 37.84 68.41 35.00 69.00 Z"/>
</g>
<g fill="None" fill-opacity="0.0" stroke="#4C4E50" stroke-opacity="1.00" stroke-width="0.3"><path d="
M 127.00 69.00 
C 127.01 70.17 128.99 70.19 129.00 69.00
C 129.00 69.00 129.25 68.25 129.00 68.00
C 129.00 68.00 128.41 67.81 128.00 68.00
C 127.74 68.12 127.35 68.95 127.00 69.00 Z"/>
</g>
<g fill="None" fill-opacity="0.0" stroke="#A17566" stroke-opacity="1.00" stroke-width="0.3"><path d="
M 71.00 78.00 
C 71.00 78.00 70.95 78.50 71.00 79.00
C 71.03 79.35 71.79 79.73 72.00 80.00
C 74.43 74.46 84.14 71.81 90.00 70.00
C 89.65 69.95 89.18 69.01 89.00 69.00
C 82.53 70.88 76.49 73.94 71.00 78.00 Z"/>
</g>
<g fill="None" fill-opacity="0.0" stroke="#523930" stroke-opacity="1.00" stroke-width="0.3"><path d="
M 90.00 70.00 
C 93.00 70.00 96.00 70.00 99.00 70.00
C 98.75 69.73 99.00 69.00 99.00 69.00
C 95.67 69.00 92.33 69.00 89.00 69.00
C 89.18 69.01 89.65 69.95 90.00 70.00 Z"/>
</g>
<g fill="None" fill-opacity="0.0" stroke="#A39894" stroke-opacity="1.00" stroke-width="0.3"><path d="
M 99.00 70.00 
C 100.00 70.00 101.00 70.00 102.00 70.00
C 101.73 68.53 100.00 69.11 99.00 69.00
C 99.00 69.00 98.75 69.73 99.00 70.00 Z"/>
</g>
<g fill="None" fill-opacity="0.0" stroke="#EAA383" stroke-opacity="1.00" stroke-width="0.3"><path d="
M 145.00 84.00 
C 145.67 79.58 148.70 75.82 153.00 74.00
C 153.59 77.31 146.65 77.51 151.00 80.00
C 145.12 79.37 146.70 86.65 144.00 89.00
C 144.00 91.67 144.00 94.33 144.00 97.00
C 145.25 99.22 147.07 102.06 147.00 105.00
C 153.18 105.36 154.45 101.33 159.00 105.00
C 154.19 105.64 156.28 108.41 155.00 112.00
C 158.28 115.41 163.34 115.51 167.00 117.00
C 167.50 117.00 168.00 117.00 168.00 117.00
C 170.02 116.26 174.39 114.34 176.00 115.00
C 177.82 115.40 178.54 113.55 180.00 113.00
C 180.00 108.67 180.00 104.33 180.00 100.00
C 178.88 100.02 177.67 102.97 177.00 101.00
C 176.77 101.26 176.07 101.65 176.00 102.00
C 174.46 103.31 176.29 104.40 176.00 106.00
C 174.39 105.99 171.57 106.59 172.00 104.00
C 170.03 105.59 167.34 104.80 165.00 105.00
C 163.82 106.51 161.86 104.85 160.00 106.00
C 162.21 103.54 157.43 102.26 157.00 100.00
C 156.80 99.60 157.00 99.00 157.00 99.00
C 156.06 99.57 155.18 100.15 154.00 100.00
C 155.15 97.63 153.70 95.70 154.00 93.00
C 153.94 92.51 154.00 92.00 154.00 92.00
C 153.45 87.84 156.61 82.34 152.00 80.00
C 155.72 79.22 152.78 75.22 156.00 75.00
C 157.14 78.82 154.96 82.34 157.00 86.00
C 158.29 85.56 159.21 84.42 159.00 83.00
C 160.84 81.46 158.37 80.48 158.00 79.00
C 161.17 79.61 165.65 77.75 168.00 80.00
C 168.50 79.98 169.00 80.00 169.00 80.00
C 172.56 77.62 174.88 82.37 177.00 79.00
C 175.68 82.49 177.54 83.04 179.00 86.00
C 179.21 86.39 179.00 87.00 179.00 87.00
C 180.62 81.62 178.29 78.81 180.00 73.00
C 178.59 72.85 176.66 72.35 176.00 71.00
C 175.87 69.97 174.83 69.41 174.00 69.00
C 174.49 71.71 169.05 70.07 168.00 69.00
C 166.67 69.00 165.33 69.00 164.00 69.00
C 163.32 70.15 160.49 71.84 161.00 69.00
C 159.51 70.32 157.34 70.88 156.00 72.00
C 155.59 72.83 155.03 73.87 154.00 74.00
C 154.11 73.00 153.53 71.27 155.00 71.00
C 154.31 66.92 148.04 69.92 145.00 69.00
C 143.74 73.75 142.60 79.95 145.00 84.00 Z"/>
</g>
<g fill="None" fill-opacity="0.0" stroke="#583C2B" stroke-opacity="1.00" stroke-width="0.3"><path d="
M 164.00 69.00 
C 163.00 69.00 162.00 69.00 161.00 69.00
C 160.49 71.84 163.32 70.15 164.00 69.00 Z"/>
</g>
<g fill="None" fill-opacity="0.0" stroke="#6E4D43" stroke-opacity="1.00" stroke-width="0.3"><path d="
M 174.00 69.00 
C 172.00 69.00 170.00 69.00 168.00 69.00
C 169.05 70.07 174.49 71.71 174.00 69.00 Z"/>
</g>
<g fill="None" fill-opacity="0.0" stroke="#CBA490" stroke-opacity="1.00" stroke-width="0.3"><path d="
M 45.00 71.00 
C 45.00 77.67 45.00 84.33 45.00 91.00
C 45.00 91.50 45.00 92.50 45.00 93.00
C 47.33 86.33 45.34 77.50 46.00 70.00
C 46.00 70.00 45.25 69.75 45.00 70.00
C 45.00 70.00 45.00 70.50 45.00 71.00 Z"/>
</g>
<g fill="None" fill-opacity="0.0" stroke="#FFFFFF" stroke-opacity="1.00" stroke-width="0.3"><path d="
M 70.00 70.00 
C 67.80 70.44 64.45 69.04 63.00 71.00
C 67.12 75.01 71.71 79.38 70.00 70.00 Z"/>
</g>
<g fill="None" fill-opacity="0.0" stroke="#E78B6F" stroke-opacity="1.00" stroke-width="0.3"><path d="
M 72.00 80.00 
C 73.88 81.88 76.08 86.78 79.00 85.00
C 79.80 84.87 80.11 83.91 81.00 84.00
C 82.41 83.85 84.34 83.35 85.00 82.00
C 83.97 79.53 80.41 80.33 79.00 81.00
C 80.02 76.44 92.46 80.64 98.00 79.00 C 102.31 82.84 108.64 75.43 114.00 81.00
C 110.94 79.77 108.04 81.36 105.00 80.00
C 105.00 81.00 105.00 82.00 105.00 83.00
C 106.42 84.01 107.91 86.10 110.00 86.00
C 113.18 84.23 115.07 81.28 116.00 78.00
C 111.79 75.82 107.22 72.86 103.00 71.00
C 102.68 70.80 102.23 70.28 102.00 70.00
C 101.00 70.00 100.00 70.00 99.00 70.00
C 96.00 70.00 93.00 70.00 90.00 70.00
C 84.14 71.81 74.43 74.46 72.00 80.00 Z"/>
</g>
<g fill="None" fill-opacity="0.0" stroke="#FCFCFC" stroke-opacity="1.00" stroke-width="0.3"><path d="
M 118.00 78.00 
C 119.86 78.46 118.16 80.04 118.00 81.00
C 118.00 96.00 118.00 111.00 118.00 126.00
C 121.33 126.00 124.67 126.00 128.00 126.00
C 128.17 107.60 127.74 88.79 128.00 71.00
C 124.08 71.49 122.48 76.35 119.00 78.00
C 121.22 73.18 128.66 68.34 118.00 70.00
C 118.00 72.67 118.00 75.33 118.00 78.00 Z"/>
</g>
<g fill="None" fill-opacity="0.0" stroke="#FBFBFA" stroke-opacity="1.00" stroke-width="0.3"><path d="
M 182.00 74.00 
C 186.46 76.45 188.13 81.55 191.00 85.00
C 189.29 79.04 191.41 77.02 191.00 70.00
C 187.67 70.00 184.33 70.00 181.00 70.00
C 180.92 71.45 181.07 72.86 182.00 74.00 Z"/>
</g>
<g fill="None" fill-opacity="0.0" stroke="#E7682C" stroke-opacity="1.00" stroke-width="0.3"><path d="
M 40.00 87.00 
C 40.15 87.34 40.69 87.79 41.00 88.00
C 42.66 88.54 43.33 90.56 45.00 91.00
C 45.00 84.33 45.00 77.67 45.00 71.00
C 41.33 71.00 37.67 71.00 34.00 71.00
C 32.27 77.99 35.75 82.73 40.00 87.00 Z"/>
</g>
<g fill="None" fill-opacity="0.0" stroke="#F7F7F6" stroke-opacity="1.00" stroke-width="0.3"><path d="
M 61.00 95.00 
C 61.97 93.09 62.59 91.10 63.00 89.00
C 63.11 88.65 63.71 88.23 64.00 88.00
C 65.16 85.53 66.39 83.19 68.00 81.00
C 70.03 76.92 63.29 72.53 60.00 71.00
C 59.71 75.15 59.36 79.61 64.00 80.00
C 57.18 79.89 60.08 91.24 61.00 95.00 Z"/>
</g>
<g fill="None" fill-opacity="0.0" stroke="#966A5D" stroke-opacity="1.00" stroke-width="0.3"><path d="
M 110.00 86.00 
C 111.78 87.14 114.69 82.63 116.00 81.00
C 116.57 80.06 117.15 79.18 117.00 78.00
C 112.58 75.30 108.36 71.41 103.00 71.00
C 107.22 72.86 111.79 75.82 116.00 78.00
C 115.07 81.28 113.18 84.23 110.00 86.00 Z"/>
</g>
<g fill="None" fill-opacity="0.0" stroke="#866254" stroke-opacity="1.00" stroke-width="0.3"><path d="
M 156.00 72.00 
C 155.71 72.06 155.12 71.35 155.00 71.00
C 153.53 71.27 154.11 73.00 154.00 74.00
C 155.03 73.87 155.59 72.83 156.00 72.00 Z"/>
</g>
<g fill="None" fill-opacity="0.0" stroke="#996852" stroke-opacity="1.00" stroke-width="0.3"><path d="
M 179.00 87.00 
C 181.11 91.48 180.37 97.37 177.00 101.00
C 177.67 102.97 178.88 100.02 180.00 100.00
C 180.00 104.33 180.00 108.67 180.00 113.00
C 180.89 113.09 181.20 112.13 182.00 112.00
C 183.57 111.04 185.25 109.68 186.00 108.00
C 184.12 108.68 182.68 110.02 181.00 111.00
C 180.54 97.87 182.56 84.29 181.00 74.00
C 181.09 73.11 180.13 72.80 180.00 72.00
C 178.40 72.43 177.54 70.63 176.00 71.00
C 176.66 72.35 178.59 72.85 180.00 73.00
C 178.29 78.81 180.62 81.62 179.00 87.00 Z"/>
</g>
<g fill="None" fill-opacity="0.0" stroke="#9E654B" stroke-opacity="1.00" stroke-width="0.3"><path d="
M 145.00 84.00 
C 144.07 85.53 143.77 87.17 144.00 89.00
C 146.70 86.65 145.12 79.37 151.00 80.00
C 146.65 77.51 153.59 77.31 153.00 74.00
C 148.70 75.82 145.67 79.58 145.00 84.00 Z"/>
</g>
<g fill="None" fill-opacity="0.0" stroke="#E8A486" stroke-opacity="1.00" stroke-width="0.3"><path d="
M 186.00 108.00 
C 186.33 107.83 186.79 107.31 187.00 107.00
C 185.15 106.53 186.57 104.44 188.00 105.00
C 188.58 103.29 190.06 101.89 190.00 100.00
C 190.00 99.00 190.00 98.00 190.00 97.00
C 191.74 94.37 190.74 91.03 191.00 88.00
C 188.54 81.82 184.17 79.49 182.00 74.00
C 182.00 74.00 181.40 74.20 181.00 74.00
C 182.56 84.29 180.54 97.87 181.00 111.00
C 182.68 110.02 184.12 108.68 186.00 108.00 Z"/>
</g>
<g fill="None" fill-opacity="0.0" stroke="#927164" stroke-opacity="1.00" stroke-width="0.3"><path d="
M 191.00 88.00 
C 191.00 87.00 191.00 86.00 191.00 85.00
C 188.13 81.55 186.46 76.45 182.00 74.00
C 184.17 79.49 188.54 81.82 191.00 88.00 Z"/>
</g>
<g fill="None" fill-opacity="0.0" stroke="#AC745D" stroke-opacity="1.00" stroke-width="0.3"><path d="
M 154.00 92.00 
C 155.26 91.92 154.56 89.94 156.00 90.00
C 155.59 88.44 156.46 87.31 157.00 86.00
C 154.96 82.34 157.14 78.82 156.00 75.00
C 152.78 75.22 155.72 79.22 152.00 80.00
C 156.61 82.34 153.45 87.84 154.00 92.00 Z"/>
</g>
<g fill="None" fill-opacity="0.0" stroke="#6D5F59" stroke-opacity="1.00" stroke-width="0.3"><path d="
M 116.00 81.00 
C 116.16 80.77 117.00 81.00 117.00 81.00
C 117.00 81.00 117.67 81.24 118.00 81.00
C 118.16 80.04 119.86 78.46 118.00 78.00
C 118.00 78.00 117.14 77.77 117.00 78.00
C 117.15 79.18 116.57 80.06 116.00 81.00 Z"/>
</g>
<g fill="None" fill-opacity="0.0" stroke="#95513E" stroke-opacity="1.00" stroke-width="0.3"><path d="
M 69.00 81.00 
C 71.25 85.42 69.39 91.82 70.00 97.00
C 70.11 96.74 70.81 96.32 71.00 96.00
C 71.00 91.33 71.00 86.67 71.00 82.00
C 72.93 83.26 74.91 85.00 76.00 87.00
C 77.28 87.27 78.72 86.23 79.00 85.00
C 76.08 86.78 73.88 81.88 72.00 80.00
C 71.79 79.73 71.03 79.35 71.00 79.00
C 69.97 79.13 69.41 80.17 69.00 81.00 Z"/>
</g>
<g fill="None" fill-opacity="0.0" stroke="#AE6D5A" stroke-opacity="1.00" stroke-width="0.3"><path d="
M 85.00 82.00 
C 91.69 79.84 98.54 80.19 105.00 83.00
C 105.00 82.00 105.00 81.00 105.00 80.00
C 108.04 81.36 110.94 79.77 114.00 81.00
C 108.64 75.43 102.31 82.84 98.00 79.00 C 92.46 80.64 80.02 76.44 79.00 81.00
C 80.41 80.33 83.97 79.53 85.00 82.00 Z"/>
</g>
<g fill="None" fill-opacity="0.0" stroke="#A7735E" stroke-opacity="1.00" stroke-width="0.3"><path d="
M 159.00 83.00 
C 162.05 82.28 164.50 79.64 168.00 80.00
C 165.65 77.75 161.17 79.61 158.00 79.00
C 158.37 80.48 160.84 81.46 159.00 83.00 Z"/>
</g>
<g fill="None" fill-opacity="0.0" stroke="#A2715D" stroke-opacity="1.00" stroke-width="0.3"><path d="
M 169.00 80.00 
C 173.04 80.42 175.89 83.70 179.00 86.00
C 177.54 83.04 175.68 82.49 177.00 79.00
C 174.88 82.37 172.56 77.62 169.00 80.00 Z"/>
</g>
<g fill="None" fill-opacity="0.0" stroke="#FEFDFD" stroke-opacity="1.00" stroke-width="0.3"><path d="
M 85.00 82.00 
C 84.34 83.35 82.41 83.85 81.00 84.00
C 79.58 86.76 76.35 88.27 75.00 91.00
C 74.80 91.32 74.31 91.80 74.00 92.00
C 72.20 94.35 72.88 98.03 71.00 100.00
C 70.51 104.67 71.24 108.94 73.00 113.00
C 74.01 114.09 75.22 115.59 76.00 117.00
C 77.68 119.66 80.12 121.91 83.00 123.00
C 83.87 123.95 85.68 123.54 86.00 125.00
C 87.56 124.59 88.69 125.46 90.00 126.00
C 93.00 126.00 96.00 126.00 99.00 126.00
C 99.26 124.61 101.05 125.22 102.00 125.00
C 103.49 123.53 105.78 122.26 108.00 122.00
C 108.44 120.71 109.58 119.79 111.00 120.00
C 112.93 121.26 114.91 123.00 116.00 125.00
C 118.33 111.32 116.33 95.50 117.00 81.00
C 117.00 81.00 116.16 80.77 116.00 81.00
C 114.69 82.63 111.78 87.14 110.00 86.00
C 107.91 86.10 106.42 84.01 105.00 83.00
C 98.54 80.19 91.69 79.84 85.00 82.00 Z"/>
</g>
<g fill="None" fill-opacity="0.0" stroke="#FDFCFC" stroke-opacity="1.00" stroke-width="0.3"><path d="
M 159.00 83.00 
C 159.21 84.42 158.29 85.56 157.00 86.00
C 156.46 87.31 155.59 88.44 156.00 90.00
C 156.00 91.67 156.00 93.33 156.00 95.00
C 155.59 96.56 156.46 97.69 157.00 99.00
C 157.00 99.00 156.80 99.60 157.00 100.00
C 159.51 102.06 162.02 103.80 165.00 105.00
C 167.34 104.80 170.03 105.59 172.00 104.00
C 174.13 106.27 173.91 102.11 176.00 102.00
C 176.07 101.65 176.77 101.26 177.00 101.00
C 180.37 97.37 181.11 91.48 179.00 87.00
C 179.00 87.00 179.21 86.39 179.00 86.00
C 175.89 83.70 173.04 80.42 169.00 80.00
C 169.00 80.00 168.50 79.98 168.00 80.00
C 164.50 79.64 162.05 82.28 159.00 83.00 Z"/>
</g>
<g fill="None" fill-opacity="0.0" stroke="#BFAEA7" stroke-opacity="1.00" stroke-width="0.3"><path d="
M 45.00 137.00 
C 45.23 138.05 43.80 137.74 44.00 137.00
C 40.67 137.00 37.33 137.00 34.00 137.00
C 34.00 119.00 34.00 101.00 34.00 83.00
C 33.81 82.34 34.10 81.03 33.00 81.00
C 33.00 91.33 33.00 101.67 33.00 112.00 C 31.10 120.17 37.26 134.50 29.00 138.00
C 35.71 136.24 31.26 144.50 34.00 147.00
C 34.00 144.00 34.00 141.00 34.00 138.00
C 37.33 138.00 40.67 138.00 44.00 138.00
C 44.47 140.52 42.97 144.23 45.00 146.00
C 44.24 141.06 45.01 137.25 50.00 137.00
C 48.33 137.00 46.67 137.00 45.00 137.00 Z"/>
</g>
<g fill="None" fill-opacity="0.0" stroke="#A57665" stroke-opacity="1.00" stroke-width="0.3"><path d="
M 64.00 88.00 
C 65.97 86.17 68.42 83.75 69.00 81.00
C 69.00 81.00 68.22 80.75 68.00 81.00
C 66.39 83.19 65.16 85.53 64.00 88.00 Z"/>
</g>
<g fill="None" fill-opacity="0.0" stroke="#EE8B6E" stroke-opacity="1.00" stroke-width="0.3"><path d="
M 64.00 88.00 
C 63.71 88.23 63.11 88.65 63.00 89.00
C 60.08 98.28 61.11 112.28 65.00 121.00
C 65.17 121.33 65.72 121.77 66.00 122.00
C 67.66 122.54 68.33 124.56 70.00 125.00
C 70.00 116.33 70.00 107.67 70.00 99.00
C 70.00 98.50 70.00 97.50 70.00 97.00
C 69.39 91.82 71.25 85.42 69.00 81.00
C 68.42 83.75 65.97 86.17 64.00 88.00 Z"/>
</g>
<g fill="None" fill-opacity="0.0" stroke="#DF8E74" stroke-opacity="1.00" stroke-width="0.3"><path d="
M 71.00 96.00 
C 72.53 95.26 71.67 92.23 74.00 92.00
C 74.31 91.80 74.80 91.32 75.00 91.00
C 73.10 90.08 77.01 88.70 76.00 87.00
C 74.91 85.00 72.93 83.26 71.00 82.00
C 71.00 86.67 71.00 91.33 71.00 96.00 Z"/>
</g>
<g fill="None" fill-opacity="0.0" stroke="#EE8C6C" stroke-opacity="1.00" stroke-width="0.3"><path d="
M 44.00 137.00 
C 42.18 120.97 47.76 102.25 41.00 88.00
C 40.69 87.79 40.15 87.34 40.00 87.00
C 37.68 86.29 36.75 82.73 34.00 83.00
C 34.00 101.00 34.00 119.00 34.00 137.00
C 37.33 137.00 40.67 137.00 44.00 137.00 Z"/>
</g>
<g fill="None" fill-opacity="0.0" stroke="#9E7E72" stroke-opacity="1.00" stroke-width="0.3"><path d="
M 79.00 85.00 
C 78.72 86.23 77.28 87.27 76.00 87.00
C 77.01 88.70 73.10 90.08 75.00 91.00
C 76.35 88.27 79.58 86.76 81.00 84.00
C 80.11 83.91 79.80 84.87 79.00 85.00 Z"/>
</g>
<g fill="None" fill-opacity="0.0" stroke="#9A5F4C" stroke-opacity="1.00" stroke-width="0.3"><path d="
M 44.00 137.00 
C 43.80 137.74 45.23 138.05 45.00 137.00
C 45.00 122.33 45.00 107.67 45.00 93.00
C 45.00 92.50 45.00 91.50 45.00 91.00
C 43.33 90.56 42.66 88.54 41.00 88.00
C 47.76 102.25 42.18 120.97 44.00 137.00 Z"/>
</g>
<g fill="None" fill-opacity="0.0" stroke="#966559" stroke-opacity="1.00" stroke-width="0.3"><path d="
M 61.00 95.00 
C 59.51 99.99 59.48 106.03 61.00 111.00
C 61.60 114.56 63.37 117.77 65.00 121.00
C 61.11 112.28 60.08 98.28 63.00 89.00
C 62.59 91.10 61.97 93.09 61.00 95.00 Z"/>
</g>
<g fill="None" fill-opacity="0.0" stroke="#C3BAB2" stroke-opacity="1.00" stroke-width="0.3"><path d="
M 154.00 92.00 
C 154.00 92.00 153.94 92.51 154.00 93.00
C 155.26 93.08 154.56 95.06 156.00 95.00
C 156.00 93.33 156.00 91.67 156.00 90.00
C 154.56 89.94 155.26 91.92 154.00 92.00 Z"/>
</g>
<g fill="None" fill-opacity="0.0" stroke="#9C7B70" stroke-opacity="1.00" stroke-width="0.3"><path d="
M 71.00 96.00 
C 70.81 96.32 70.11 96.74 70.00 97.00
C 70.00 97.50 70.00 98.50 70.00 99.00
C 70.11 99.26 70.95 99.65 71.00 100.00
C 72.88 98.03 72.20 94.35 74.00 92.00
C 71.67 92.23 72.53 95.26 71.00 96.00 Z"/>
</g>
<g fill="None" fill-opacity="0.0" stroke="#98705F" stroke-opacity="1.00" stroke-width="0.3"><path d="
M 157.00 99.00 
C 156.46 97.69 155.59 96.56 156.00 95.00
C 154.56 95.06 155.26 93.08 154.00 93.00
C 153.70 95.70 155.15 97.63 154.00 100.00
C 155.18 100.15 156.06 99.57 157.00 99.00 Z"/>
</g>
<g fill="None" fill-opacity="0.0" stroke="#A16A51" stroke-opacity="1.00" stroke-width="0.3"><path d="
M 146.00 105.00 
C 148.13 108.20 152.93 110.95 154.00 115.00
C 154.25 114.75 155.00 115.00 155.00 115.00
C 155.66 113.24 158.47 114.89 159.00 116.00
C 159.74 115.82 160.91 116.05 161.00 117.00
C 163.00 117.00 165.00 117.00 167.00 117.00
C 163.34 115.51 158.28 115.41 155.00 112.00
C 156.28 108.41 154.19 105.64 159.00 105.00
C 154.45 101.33 153.18 105.36 147.00 105.00
C 147.07 102.06 145.25 99.22 144.00 97.00
C 143.76 99.92 144.86 102.48 146.00 105.00
M 154.00 111.00 
C 152.07 109.74 150.09 108.00 149.00 106.00
C 152.89 104.90 154.97 107.15 154.00 111.00 Z"/>
</g>
<g fill="None" fill-opacity="0.0" stroke="#6C4A3E" stroke-opacity="1.00" stroke-width="0.3"><path d="
M 190.00 100.00 
C 191.42 99.81 191.28 97.22 190.00 97.00
C 190.00 98.00 190.00 99.00 190.00 100.00 Z"/>
</g>
<g fill="None" fill-opacity="0.0" stroke="#935948" stroke-opacity="1.00" stroke-width="0.3"><path d="
M 66.00 122.00 
C 66.13 122.80 67.09 123.11 67.00 124.00
C 68.03 124.13 68.59 125.17 69.00 126.00
C 70.80 125.64 72.42 126.20 71.00 128.00
C 71.83 128.41 72.87 128.97 73.00 130.00
C 75.19 131.69 77.54 132.82 80.00 134.00
C 78.08 131.26 74.59 130.09 72.00 128.00
C 78.21 125.76 83.49 128.60 90.00 127.00
C 90.05 126.99 90.00 126.00 90.00 126.00
C 88.69 125.46 87.56 124.59 86.00 125.00
C 82.58 127.21 77.18 125.42 73.00 126.00
C 73.81 123.96 76.27 123.03 77.00 121.00
C 79.48 120.11 81.11 125.92 83.00 123.00
C 80.12 121.91 77.68 119.66 76.00 117.00
C 74.11 117.68 77.21 118.86 77.00 120.00
C 74.59 121.11 73.38 123.96 71.00 125.00
C 72.08 121.72 68.68 112.02 73.00 113.00
C 71.24 108.94 70.51 104.67 71.00 100.00
C 70.95 99.65 70.11 99.26 70.00 99.00
C 70.00 107.67 70.00 116.33 70.00 125.00
C 68.33 124.56 67.66 122.54 66.00 122.00 Z"/>
</g>
<g fill="None" fill-opacity="0.0" stroke="#9D7262" stroke-opacity="1.00" stroke-width="0.3"><path d="
M 165.00 105.00 
C 162.02 103.80 159.51 102.06 157.00 100.00
C 157.43 102.26 162.21 103.54 160.00 106.00
C 161.86 104.85 163.82 106.51 165.00 105.00 Z"/>
</g>
<g fill="None" fill-opacity="0.0" stroke="#9A6E5D" stroke-opacity="1.00" stroke-width="0.3"><path d="
M 172.00 104.00 
C 171.57 106.59 174.39 105.99 176.00 106.00
C 176.29 104.40 174.46 103.31 176.00 102.00
C 173.91 102.11 174.13 106.27 172.00 104.00 Z"/>
</g>
<g fill="None" fill-opacity="0.0" stroke="#ECA587" stroke-opacity="1.00" stroke-width="0.3"><path d="
M 145.00 116.00 
C 147.55 115.36 147.10 118.98 145.00 117.00
C 145.09 117.89 144.13 118.20 144.00 119.00
C 143.96 122.15 148.02 123.30 149.00 126.00
C 150.20 126.67 151.58 127.64 152.00 129.00
C 154.89 131.51 152.99 126.47 155.00 126.00
C 155.00 125.50 155.00 125.00 155.00 125.00
C 153.66 124.53 153.43 121.42 155.00 121.00
C 155.00 120.50 155.00 120.00 155.00 120.00
C 153.40 119.47 154.28 117.25 154.00 116.00
C 154.06 115.51 154.00 115.00 154.00 115.00
C 152.93 110.95 148.13 108.20 146.00 105.00
C 143.20 107.28 143.28 113.25 145.00 116.00
M 150.00 116.00 
C 150.69 119.70 146.16 115.41 150.00 116.00
M 153.00 116.00 
C 153.69 119.70 149.16 115.41 153.00 116.00 Z"/>
</g>
<g fill="None" fill-opacity="0.0" stroke="#7D5345" stroke-opacity="1.00" stroke-width="0.3"><path d="
M 187.00 107.00 
C 187.21 106.69 187.88 106.26 188.00 106.00
C 188.00 106.00 187.80 105.40 188.00 105.00
C 186.57 104.44 185.15 106.53 187.00 107.00 Z"/>
</g>
<g fill="None" fill-opacity="0.0" stroke="#EBA282" stroke-opacity="1.00" stroke-width="0.3"><path d="
M 154.00 111.00 
C 154.97 107.15 152.89 104.90 149.00 106.00
C 150.09 108.00 152.07 109.74 154.00 111.00 Z"/>
</g>
<g fill="None" fill-opacity="0.0" stroke="#FDFDFC" stroke-opacity="1.00" stroke-width="0.3"><path d="
M 187.00 107.00 
C 186.79 107.31 186.33 107.83 186.00 108.00
C 185.25 109.68 183.57 111.04 182.00 112.00
C 181.46 113.31 180.59 114.44 181.00 116.00
C 184.33 116.00 187.67 116.00 191.00 116.00
C 191.00 112.67 191.00 109.33 191.00 106.00
C 190.00 106.00 189.00 106.00 188.00 106.00
C 187.88 106.26 187.21 106.69 187.00 107.00 Z"/>
</g>
<g fill="None" fill-opacity="0.0" stroke="#FBFAF9" stroke-opacity="1.00" stroke-width="0.3"><path d="
M 67.00 124.00 
C 67.09 123.11 66.13 122.80 66.00 122.00
C 65.72 121.77 65.17 121.33 65.00 121.00
C 63.37 117.77 61.60 114.56 61.00 111.00
C 58.69 115.01 60.65 121.17 60.00 126.00
C 61.96 125.42 69.22 127.54 67.00 124.00 Z"/>
</g>
<g fill="None" fill-opacity="0.0" stroke="#DC8D77" stroke-opacity="1.00" stroke-width="0.3"><path d="
M 76.00 117.00 
C 75.22 115.59 74.01 114.09 73.00 113.00
C 68.68 112.02 72.08 121.72 71.00 125.00
C 73.38 123.96 74.59 121.11 77.00 120.00
C 77.21 118.86 74.11 117.68 76.00 117.00 Z"/>
</g>
<g fill="None" fill-opacity="0.0" stroke="#F5EFEC" stroke-opacity="1.00" stroke-width="0.3"><path d="
M 155.00 115.00 
C 155.53 116.60 157.75 115.72 159.00 116.00
C 158.47 114.89 155.66 113.24 155.00 115.00 Z"/>
</g>
<g fill="None" fill-opacity="0.0" stroke="#916D5E" stroke-opacity="1.00" stroke-width="0.3"><path d="
M 168.00 117.00 
C 170.00 117.00 172.00 117.00 174.00 117.00
C 173.94 115.56 175.92 116.26 176.00 115.00
C 174.39 114.34 170.02 116.26 168.00 117.00 Z"/>
</g>
<g fill="None" fill-opacity="0.0" stroke="#C4B8B6" stroke-opacity="1.00" stroke-width="0.3"><path d="
M 154.00 116.00 
C 154.12 116.26 154.89 116.65 155.00 117.00
C 157.00 117.00 159.00 117.00 161.00 117.00
C 160.91 116.05 159.74 115.82 159.00 116.00
C 157.75 115.72 155.53 116.60 155.00 115.00
C 155.00 115.00 154.25 114.75 154.00 115.00
C 154.00 115.00 154.06 115.51 154.00 116.00 Z"/>
</g>
<g fill="None" fill-opacity="0.0" stroke="#9B6345" stroke-opacity="1.00" stroke-width="0.3"><path d="
M 145.00 117.00 
C 147.10 118.98 147.55 115.36 145.00 116.00
C 145.00 116.00 145.09 116.52 145.00 117.00 Z"/>
</g>
<g fill="None" fill-opacity="0.0" stroke="#A86C4A" stroke-opacity="1.00" stroke-width="0.3"><path d="
M 150.00 116.00 
C 146.16 115.41 150.69 119.70 150.00 116.00 Z"/>
</g>
<g fill="None" fill-opacity="0.0" stroke="#A66A54" stroke-opacity="1.00" stroke-width="0.3"><path d="
M 153.00 116.00 
C 149.16 115.41 153.69 119.70 153.00 116.00 Z"/>
</g>
<g fill="None" fill-opacity="0.0" stroke="#917060" stroke-opacity="1.00" stroke-width="0.3"><path d="
M 155.00 120.00 
C 155.00 119.00 155.00 118.00 155.00 117.00
C 154.89 116.65 154.12 116.26 154.00 116.00
C 154.28 117.25 153.40 119.47 155.00 120.00 Z"/>
</g>
<g fill="None" fill-opacity="0.0" stroke="#9B9B9C" stroke-opacity="1.00" stroke-width="0.3"><path d="
M 180.00 117.00 
C 180.00 123.67 180.00 130.33 180.00 137.00
C 172.00 137.00 164.00 137.00 156.00 137.00
C 156.19 137.41 156.00 138.00 156.00 138.00
C 164.00 138.00 172.00 138.00 180.00 138.00
C 180.50 140.85 178.92 144.90 181.00 147.00
C 181.00 144.00 181.00 141.00 181.00 138.00
C 184.33 138.00 187.67 138.00 191.00 138.00
C 191.50 140.85 189.92 144.90 192.00 147.00
C 191.96 142.73 190.88 137.36 196.00 137.00
C 194.67 137.00 193.33 137.00 192.00 137.00
C 192.00 137.00 191.50 137.00 191.00 137.00
C 187.67 137.00 184.33 137.00 181.00 137.00
C 181.00 130.33 181.00 123.67 181.00 117.00
C 181.20 116.26 179.77 115.95 180.00 117.00 Z"/>
</g>
<g fill="None" fill-opacity="0.0" stroke="#FEFDFD" stroke-opacity="1.00" stroke-width="0.3"><path d="
M 155.00 120.00 
C 155.00 120.00 155.00 120.50 155.00 121.00
C 155.00 122.33 155.00 123.67 155.00 125.00
C 155.00 125.00 155.00 125.50 155.00 126.00
C 155.00 129.33 155.00 132.67 155.00 136.00
C 155.05 136.35 155.88 136.74 156.00 137.00
C 164.00 137.00 172.00 137.00 180.00 137.00
C 180.00 130.33 180.00 123.67 180.00 117.00
C 178.00 117.00 176.00 117.00 174.00 117.00
C 172.00 117.00 170.00 117.00 168.00 117.00
C 168.00 117.00 167.50 117.00 167.00 117.00
C 165.00 117.00 163.00 117.00 161.00 117.00
C 159.00 117.00 157.00 117.00 155.00 117.00
C 155.00 118.00 155.00 119.00 155.00 120.00 Z"/>
</g>
<g fill="None" fill-opacity="0.0" stroke="#FDFDFD" stroke-opacity="1.00" stroke-width="0.3"><path d="
M 191.00 137.00 
C 191.00 130.33 191.00 123.67 191.00 117.00
C 187.67 117.00 184.33 117.00 181.00 117.00
C 181.00 123.67 181.00 130.33 181.00 137.00
C 184.33 137.00 187.67 137.00 191.00 137.00 Z"/>
</g>
<g fill="None" fill-opacity="0.0" stroke="#A96241" stroke-opacity="1.00" stroke-width="0.3"><path d="
M 143.00 137.00 
C 143.05 137.35 143.95 137.77 144.00 138.00
C 145.89 139.15 146.13 135.02 147.00 137.00
C 149.67 135.25 152.31 137.43 155.00 136.00
C 155.00 132.67 155.00 129.33 155.00 126.00
C 152.99 126.47 154.89 131.51 152.00 129.00
C 152.91 130.94 154.33 132.68 154.00 135.00
C 150.67 135.00 147.33 135.00 144.00 135.00
C 144.00 131.00 144.00 127.00 144.00 123.00
C 146.31 122.55 147.07 125.53 149.00 126.00
C 148.02 123.30 143.96 122.15 144.00 119.00
C 144.00 119.00 143.20 119.24 143.00 119.00
C 143.00 125.00 143.00 131.00 143.00 137.00 Z"/>
</g>
<g fill="None" fill-opacity="0.0" stroke="#815F4E" stroke-opacity="1.00" stroke-width="0.3"><path d="
M 108.00 122.00 
C 108.87 121.05 110.68 121.46 111.00 120.00
C 109.58 119.79 108.44 120.71 108.00 122.00 Z"/>
</g>
<g fill="None" fill-opacity="0.0" stroke="#D48A78" stroke-opacity="1.00" stroke-width="0.3"><path d="
M 108.00 122.00 
C 105.78 122.26 103.49 123.53 102.00 125.00
C 105.75 127.22 111.49 125.41 116.00 126.00
C 116.00 126.00 116.20 125.40 116.00 125.00
C 114.91 123.00 112.93 121.26 111.00 120.00
C 110.68 121.46 108.87 121.05 108.00 122.00 Z"/>
</g>
<g fill="None" fill-opacity="0.0" stroke="#E48D78" stroke-opacity="1.00" stroke-width="0.3"><path d="
M 86.00 125.00 
C 85.68 123.54 83.87 123.95 83.00 123.00
C 81.11 125.92 79.48 120.11 77.00 121.00
C 76.27 123.03 73.81 123.96 73.00 126.00
C 77.18 125.42 82.58 127.21 86.00 125.00 Z"/>
</g>
<g fill="None" fill-opacity="0.0" stroke="#9F7F6A" stroke-opacity="1.00" stroke-width="0.3"><path d="
M 155.00 125.00 
C 155.00 123.67 155.00 122.33 155.00 121.00
C 153.43 121.42 153.66 124.53 155.00 125.00 Z"/>
</g>
<g fill="None" fill-opacity="0.0" stroke="#EA6729" stroke-opacity="1.00" stroke-width="0.3"><path d="
M 152.00 129.00 
C 151.58 127.64 150.20 126.67 149.00 126.00
C 147.07 125.53 146.31 122.55 144.00 123.00
C 144.00 127.00 144.00 131.00 144.00 135.00
C 147.33 135.00 150.67 135.00 154.00 135.00
C 154.33 132.68 152.91 130.94 152.00 129.00 Z"/>
</g>
<g fill="None" fill-opacity="0.0" stroke="#985C49" stroke-opacity="1.00" stroke-width="0.3"><path d="
M 99.00 126.00 
C 98.92 126.49 99.00 127.00 99.00 127.00
C 104.96 127.88 108.73 127.57 115.00 127.00
C 114.16 131.62 107.68 131.96 105.00 135.00
C 108.63 134.21 111.90 132.04 115.00 130.00
C 115.57 129.06 116.15 128.18 116.00 127.00
C 116.00 126.50 116.00 126.00 116.00 126.00
C 111.49 125.41 105.75 127.22 102.00 125.00
C 101.05 125.22 99.26 124.61 99.00 126.00 Z"/>
</g>
<g fill="None" fill-opacity="0.0" stroke="#544D42" stroke-opacity="1.00" stroke-width="0.3"><path d="
M 69.00 127.00 
C 69.03 127.35 69.65 127.97 70.00 128.00
C 70.50 128.05 71.00 128.00 71.00 128.00
C 72.42 126.20 70.80 125.64 69.00 126.00
C 69.00 126.00 68.95 126.50 69.00 127.00 Z"/>
</g>
<g fill="None" fill-opacity="0.0" stroke="#543224" stroke-opacity="1.00" stroke-width="0.3"><path d="
M 90.00 127.00 
C 93.00 127.00 96.00 127.00 99.00 127.00
C 99.00 127.00 98.92 126.49 99.00 126.00
C 96.00 126.00 93.00 126.00 90.00 126.00
C 90.00 126.00 90.05 126.99 90.00 127.00 Z"/>
</g>
<g fill="None" fill-opacity="0.0" stroke="#4D3D39" stroke-opacity="1.00" stroke-width="0.3"><path d="
M 116.00 127.00 
C 116.80 127.13 117.11 128.09 118.00 128.00
C 118.05 127.77 118.77 127.05 119.00 127.00
C 117.86 126.97 117.28 125.47 116.00 126.00
C 116.00 126.00 116.00 126.50 116.00 127.00 Z"/>
</g>
<g fill="None" fill-opacity="0.0" stroke="#FDFDFD" stroke-opacity="1.00" stroke-width="0.3"><path d="
M 62.00 137.00 
C 64.67 137.00 67.33 137.00 70.00 137.00
C 70.00 134.00 70.00 131.00 70.00 128.00
C 69.65 127.97 69.03 127.35 69.00 127.00
C 66.00 127.00 63.00 127.00 60.00 127.00
C 60.00 130.00 60.00 133.00 60.00 136.00
C 63.42 134.00 65.55 130.05 69.00 128.00
C 68.51 131.92 63.65 133.52 62.00 137.00 Z"/>
</g>
<g fill="None" fill-opacity="0.0" stroke="#E88B6F" stroke-opacity="1.00" stroke-width="0.3"><path d="
M 80.00 134.00 
C 82.17 135.22 84.34 136.42 87.00 136.00
C 87.50 135.98 88.50 136.00 89.00 136.00
C 92.53 136.50 97.53 135.28 100.00 136.00
C 100.50 135.95 101.00 136.00 101.00 136.00
C 102.28 135.72 104.50 136.76 105.00 135.00
C 107.68 131.96 114.16 131.62 115.00 127.00
C 108.73 127.57 104.96 127.88 99.00 127.00
C 96.00 127.00 93.00 127.00 90.00 127.00
C 83.49 128.60 78.21 125.76 72.00 128.00
C 74.59 130.09 78.08 131.26 80.00 134.00 Z"/>
</g>
<g fill="None" fill-opacity="0.0" stroke="#A4A4A1" stroke-opacity="1.00" stroke-width="0.3"><path d="
M 115.00 130.00 
C 118.54 127.78 116.42 135.04 117.00 137.00
C 111.84 136.35 105.34 138.31 101.00 136.00
C 101.00 136.00 100.50 135.95 100.00 136.00
C 98.90 136.03 99.19 137.34 99.00 138.00
C 105.00 138.00 111.00 138.00 117.00 138.00
C 117.50 140.85 115.92 144.90 118.00 147.00
C 118.00 144.00 118.00 141.00 118.00 138.00
C 121.00 138.00 124.00 138.00 127.00 138.00
C 126.81 137.59 127.00 137.00 127.00 137.00
C 124.00 137.00 121.00 137.00 118.00 137.00
C 118.00 134.00 118.00 131.00 118.00 128.00
C 117.11 128.09 116.80 127.13 116.00 127.00
C 116.15 128.18 115.57 129.06 115.00 130.00 Z"/>
</g>
<g fill="None" fill-opacity="0.0" stroke="#FDFDFD" stroke-opacity="1.00" stroke-width="0.3"><path d="
M 118.00 128.00 
C 118.00 131.00 118.00 134.00 118.00 137.00
C 121.00 137.00 124.00 137.00 127.00 137.00
C 127.03 136.65 127.95 136.23 128.00 136.00
C 128.00 133.00 128.00 130.00 128.00 127.00
C 125.00 127.00 122.00 127.00 119.00 127.00
C 118.77 127.05 118.05 127.77 118.00 128.00
M 127.00 136.00 
C 123.66 135.00 119.94 131.37 119.00 128.00
C 121.96 130.21 124.90 133.02 127.00 136.00 Z"/>
</g>
<g fill="None" fill-opacity="0.0" stroke="#9C9B9B" stroke-opacity="1.00" stroke-width="0.3"><path d="
M 62.00 137.00 
C 60.89 136.32 59.40 138.62 59.00 137.00
C 57.75 137.28 55.53 136.40 55.00 138.00
C 60.78 136.76 57.77 143.83 60.00 146.00
C 57.64 138.03 63.48 136.88 70.00 138.00
C 70.50 140.85 68.92 144.90 71.00 147.00
C 71.00 144.00 71.00 141.00 71.00 138.00
C 77.33 138.00 83.67 138.00 90.00 138.00
C 89.87 137.20 88.91 136.89 89.00 136.00
C 88.50 136.00 87.50 135.98 87.00 136.00
C 82.58 138.25 76.18 136.39 71.00 137.00
C 71.67 134.96 69.29 127.96 73.00 130.00
C 72.87 128.97 71.83 128.41 71.00 128.00
C 71.00 128.00 70.50 128.05 70.00 128.00
C 70.00 131.00 70.00 134.00 70.00 137.00
C 67.33 137.00 64.67 137.00 62.00 137.00 Z"/>
</g>
<g fill="None" fill-opacity="0.0" stroke="#C5C6C5" stroke-opacity="1.00" stroke-width="0.3"><path d="
M 127.00 136.00 
C 124.90 133.02 121.96 130.21 119.00 128.00
C 119.94 131.37 123.66 135.00 127.00 136.00 Z"/>
</g>
<g fill="None" fill-opacity="0.0" stroke="#FCFAFA" stroke-opacity="1.00" stroke-width="0.3"><path d="
M 87.00 136.00 
C 84.34 136.42 82.17 135.22 80.00 134.00
C 77.54 132.82 75.19 131.69 73.00 130.00
C 69.29 127.96 71.67 134.96 71.00 137.00
C 76.18 136.39 82.58 138.25 87.00 136.00 Z"/>
</g>
<g fill="None" fill-opacity="0.0" stroke="#FCFBFB" stroke-opacity="1.00" stroke-width="0.3"><path d="
M 115.00 130.00 
C 111.90 132.04 108.63 134.21 105.00 135.00
C 104.50 136.76 102.28 135.72 101.00 136.00
C 105.34 138.31 111.84 136.35 117.00 137.00
C 116.42 135.04 118.54 127.78 115.00 130.00 Z"/>
</g>
<g fill="None" fill-opacity="0.0" stroke="#907063" stroke-opacity="1.00" stroke-width="0.3"><path d="
M 89.00 136.00 
C 88.91 136.89 89.87 137.20 90.00 138.00
C 93.00 138.00 96.00 138.00 99.00 138.00
C 99.19 137.34 98.90 136.03 100.00 136.00
C 97.53 135.28 92.53 136.50 89.00 136.00 Z"/>
</g>
<g fill="None" fill-opacity="0.0" stroke="#686869" stroke-opacity="1.00" stroke-width="0.3"><path d="
M 127.00 137.00 
C 127.00 137.00 126.81 137.59 127.00 138.00
C 127.12 138.26 127.95 138.65 128.00 139.00
C 128.83 138.59 129.87 138.03 130.00 137.00
C 130.00 137.00 129.50 137.05 129.00 137.00
C 128.65 136.97 128.05 136.35 128.00 136.00
C 127.95 136.23 127.03 136.65 127.00 137.00 Z"/>
</g>
<g fill="None" fill-opacity="0.0" stroke="#AD8A7C" stroke-opacity="1.00" stroke-width="0.3"><path d="
M 147.00 137.00 
C 149.02 139.22 153.16 137.41 156.00 138.00
C 156.00 138.00 156.19 137.41 156.00 137.00
C 155.88 136.74 155.05 136.35 155.00 136.00
C 152.31 137.43 149.67 135.25 147.00 137.00 Z"/>
</g>
<g fill="None" fill-opacity="0.0" stroke="#BABBBA" stroke-opacity="1.00" stroke-width="0.3"><path d="
M 128.00 139.00 
C 128.47 141.52 126.97 145.23 129.00 147.00
C 129.26 144.31 127.73 138.53 132.00 141.00
C 129.82 138.59 130.64 138.18 133.00 137.00
C 132.00 137.00 131.00 137.00 130.00 137.00
C 129.87 138.03 128.83 138.59 128.00 139.00 Z"/>
</g>
<g fill="None" fill-opacity="0.0" stroke="#B0AEAE" stroke-opacity="1.00" stroke-width="0.3"><path d="
M 144.00 138.00 
C 143.95 137.77 143.05 137.35 143.00 137.00
C 141.75 137.28 139.53 136.40 139.00 138.00
C 145.30 136.21 141.51 143.65 144.00 146.00
C 144.00 143.33 144.00 140.67 144.00 138.00 Z"/>
</g>
<g fill="None" fill-opacity="0.0" stroke="#D2A491" stroke-opacity="1.00" stroke-width="0.3"><path d="
M 220.00 152.00 
C 148.33 152.00 76.67 152.00 5.00 152.00
C 5.00 161.67 5.00 171.33 5.00 181.00
C 11.51 180.37 19.25 182.28 25.00 180.00
C 18.67 180.00 12.33 180.00 6.00 180.00
C 6.00 171.00 6.00 162.00 6.00 153.00
C 77.00 153.00 148.00 153.00 219.00 153.00
C 219.00 162.00 219.00 171.00 219.00 180.00
C 212.16 180.63 204.09 178.71 198.00 181.00
C 205.33 181.00 212.67 181.00 220.00 181.00
C 220.00 171.33 220.00 161.67 220.00 152.00 Z"/>
</g>
<g fill="None" fill-opacity="0.0" stroke="#EAB199" stroke-opacity="1.00" stroke-width="0.3"><path d="
M 12.00 173.00 
C 12.00 168.00 12.00 163.00 12.00 158.00
C 10.30 161.86 10.40 169.07 12.00 173.00 Z"/>
</g>
<g fill="None" fill-opacity="0.0" stroke="#E36426" stroke-opacity="1.00" stroke-width="0.3"><path d="
M 12.00 173.00 
C 13.33 173.00 14.67 173.00 16.00 173.00
C 16.00 168.00 16.00 163.00 16.00 158.00
C 14.67 158.00 13.33 158.00 12.00 158.00
C 12.00 163.00 12.00 168.00 12.00 173.00 Z"/>
</g>
<g fill="None" fill-opacity="0.0" stroke="#E77542" stroke-opacity="1.00" stroke-width="0.3"><path d="
M 33.00 168.00 
C 29.61 164.13 27.64 156.51 21.00 158.00
C 21.00 163.00 21.00 168.00 21.00 173.00
C 27.22 175.02 25.21 168.93 27.00 166.00
C 29.82 173.99 37.95 172.79 40.00 165.00
C 42.21 167.86 39.14 175.32 46.00 173.00
C 46.00 168.00 46.00 163.00 46.00 158.00
C 38.61 156.14 37.83 165.17 33.00 168.00 Z"/>
</g>
<g fill="None" fill-opacity="0.0" stroke="#E4713C" stroke-opacity="1.00" stroke-width="0.3"><path d="
M 70.00 158.00 
C 63.87 159.34 50.46 153.97 51.00 164.00 C 47.93 175.01 60.03 173.25 67.00 173.00 C 74.93 174.29 74.77 160.96 70.00 158.00
M 68.00 162.00 
C 71.21 171.04 61.83 171.39 55.78 169.22 C 51.25 160.54 62.57 161.67 68.00 162.00 Z"/>
</g>
<g fill="None" fill-opacity="0.0" stroke="#E36B32" stroke-opacity="1.00" stroke-width="0.3"><path d="
M 78.00 173.00 
C 84.19 172.07 103.15 176.79 97.35 165.69 C 100.97 154.22 84.78 158.87 78.00 158.00
C 78.00 163.00 78.00 168.00 78.00 173.00
M 93.00 161.00 
C 93.46 166.51 85.40 163.01 82.00 164.00
C 82.45 158.81 89.54 161.80 93.00 161.00
M 94.00 167.00 
C 94.26 172.22 85.22 170.00 82.00 169.00
C 84.32 165.06 90.18 167.84 94.00 167.00 Z"/>
</g>
<g fill="None" fill-opacity="0.0" stroke="#E0713D" stroke-opacity="1.00" stroke-width="0.3"><path d="
M 109.00 158.00 
C 101.23 155.27 101.33 175.75 109.00 173.00
C 109.00 168.00 109.00 163.00 109.00 158.00 Z"/>
</g>
<g fill="None" fill-opacity="0.0" stroke="#E1682D" stroke-opacity="1.00" stroke-width="0.3"><path d="
M 118.00 158.00 
C 110.42 157.31 115.45 168.29 114.00 173.00
C 119.40 171.48 130.60 176.32 132.00 170.00
C 122.47 172.01 114.71 169.01 118.00 158.00 Z"/>
</g>
<g fill="None" fill-opacity="0.0" stroke="#E26F3A" stroke-opacity="1.00" stroke-width="0.3"><path d="
M 143.00 162.00 
C 145.28 160.46 150.79 160.28 153.00 162.00
C 154.82 163.22 156.53 164.68 159.00 164.00
C 159.37 154.62 135.95 154.68 137.00 165.00 C 134.10 176.50 157.85 176.26 159.00 168.00
C 153.49 169.78 137.56 173.42 143.00 162.00 Z"/>
</g>
<g fill="None" fill-opacity="0.0" stroke="#E46C34" stroke-opacity="1.00" stroke-width="0.3"><path d="
M 187.00 173.00 
C 183.03 168.25 181.24 159.40 175.03 158.03 C 169.67 160.61 167.21 167.91 164.00 173.00
C 171.60 169.33 179.30 169.76 187.00 173.00
M 177.00 165.00 
C 180.78 167.73 170.19 167.75 174.00 165.00
C 174.34 162.94 176.68 162.97 177.00 165.00 Z"/>
</g>
<g fill="None" fill-opacity="0.0" stroke="#E56D36" stroke-opacity="1.00" stroke-width="0.3"><path d="
M 213.00 170.00 
C 213.00 167.00 213.00 164.00 213.00 161.00
C 208.51 154.82 198.71 159.42 192.00 158.00
C 192.00 163.00 192.00 168.00 192.00 173.00
C 198.54 171.62 209.36 176.11 213.00 170.00
M 209.00 162.00 
C 213.77 173.29 191.25 173.32 196.00 162.00
C 200.33 162.00 204.67 162.00 209.00 162.00 Z"/>
</g>
<g fill="None" fill-opacity="0.0" stroke="#FFECE2" stroke-opacity="1.00" stroke-width="0.3"><path d="
M 93.00 161.00 
C 89.54 161.80 82.45 158.81 82.00 164.00
C 85.40 163.01 93.46 166.51 93.00 161.00 Z"/>
</g>
<g fill="None" fill-opacity="0.0" stroke="#F7BA9C" stroke-opacity="1.00" stroke-width="0.3"><path d="
M 143.00 162.00 
C 146.33 162.00 149.67 162.00 153.00 162.00
C 150.79 160.28 145.28 160.46 143.00 162.00 Z"/>
</g>
<g fill="None" fill-opacity="0.0" stroke="#F5B096" stroke-opacity="1.00" stroke-width="0.3"><path d="
M 213.00 170.00 
C 214.72 168.11 214.52 162.96 213.00 161.00
C 213.00 164.00 213.00 167.00 213.00 170.00 Z"/>
</g>
<g fill="None" fill-opacity="0.0" stroke="#FFF9F7" stroke-opacity="1.00" stroke-width="0.3"><path d="
M 68.00 162.00 
C 62.57 161.67 51.25 160.54 55.78 169.22 C 61.83 171.39 71.21 171.04 68.00 162.00 Z"/>
</g>
<g fill="None" fill-opacity="0.0" stroke="#FEF9F7" stroke-opacity="1.00" stroke-width="0.3"><path d="
M 209.00 162.00 
C 204.67 162.00 200.33 162.00 196.00 162.00
C 191.25 173.32 213.77 173.29 209.00 162.00 Z"/>
</g>
<g fill="None" fill-opacity="0.0" stroke="#FFFCFA" stroke-opacity="1.00" stroke-width="0.3"><path d="
M 174.00 165.00 
C 174.22 166.28 176.81 166.42 177.00 165.00
C 176.68 162.97 174.34 162.94 174.00 165.00 Z"/>
</g>
<g fill="None" fill-opacity="0.0" stroke="#FFD7C0" stroke-opacity="1.00" stroke-width="0.3"><path d="
M 177.00 165.00 
C 176.81 166.42 174.22 166.28 174.00 165.00
C 170.19 167.75 180.78 167.73 177.00 165.00 Z"/>
</g>
<g fill="None" fill-opacity="0.0" stroke="#FFF2EB" stroke-opacity="1.00" stroke-width="0.3"><path d="
M 94.00 167.00 
C 90.18 167.84 84.32 165.06 82.00 169.00
C 85.22 170.00 94.26 172.22 94.00 167.00 Z"/>
</g>
<g fill="None" fill-opacity="0.0" stroke="#444545" stroke-opacity="1.00" stroke-width="0.3"><path d="
M 31.00 185.00 
C 34.03 181.34 45.91 185.64 43.07 178.93 C 37.79 176.98 27.98 176.41 31.00 185.00
M 42.00 181.00 
C 39.87 182.23 35.70 182.88 34.00 181.00
C 35.64 179.50 40.43 179.28 42.00 181.00 Z"/>
</g>
<g fill="None" fill-opacity="0.0" stroke="#4E4E4E" stroke-opacity="1.00" stroke-width="0.3"><path d="
M 68.00 185.00 
C 67.76 184.81 68.00 184.00 68.00 184.00
C 73.55 176.33 52.28 174.30 57.00 185.00
C 60.15 182.03 64.17 183.33 68.00 185.00
M 67.00 180.00 
C 65.23 182.03 61.52 180.53 59.00 181.00
C 60.77 178.97 64.48 180.47 67.00 180.00 Z"/>
</g>
<g fill="None" fill-opacity="0.0" stroke="#424242" stroke-opacity="1.00" stroke-width="0.3"><path d="
M 94.00 178.00 
C 89.23 176.53 77.46 178.91 84.00 185.00 C 89.27 186.30 100.86 184.61 94.00 178.00
M 85.00 184.00 
C 83.23 178.77 90.43 179.35 93.22 180.78 C 95.42 185.27 87.60 183.79 85.00 184.00 Z"/>
</g>
<g fill="None" fill-opacity="0.0" stroke="#999999" stroke-opacity="1.00" stroke-width="0.3"><path d="
M 111.00 185.00 
C 107.53 185.14 109.56 180.15 109.00 178.00
C 106.76 179.27 107.72 187.97 111.00 185.00 Z"/>
</g>
<g fill="None" fill-opacity="0.0" stroke="#383838" stroke-opacity="1.00" stroke-width="0.3"><path d="
M 111.00 185.00 
C 110.44 182.85 112.47 177.86 109.00 178.00
C 109.56 180.15 107.53 185.14 111.00 185.00 Z"/>
</g>
<g fill="None" fill-opacity="0.0" stroke="#4F4F4F" stroke-opacity="1.00" stroke-width="0.3"><path d="
M 135.00 179.00 
C 130.32 176.78 119.76 176.47 123.00 185.00
C 126.84 184.43 131.91 186.19 135.00 184.00
C 132.15 183.50 128.10 185.08 126.00 183.00
C 128.52 182.53 132.23 184.03 134.00 182.00
C 132.43 179.34 127.64 182.59 126.00 180.00
C 128.85 179.50 132.90 181.08 135.00 179.00 Z"/>
</g>
<g fill="None" fill-opacity="0.0" stroke="#414141" stroke-opacity="1.00" stroke-width="0.3"><path d="
M 161.00 180.00 
C 157.05 176.18 144.92 176.45 148.00 185.00
C 151.92 183.98 159.47 187.21 161.00 183.00
C 157.40 183.27 148.66 186.77 150.00 180.00
C 153.61 179.23 158.41 181.19 161.00 180.00 Z"/>
</g>
<g fill="None" fill-opacity="0.0" stroke="#484848" stroke-opacity="1.00" stroke-width="0.3"><path d="
M 186.00 178.00 
C 181.82 178.58 176.42 176.79 173.00 179.00
C 177.92 179.10 178.61 182.49 181.00 185.00
C 178.70 179.16 185.24 181.25 186.00 178.00 Z"/>
</g>
<g fill="None" fill-opacity="0.0" stroke="#E0E0E0" stroke-opacity="1.00" stroke-width="0.3"><path d="
M 42.00 181.00 
C 40.43 179.28 35.64 179.50 34.00 181.00
C 35.70 182.88 39.87 182.23 42.00 181.00 Z"/>
</g>
<g fill="None" fill-opacity="0.0" stroke="#F4F4F4" stroke-opacity="1.00" stroke-width="0.3"><path d="
M 67.00 180.00 
C 64.48 180.47 60.77 178.97 59.00 181.00
C 61.52 180.53 65.23 182.03 67.00 180.00 Z"/>
</g>
<g fill="None" fill-opacity="0.0" stroke="#F4F4F4" stroke-opacity="1.00" stroke-width="0.3"><path d="
M 85.00 184.00 
C 87.60 183.79 95.42 185.27 93.22 180.78 C 90.43 179.35 83.23 178.77 85.00 184.00 Z"/>
</g>
<g fill="None" fill-opacity="0.0" stroke="#A6A6A6" stroke-opacity="1.00" stroke-width="0.3"><path d="
M 68.00 185.00 
C 69.30 187.37 70.53 184.26 68.00 184.00
C 68.00 184.00 67.76 184.81 68.00 185.00 Z"/>
</g>
<g fill="#FEFEFE" fill-opacity="1.00" stroke="None"><path d="
M 0.00 225.00 
L 225.00 225.00
L 225.00 0.00
L 0.00 0.00
L 0.00 225.00 Z"/>
</g>
<g fill="#B5B3B3" fill-opacity="1.00" stroke="None"><path d="
M 33.00 69.00 
C 33.08 68.81 34.50 69.00 35.00 69.00
C 32.75 66.51 35.35 62.13 33.00 60.00
C 33.00 63.00 33.00 66.00 33.00 69.00 Z"/>
</g>
<g fill="#B5B3B3" fill-opacity="1.00" stroke="None"><path d="
M 44.00 68.00 
C 45.10 68.03 44.81 69.34 45.00 70.00
C 45.25 69.75 46.00 70.00 46.00 70.00
C 44.30 66.99 46.03 62.57 44.00 60.00
C 44.00 62.67 44.00 65.33 44.00 68.00 Z"/>
</g>
<g fill="#B8B7B6" fill-opacity="1.00" stroke="None"><path d="
M 59.00 137.00 
C 59.40 138.62 60.89 136.32 62.00 137.00
C 63.65 133.52 68.51 131.92 69.00 128.00
C 65.55 130.05 63.42 134.00 60.00 136.00
C 60.00 133.00 60.00 130.00 60.00 127.00
C 63.00 127.00 66.00 127.00 69.00 127.00
C 68.95 126.50 69.00 126.00 69.00 126.00
C 68.59 125.17 68.03 124.13 67.00 124.00
C 69.22 127.54 61.96 125.42 60.00 126.00
C 60.65 121.17 58.69 115.01 61.00 111.00
C 59.48 106.03 59.51 99.99 61.00 95.00
C 60.08 91.24 57.18 79.89 64.00 80.00
C 59.36 79.61 59.71 75.15 60.00 71.00
C 63.29 72.53 70.03 76.92 68.00 81.00
C 68.22 80.75 69.00 81.00 69.00 81.00
C 69.41 80.17 69.97 79.13 71.00 79.00
C 70.95 78.50 71.00 78.00 71.00 78.00
C 70.38 72.16 72.27 65.09 70.00 60.00
C 70.00 63.00 70.00 66.00 70.00 69.00
C 63.10 70.67 57.70 67.65 60.00 60.00
C 57.67 61.56 60.59 67.67 56.00 65.00
C 58.34 67.37 57.90 69.05 55.00 70.00
C 61.49 68.37 60.21 80.58 55.00 80.00
C 63.52 81.63 56.92 96.76 59.00 104.00 C 57.27 111.29 63.00 124.33 55.00 127.00
C 61.36 125.56 58.32 133.37 59.00 137.00 Z"/>
</g>
<g fill="#B9BABA" fill-opacity="1.00" stroke="None"><path d="
M 117.00 78.00 
C 117.14 77.77 118.00 78.00 118.00 78.00
C 118.00 75.33 118.00 72.67 118.00 70.00
C 128.66 68.34 121.22 73.18 119.00 78.00
C 122.48 76.35 124.08 71.49 128.00 71.00
C 127.74 88.79 128.17 107.60 128.00 126.00
C 124.67 126.00 121.33 126.00 118.00 126.00
C 118.00 111.00 118.00 96.00 118.00 81.00
C 117.67 81.24 117.00 81.00 117.00 81.00
C 116.33 95.50 118.33 111.32 116.00 125.00
C 116.20 125.40 116.00 126.00 116.00 126.00
C 117.28 125.47 117.86 126.97 119.00 127.00
C 122.00 127.00 125.00 127.00 128.00 127.00
C 128.00 130.00 128.00 133.00 128.00 136.00
C 128.05 136.35 128.65 136.97 129.00 137.00
C 129.19 132.58 127.46 126.38 133.00 126.00
C 124.99 126.00 130.73 113.49 129.00 108.00 C 129.00 100.67 129.00 93.33 129.00 86.00 C 130.19 80.33 125.82 70.22 133.00 69.00
C 131.67 69.00 130.33 69.00 129.00 69.00
C 128.99 70.19 127.01 70.17 127.00 69.00
C 124.00 69.00 121.00 69.00 118.00 69.00
C 117.50 66.15 119.08 62.10 117.00 60.00
C 117.00 63.00 117.00 66.00 117.00 69.00
C 112.49 69.59 106.75 67.78 103.00 70.00
C 107.67 70.00 112.33 70.00 117.00 70.00
C 117.00 72.67 117.00 75.33 117.00 78.00 Z"/>
</g>
<g fill="#C4C4C5" fill-opacity="1.00" stroke="None"><path d="
M 128.00 68.00 
C 128.41 67.81 129.00 68.00 129.00 68.00
C 132.17 67.60 127.98 63.50 128.00 60.00
C 128.00 62.67 128.00 65.33 128.00 68.00 Z"/>
</g>
<g fill="#BBADA6" fill-opacity="1.00" stroke="None"><path d="
M 143.00 119.00 
C 143.20 119.24 144.00 119.00 144.00 119.00
C 144.13 118.20 145.09 117.89 145.00 117.00
C 145.09 116.52 145.00 116.00 145.00 116.00
C 143.28 113.25 143.20 107.28 146.00 105.00
C 144.86 102.48 143.76 99.92 144.00 97.00
C 144.00 94.33 144.00 91.67 144.00 89.00
C 143.77 87.17 144.07 85.53 145.00 84.00
C 142.60 79.95 143.74 73.75 145.00 69.00
C 142.28 67.11 145.66 61.96 143.00 60.00
C 143.04 64.27 144.12 69.64 139.00 70.00
C 145.49 68.37 144.21 80.58 139.00 80.00
C 146.19 78.93 141.81 88.77 143.00 93.00 C 142.41 97.77 145.23 105.45 139.00 106.00
C 145.54 104.43 144.35 117.53 139.00 117.00
C 140.47 117.10 143.63 116.47 143.00 119.00 Z"/>
</g>
<g fill="#C2BFBE" fill-opacity="1.00" stroke="None"><path d="
M 180.00 72.00 
C 180.13 72.80 181.09 73.11 181.00 74.00
C 181.40 74.20 182.00 74.00 182.00 74.00
C 181.07 72.86 180.92 71.45 181.00 70.00
C 184.33 70.00 187.67 70.00 191.00 70.00
C 191.41 77.02 189.29 79.04 191.00 85.00
C 191.00 86.00 191.00 87.00 191.00 88.00
C 190.74 91.03 191.74 94.37 190.00 97.00
C 191.28 97.22 191.42 99.81 190.00 100.00
C 190.06 101.89 188.58 103.29 188.00 105.00
C 187.80 105.40 188.00 106.00 188.00 106.00
C 189.00 106.00 190.00 106.00 191.00 106.00
C 191.00 109.33 191.00 112.67 191.00 116.00
C 187.67 116.00 184.33 116.00 181.00 116.00
C 180.59 114.44 181.46 113.31 182.00 112.00
C 181.20 112.13 180.89 113.09 180.00 113.00
C 178.54 113.55 177.82 115.40 176.00 115.00
C 175.92 116.26 173.94 115.56 174.00 117.00
C 176.00 117.00 178.00 117.00 180.00 117.00
C 179.77 115.95 181.20 116.26 181.00 117.00
C 184.33 117.00 187.67 117.00 191.00 117.00
C 191.00 123.67 191.00 130.33 191.00 137.00
C 191.50 137.00 192.00 137.00 192.00 137.00
C 193.58 130.27 188.21 118.15 196.00 116.00
C 189.46 117.57 190.65 104.47 196.00 105.00
C 188.81 106.07 193.19 96.23 192.00 92.00 C 192.59 87.23 189.77 79.55 196.00 79.00
C 189.51 80.63 190.79 68.42 196.00 69.00
C 189.29 70.76 193.74 62.50 191.00 60.00
C 193.25 67.64 187.92 70.71 181.00 69.00
C 180.50 66.15 182.08 62.10 180.00 60.00
C 180.00 64.00 180.00 68.00 180.00 72.00 Z"/>
</g>
<g fill="#A35F41" fill-opacity="1.00" stroke="None"><path d="
M 35.00 69.00 
C 34.50 69.00 33.08 68.81 33.00 69.00
C 33.00 73.00 33.00 77.00 33.00 81.00
C 34.10 81.03 33.81 82.34 34.00 83.00
C 36.75 82.73 37.68 86.29 40.00 87.00
C 35.75 82.73 32.27 77.99 34.00 71.00
C 37.67 71.00 41.33 71.00 45.00 71.00
C 45.00 70.50 45.00 70.00 45.00 70.00
C 44.81 69.34 45.10 68.03 44.00 68.00
C 41.98 70.22 37.84 68.41 35.00 69.00 Z"/>
</g>
<g fill="#4C4E50" fill-opacity="1.00" stroke="None"><path d="
M 127.00 69.00 
C 127.01 70.17 128.99 70.19 129.00 69.00
C 129.00 69.00 129.25 68.25 129.00 68.00
C 129.00 68.00 128.41 67.81 128.00 68.00
C 127.74 68.12 127.35 68.95 127.00 69.00 Z"/>
</g>
<g fill="#A17566" fill-opacity="1.00" stroke="None"><path d="
M 71.00 78.00 
C 71.00 78.00 70.95 78.50 71.00 79.00
C 71.03 79.35 71.79 79.73 72.00 80.00
C 74.43 74.46 84.14 71.81 90.00 70.00
C 89.65 69.95 89.18 69.01 89.00 69.00
C 82.53 70.88 76.49 73.94 71.00 78.00 Z"/>
</g>
<g fill="#523930" fill-opacity="1.00" stroke="None"><path d="
M 90.00 70.00 
C 93.00 70.00 96.00 70.00 99.00 70.00
C 98.75 69.73 99.00 69.00 99.00 69.00
C 95.67 69.00 92.33 69.00 89.00 69.00
C 89.18 69.01 89.65 69.95 90.00 70.00 Z"/>
</g>
<g fill="#A39894" fill-opacity="1.00" stroke="None"><path d="
M 99.00 70.00 
C 100.00 70.00 101.00 70.00 102.00 70.00
C 101.73 68.53 100.00 69.11 99.00 69.00
C 99.00 69.00 98.75 69.73 99.00 70.00 Z"/>
</g>
<g fill="#EAA383" fill-opacity="1.00" stroke="None"><path d="
M 145.00 84.00 
C 145.67 79.58 148.70 75.82 153.00 74.00
C 153.59 77.31 146.65 77.51 151.00 80.00
C 145.12 79.37 146.70 86.65 144.00 89.00
C 144.00 91.67 144.00 94.33 144.00 97.00
C 145.25 99.22 147.07 102.06 147.00 105.00
C 153.18 105.36 154.45 101.33 159.00 105.00
C 154.19 105.64 156.28 108.41 155.00 112.00
C 158.28 115.41 163.34 115.51 167.00 117.00
C 167.50 117.00 168.00 117.00 168.00 117.00
C 170.02 116.26 174.39 114.34 176.00 115.00
C 177.82 115.40 178.54 113.55 180.00 113.00
C 180.00 108.67 180.00 104.33 180.00 100.00
C 178.88 100.02 177.67 102.97 177.00 101.00
C 176.77 101.26 176.07 101.65 176.00 102.00
C 174.46 103.31 176.29 104.40 176.00 106.00
C 174.39 105.99 171.57 106.59 172.00 104.00
C 170.03 105.59 167.34 104.80 165.00 105.00
C 163.82 106.51 161.86 104.85 160.00 106.00
C 162.21 103.54 157.43 102.26 157.00 100.00
C 156.80 99.60 157.00 99.00 157.00 99.00
C 156.06 99.57 155.18 100.15 154.00 100.00
C 155.15 97.63 153.70 95.70 154.00 93.00
C 153.94 92.51 154.00 92.00 154.00 92.00
C 153.45 87.84 156.61 82.34 152.00 80.00
C 155.72 79.22 152.78 75.22 156.00 75.00
C 157.14 78.82 154.96 82.34 157.00 86.00
C 158.29 85.56 159.21 84.42 159.00 83.00
C 160.84 81.46 158.37 80.48 158.00 79.00
C 161.17 79.61 165.65 77.75 168.00 80.00
C 168.50 79.98 169.00 80.00 169.00 80.00
C 172.56 77.62 174.88 82.37 177.00 79.00
C 175.68 82.49 177.54 83.04 179.00 86.00
C 179.21 86.39 179.00 87.00 179.00 87.00
C 180.62 81.62 178.29 78.81 180.00 73.00
C 178.59 72.85 176.66 72.35 176.00 71.00
C 175.87 69.97 174.83 69.41 174.00 69.00
C 174.49 71.71 169.05 70.07 168.00 69.00
C 166.67 69.00 165.33 69.00 164.00 69.00
C 163.32 70.15 160.49 71.84 161.00 69.00
C 159.51 70.32 157.34 70.88 156.00 72.00
C 155.59 72.83 155.03 73.87 154.00 74.00
C 154.11 73.00 153.53 71.27 155.00 71.00
C 154.31 66.92 148.04 69.92 145.00 69.00
C 143.74 73.75 142.60 79.95 145.00 84.00 Z"/>
</g>
<g fill="#583C2B" fill-opacity="1.00" stroke="None"><path d="
M 164.00 69.00 
C 163.00 69.00 162.00 69.00 161.00 69.00
C 160.49 71.84 163.32 70.15 164.00 69.00 Z"/>
</g>
<g fill="#6E4D43" fill-opacity="1.00" stroke="None"><path d="
M 174.00 69.00 
C 172.00 69.00 170.00 69.00 168.00 69.00
C 169.05 70.07 174.49 71.71 174.00 69.00 Z"/>
</g>
<g fill="#CBA490" fill-opacity="1.00" stroke="None"><path d="
M 45.00 71.00 
C 45.00 77.67 45.00 84.33 45.00 91.00
C 45.00 91.50 45.00 92.50 45.00 93.00
C 47.33 86.33 45.34 77.50 46.00 70.00
C 46.00 70.00 45.25 69.75 45.00 70.00
C 45.00 70.00 45.00 70.50 45.00 71.00 Z"/>
</g>
<g fill="#FFFFFF" fill-opacity="1.00" stroke="None"><path d="
M 70.00 70.00 
C 67.80 70.44 64.45 69.04 63.00 71.00
C 67.12 75.01 71.71 79.38 70.00 70.00 Z"/>
</g>
<g fill="#E78B6F" fill-opacity="1.00" stroke="None"><path d="
M 72.00 80.00 
C 73.88 81.88 76.08 86.78 79.00 85.00
C 79.80 84.87 80.11 83.91 81.00 84.00
C 82.41 83.85 84.34 83.35 85.00 82.00
C 83.97 79.53 80.41 80.33 79.00 81.00
C 80.02 76.44 92.46 80.64 98.00 79.00 C 102.31 82.84 108.64 75.43 114.00 81.00
C 110.94 79.77 108.04 81.36 105.00 80.00
C 105.00 81.00 105.00 82.00 105.00 83.00
C 106.42 84.01 107.91 86.10 110.00 86.00
C 113.18 84.23 115.07 81.28 116.00 78.00
C 111.79 75.82 107.22 72.86 103.00 71.00
C 102.68 70.80 102.23 70.28 102.00 70.00
C 101.00 70.00 100.00 70.00 99.00 70.00
C 96.00 70.00 93.00 70.00 90.00 70.00
C 84.14 71.81 74.43 74.46 72.00 80.00 Z"/>
</g>
<g fill="#FCFCFC" fill-opacity="1.00" stroke="None"><path d="
M 118.00 78.00 
C 119.86 78.46 118.16 80.04 118.00 81.00
C 118.00 96.00 118.00 111.00 118.00 126.00
C 121.33 126.00 124.67 126.00 128.00 126.00
C 128.17 107.60 127.74 88.79 128.00 71.00
C 124.08 71.49 122.48 76.35 119.00 78.00
C 121.22 73.18 128.66 68.34 118.00 70.00
C 118.00 72.67 118.00 75.33 118.00 78.00 Z"/>
</g>
<g fill="#FBFBFA" fill-opacity="1.00" stroke="None"><path d="
M 182.00 74.00 
C 186.46 76.45 188.13 81.55 191.00 85.00
C 189.29 79.04 191.41 77.02 191.00 70.00
C 187.67 70.00 184.33 70.00 181.00 70.00
C 180.92 71.45 181.07 72.86 182.00 74.00 Z"/>
</g>
<g fill="#E7682C" fill-opacity="1.00" stroke="None"><path d="
M 40.00 87.00 
C 40.15 87.34 40.69 87.79 41.00 88.00
C 42.66 88.54 43.33 90.56 45.00 91.00
C 45.00 84.33 45.00 77.67 45.00 71.00
C 41.33 71.00 37.67 71.00 34.00 71.00
C 32.27 77.99 35.75 82.73 40.00 87.00 Z"/>
</g>
<g fill="#F7F7F6" fill-opacity="1.00" stroke="None"><path d="
M 61.00 95.00 
C 61.97 93.09 62.59 91.10 63.00 89.00
C 63.11 88.65 63.71 88.23 64.00 88.00
C 65.16 85.53 66.39 83.19 68.00 81.00
C 70.03 76.92 63.29 72.53 60.00 71.00
C 59.71 75.15 59.36 79.61 64.00 80.00
C 57.18 79.89 60.08 91.24 61.00 95.00 Z"/>
</g>
<g fill="#966A5D" fill-opacity="1.00" stroke="None"><path d="
M 110.00 86.00 
C 111.78 87.14 114.69 82.63 116.00 81.00
C 116.57 80.06 117.15 79.18 117.00 78.00
C 112.58 75.30 108.36 71.41 103.00 71.00
C 107.22 72.86 111.79 75.82 116.00 78.00
C 115.07 81.28 113.18 84.23 110.00 86.00 Z"/>
</g>
<g fill="#866254" fill-opacity="1.00" stroke="None"><path d="
M 156.00 72.00 
C 155.71 72.06 155.12 71.35 155.00 71.00
C 153.53 71.27 154.11 73.00 154.00 74.00
C 155.03 73.87 155.59 72.83 156.00 72.00 Z"/>
</g>
<g fill="#996852" fill-opacity="1.00" stroke="None"><path d="
M 179.00 87.00 
C 181.11 91.48 180.37 97.37 177.00 101.00
C 177.67 102.97 178.88 100.02 180.00 100.00
C 180.00 104.33 180.00 108.67 180.00 113.00
C 180.89 113.09 181.20 112.13 182.00 112.00
C 183.57 111.04 185.25 109.68 186.00 108.00
C 184.12 108.68 182.68 110.02 181.00 111.00
C 180.54 97.87 182.56 84.29 181.00 74.00
C 181.09 73.11 180.13 72.80 180.00 72.00
C 178.40 72.43 177.54 70.63 176.00 71.00
C 176.66 72.35 178.59 72.85 180.00 73.00
C 178.29 78.81 180.62 81.62 179.00 87.00 Z"/>
</g>
<g fill="#9E654B" fill-opacity="1.00" stroke="None"><path d="
M 145.00 84.00 
C 144.07 85.53 143.77 87.17 144.00 89.00
C 146.70 86.65 145.12 79.37 151.00 80.00
C 146.65 77.51 153.59 77.31 153.00 74.00
C 148.70 75.82 145.67 79.58 145.00 84.00 Z"/>
</g>
<g fill="#E8A486" fill-opacity="1.00" stroke="None"><path d="
M 186.00 108.00 
C 186.33 107.83 186.79 107.31 187.00 107.00
C 185.15 106.53 186.57 104.44 188.00 105.00
C 188.58 103.29 190.06 101.89 190.00 100.00
C 190.00 99.00 190.00 98.00 190.00 97.00
C 191.74 94.37 190.74 91.03 191.00 88.00
C 188.54 81.82 184.17 79.49 182.00 74.00
C 182.00 74.00 181.40 74.20 181.00 74.00
C 182.56 84.29 180.54 97.87 181.00 111.00
C 182.68 110.02 184.12 108.68 186.00 108.00 Z"/>
</g>
<g fill="#927164" fill-opacity="1.00" stroke="None"><path d="
M 191.00 88.00 
C 191.00 87.00 191.00 86.00 191.00 85.00
C 188.13 81.55 186.46 76.45 182.00 74.00
C 184.17 79.49 188.54 81.82 191.00 88.00 Z"/>
</g>
<g fill="#AC745D" fill-opacity="1.00" stroke="None"><path d="
M 154.00 92.00 
C 155.26 91.92 154.56 89.94 156.00 90.00
C 155.59 88.44 156.46 87.31 157.00 86.00
C 154.96 82.34 157.14 78.82 156.00 75.00
C 152.78 75.22 155.72 79.22 152.00 80.00
C 156.61 82.34 153.45 87.84 154.00 92.00 Z"/>
</g>
<g fill="#6D5F59" fill-opacity="1.00" stroke="None"><path d="
M 116.00 81.00 
C 116.16 80.77 117.00 81.00 117.00 81.00
C 117.00 81.00 117.67 81.24 118.00 81.00
C 118.16 80.04 119.86 78.46 118.00 78.00
C 118.00 78.00 117.14 77.77 117.00 78.00
C 117.15 79.18 116.57 80.06 116.00 81.00 Z"/>
</g>
<g fill="#95513E" fill-opacity="1.00" stroke="None"><path d="
M 69.00 81.00 
C 71.25 85.42 69.39 91.82 70.00 97.00
C 70.11 96.74 70.81 96.32 71.00 96.00
C 71.00 91.33 71.00 86.67 71.00 82.00
C 72.93 83.26 74.91 85.00 76.00 87.00
C 77.28 87.27 78.72 86.23 79.00 85.00
C 76.08 86.78 73.88 81.88 72.00 80.00
C 71.79 79.73 71.03 79.35 71.00 79.00
C 69.97 79.13 69.41 80.17 69.00 81.00 Z"/>
</g>
<g fill="#AE6D5A" fill-opacity="1.00" stroke="None"><path d="
M 85.00 82.00 
C 91.69 79.84 98.54 80.19 105.00 83.00
C 105.00 82.00 105.00 81.00 105.00 80.00
C 108.04 81.36 110.94 79.77 114.00 81.00
C 108.64 75.43 102.31 82.84 98.00 79.00 C 92.46 80.64 80.02 76.44 79.00 81.00
C 80.41 80.33 83.97 79.53 85.00 82.00 Z"/>
</g>
<g fill="#A7735E" fill-opacity="1.00" stroke="None"><path d="
M 159.00 83.00 
C 162.05 82.28 164.50 79.64 168.00 80.00
C 165.65 77.75 161.17 79.61 158.00 79.00
C 158.37 80.48 160.84 81.46 159.00 83.00 Z"/>
</g>
<g fill="#A2715D" fill-opacity="1.00" stroke="None"><path d="
M 169.00 80.00 
C 173.04 80.42 175.89 83.70 179.00 86.00
C 177.54 83.04 175.68 82.49 177.00 79.00
C 174.88 82.37 172.56 77.62 169.00 80.00 Z"/>
</g>
<g fill="#FEFDFD" fill-opacity="1.00" stroke="None"><path d="
M 85.00 82.00 
C 84.34 83.35 82.41 83.85 81.00 84.00
C 79.58 86.76 76.35 88.27 75.00 91.00
C 74.80 91.32 74.31 91.80 74.00 92.00
C 72.20 94.35 72.88 98.03 71.00 100.00
C 70.51 104.67 71.24 108.94 73.00 113.00
C 74.01 114.09 75.22 115.59 76.00 117.00
C 77.68 119.66 80.12 121.91 83.00 123.00
C 83.87 123.95 85.68 123.54 86.00 125.00
C 87.56 124.59 88.69 125.46 90.00 126.00
C 93.00 126.00 96.00 126.00 99.00 126.00
C 99.26 124.61 101.05 125.22 102.00 125.00
C 103.49 123.53 105.78 122.26 108.00 122.00
C 108.44 120.71 109.58 119.79 111.00 120.00
C 112.93 121.26 114.91 123.00 116.00 125.00
C 118.33 111.32 116.33 95.50 117.00 81.00
C 117.00 81.00 116.16 80.77 116.00 81.00
C 114.69 82.63 111.78 87.14 110.00 86.00
C 107.91 86.10 106.42 84.01 105.00 83.00
C 98.54 80.19 91.69 79.84 85.00 82.00 Z"/>
</g>
<g fill="#FDFCFC" fill-opacity="1.00" stroke="None"><path d="
M 159.00 83.00 
C 159.21 84.42 158.29 85.56 157.00 86.00
C 156.46 87.31 155.59 88.44 156.00 90.00
C 156.00 91.67 156.00 93.33 156.00 95.00
C 155.59 96.56 156.46 97.69 157.00 99.00
C 157.00 99.00 156.80 99.60 157.00 100.00
C 159.51 102.06 162.02 103.80 165.00 105.00
C 167.34 104.80 170.03 105.59 172.00 104.00
C 174.13 106.27 173.91 102.11 176.00 102.00
C 176.07 101.65 176.77 101.26 177.00 101.00
C 180.37 97.37 181.11 91.48 179.00 87.00
C 179.00 87.00 179.21 86.39 179.00 86.00
C 175.89 83.70 173.04 80.42 169.00 80.00
C 169.00 80.00 168.50 79.98 168.00 80.00
C 164.50 79.64 162.05 82.28 159.00 83.00 Z"/>
</g>
<g fill="#BFAEA7" fill-opacity="1.00" stroke="None"><path d="
M 45.00 137.00 
C 45.23 138.05 43.80 137.74 44.00 137.00
C 40.67 137.00 37.33 137.00 34.00 137.00
C 34.00 119.00 34.00 101.00 34.00 83.00
C 33.81 82.34 34.10 81.03 33.00 81.00
C 33.00 91.33 33.00 101.67 33.00 112.00 C 31.10 120.17 37.26 134.50 29.00 138.00
C 35.71 136.24 31.26 144.50 34.00 147.00
C 34.00 144.00 34.00 141.00 34.00 138.00
C 37.33 138.00 40.67 138.00 44.00 138.00
C 44.47 140.52 42.97 144.23 45.00 146.00
C 44.24 141.06 45.01 137.25 50.00 137.00
C 48.33 137.00 46.67 137.00 45.00 137.00 Z"/>
</g>
<g fill="#A57665" fill-opacity="1.00" stroke="None"><path d="
M 64.00 88.00 
C 65.97 86.17 68.42 83.75 69.00 81.00
C 69.00 81.00 68.22 80.75 68.00 81.00
C 66.39 83.19 65.16 85.53 64.00 88.00 Z"/>
</g>
<g fill="#EE8B6E" fill-opacity="1.00" stroke="None"><path d="
M 64.00 88.00 
C 63.71 88.23 63.11 88.65 63.00 89.00
C 60.08 98.28 61.11 112.28 65.00 121.00
C 65.17 121.33 65.72 121.77 66.00 122.00
C 67.66 122.54 68.33 124.56 70.00 125.00
C 70.00 116.33 70.00 107.67 70.00 99.00
C 70.00 98.50 70.00 97.50 70.00 97.00
C 69.39 91.82 71.25 85.42 69.00 81.00
C 68.42 83.75 65.97 86.17 64.00 88.00 Z"/>
</g>
<g fill="#DF8E74" fill-opacity="1.00" stroke="None"><path d="
M 71.00 96.00 
C 72.53 95.26 71.67 92.23 74.00 92.00
C 74.31 91.80 74.80 91.32 75.00 91.00
C 73.10 90.08 77.01 88.70 76.00 87.00
C 74.91 85.00 72.93 83.26 71.00 82.00
C 71.00 86.67 71.00 91.33 71.00 96.00 Z"/>
</g>
<g fill="#EE8C6C" fill-opacity="1.00" stroke="None"><path d="
M 44.00 137.00 
C 42.18 120.97 47.76 102.25 41.00 88.00
C 40.69 87.79 40.15 87.34 40.00 87.00
C 37.68 86.29 36.75 82.73 34.00 83.00
C 34.00 101.00 34.00 119.00 34.00 137.00
C 37.33 137.00 40.67 137.00 44.00 137.00 Z"/>
</g>
<g fill="#9E7E72" fill-opacity="1.00" stroke="None"><path d="
M 79.00 85.00 
C 78.72 86.23 77.28 87.27 76.00 87.00
C 77.01 88.70 73.10 90.08 75.00 91.00
C 76.35 88.27 79.58 86.76 81.00 84.00
C 80.11 83.91 79.80 84.87 79.00 85.00 Z"/>
</g>
<g fill="#9A5F4C" fill-opacity="1.00" stroke="None"><path d="
M 44.00 137.00 
C 43.80 137.74 45.23 138.05 45.00 137.00
C 45.00 122.33 45.00 107.67 45.00 93.00
C 45.00 92.50 45.00 91.50 45.00 91.00
C 43.33 90.56 42.66 88.54 41.00 88.00
C 47.76 102.25 42.18 120.97 44.00 137.00 Z"/>
</g>
<g fill="#966559" fill-opacity="1.00" stroke="None"><path d="
M 61.00 95.00 
C 59.51 99.99 59.48 106.03 61.00 111.00
C 61.60 114.56 63.37 117.77 65.00 121.00
C 61.11 112.28 60.08 98.28 63.00 89.00
C 62.59 91.10 61.97 93.09 61.00 95.00 Z"/>
</g>
<g fill="#C3BAB2" fill-opacity="1.00" stroke="None"><path d="
M 154.00 92.00 
C 154.00 92.00 153.94 92.51 154.00 93.00
C 155.26 93.08 154.56 95.06 156.00 95.00
C 156.00 93.33 156.00 91.67 156.00 90.00
C 154.56 89.94 155.26 91.92 154.00 92.00 Z"/>
</g>
<g fill="#9C7B70" fill-opacity="1.00" stroke="None"><path d="
M 71.00 96.00 
C 70.81 96.32 70.11 96.74 70.00 97.00
C 70.00 97.50 70.00 98.50 70.00 99.00
C 70.11 99.26 70.95 99.65 71.00 100.00
C 72.88 98.03 72.20 94.35 74.00 92.00
C 71.67 92.23 72.53 95.26 71.00 96.00 Z"/>
</g>
<g fill="#98705F" fill-opacity="1.00" stroke="None"><path d="
M 157.00 99.00 
C 156.46 97.69 155.59 96.56 156.00 95.00
C 154.56 95.06 155.26 93.08 154.00 93.00
C 153.70 95.70 155.15 97.63 154.00 100.00
C 155.18 100.15 156.06 99.57 157.00 99.00 Z"/>
</g>
<g fill="#A16A51" fill-opacity="1.00" stroke="None"><path d="
M 146.00 105.00 
C 148.13 108.20 152.93 110.95 154.00 115.00
C 154.25 114.75 155.00 115.00 155.00 115.00
C 155.66 113.24 158.47 114.89 159.00 116.00
C 159.74 115.82 160.91 116.05 161.00 117.00
C 163.00 117.00 165.00 117.00 167.00 117.00
C 163.34 115.51 158.28 115.41 155.00 112.00
C 156.28 108.41 154.19 105.64 159.00 105.00
C 154.45 101.33 153.18 105.36 147.00 105.00
C 147.07 102.06 145.25 99.22 144.00 97.00
C 143.76 99.92 144.86 102.48 146.00 105.00 Z"/>
</g>
<g fill="#6C4A3E" fill-opacity="1.00" stroke="None"><path d="
M 190.00 100.00 
C 191.42 99.81 191.28 97.22 190.00 97.00
C 190.00 98.00 190.00 99.00 190.00 100.00 Z"/>
</g>
<g fill="#935948" fill-opacity="1.00" stroke="None"><path d="
M 66.00 122.00 
C 66.13 122.80 67.09 123.11 67.00 124.00
C 68.03 124.13 68.59 125.17 69.00 126.00
C 70.80 125.64 72.42 126.20 71.00 128.00
C 71.83 128.41 72.87 128.97 73.00 130.00
C 75.19 131.69 77.54 132.82 80.00 134.00
C 78.08 131.26 74.59 130.09 72.00 128.00
C 78.21 125.76 83.49 128.60 90.00 127.00
C 90.05 126.99 90.00 126.00 90.00 126.00
C 88.69 125.46 87.56 124.59 86.00 125.00
C 82.58 127.21 77.18 125.42 73.00 126.00
C 73.81 123.96 76.27 123.03 77.00 121.00
C 79.48 120.11 81.11 125.92 83.00 123.00
C 80.12 121.91 77.68 119.66 76.00 117.00
C 74.11 117.68 77.21 118.86 77.00 120.00
C 74.59 121.11 73.38 123.96 71.00 125.00
C 72.08 121.72 68.68 112.02 73.00 113.00
C 71.24 108.94 70.51 104.67 71.00 100.00
C 70.95 99.65 70.11 99.26 70.00 99.00
C 70.00 107.67 70.00 116.33 70.00 125.00
C 68.33 124.56 67.66 122.54 66.00 122.00 Z"/>
</g>
<g fill="#9D7262" fill-opacity="1.00" stroke="None"><path d="
M 165.00 105.00 
C 162.02 103.80 159.51 102.06 157.00 100.00
C 157.43 102.26 162.21 103.54 160.00 106.00
C 161.86 104.85 163.82 106.51 165.00 105.00 Z"/>
</g>
<g fill="#9A6E5D" fill-opacity="1.00" stroke="None"><path d="
M 172.00 104.00 
C 171.57 106.59 174.39 105.99 176.00 106.00
C 176.29 104.40 174.46 103.31 176.00 102.00
C 173.91 102.11 174.13 106.27 172.00 104.00 Z"/>
</g>
<g fill="#ECA587" fill-opacity="1.00" stroke="None"><path d="
M 145.00 116.00 
C 147.55 115.36 147.10 118.98 145.00 117.00
C 145.09 117.89 144.13 118.20 144.00 119.00
C 143.96 122.15 148.02 123.30 149.00 126.00
C 150.20 126.67 151.58 127.64 152.00 129.00
C 154.89 131.51 152.99 126.47 155.00 126.00
C 155.00 125.50 155.00 125.00 155.00 125.00
C 153.66 124.53 153.43 121.42 155.00 121.00
C 155.00 120.50 155.00 120.00 155.00 120.00
C 153.40 119.47 154.28 117.25 154.00 116.00
C 154.06 115.51 154.00 115.00 154.00 115.00
C 152.93 110.95 148.13 108.20 146.00 105.00
C 143.20 107.28 143.28 113.25 145.00 116.00 Z"/>
</g>
<g fill="#7D5345" fill-opacity="1.00" stroke="None"><path d="
M 187.00 107.00 
C 187.21 106.69 187.88 106.26 188.00 106.00
C 188.00 106.00 187.80 105.40 188.00 105.00
C 186.57 104.44 185.15 106.53 187.00 107.00 Z"/>
</g>
<g fill="#EBA282" fill-opacity="1.00" stroke="None"><path d="
M 154.00 111.00 
C 154.97 107.15 152.89 104.90 149.00 106.00
C 150.09 108.00 152.07 109.74 154.00 111.00 Z"/>
</g>
<g fill="#FDFDFC" fill-opacity="1.00" stroke="None"><path d="
M 187.00 107.00 
C 186.79 107.31 186.33 107.83 186.00 108.00
C 185.25 109.68 183.57 111.04 182.00 112.00
C 181.46 113.31 180.59 114.44 181.00 116.00
C 184.33 116.00 187.67 116.00 191.00 116.00
C 191.00 112.67 191.00 109.33 191.00 106.00
C 190.00 106.00 189.00 106.00 188.00 106.00
C 187.88 106.26 187.21 106.69 187.00 107.00 Z"/>
</g>
<g fill="#FBFAF9" fill-opacity="1.00" stroke="None"><path d="
M 67.00 124.00 
C 67.09 123.11 66.13 122.80 66.00 122.00
C 65.72 121.77 65.17 121.33 65.00 121.00
C 63.37 117.77 61.60 114.56 61.00 111.00
C 58.69 115.01 60.65 121.17 60.00 126.00
C 61.96 125.42 69.22 127.54 67.00 124.00 Z"/>
</g>
<g fill="#DC8D77" fill-opacity="1.00" stroke="None"><path d="
M 76.00 117.00 
C 75.22 115.59 74.01 114.09 73.00 113.00
C 68.68 112.02 72.08 121.72 71.00 125.00
C 73.38 123.96 74.59 121.11 77.00 120.00
C 77.21 118.86 74.11 117.68 76.00 117.00 Z"/>
</g>
<g fill="#F5EFEC" fill-opacity="1.00" stroke="None"><path d="
M 155.00 115.00 
C 155.53 116.60 157.75 115.72 159.00 116.00
C 158.47 114.89 155.66 113.24 155.00 115.00 Z"/>
</g>
<g fill="#916D5E" fill-opacity="1.00" stroke="None"><path d="
M 168.00 117.00 
C 170.00 117.00 172.00 117.00 174.00 117.00
C 173.94 115.56 175.92 116.26 176.00 115.00
C 174.39 114.34 170.02 116.26 168.00 117.00 Z"/>
</g>
<g fill="#C4B8B6" fill-opacity="1.00" stroke="None"><path d="
M 154.00 116.00 
C 154.12 116.26 154.89 116.65 155.00 117.00
C 157.00 117.00 159.00 117.00 161.00 117.00
C 160.91 116.05 159.74 115.82 159.00 116.00
C 157.75 115.72 155.53 116.60 155.00 115.00
C 155.00 115.00 154.25 114.75 154.00 115.00
C 154.00 115.00 154.06 115.51 154.00 116.00 Z"/>
</g>
<g fill="#9B6345" fill-opacity="1.00" stroke="None"><path d="
M 145.00 117.00 
C 147.10 118.98 147.55 115.36 145.00 116.00
C 145.00 116.00 145.09 116.52 145.00 117.00 Z"/>
</g>
<g fill="#A86C4A" fill-opacity="1.00" stroke="None"><path d="
M 150.00 116.00 
C 146.16 115.41 150.69 119.70 150.00 116.00 Z"/>
</g>
<g fill="#A66A54" fill-opacity="1.00" stroke="None"><path d="
M 153.00 116.00 
C 149.16 115.41 153.69 119.70 153.00 116.00 Z"/>
</g>
<g fill="#917060" fill-opacity="1.00" stroke="None"><path d="
M 155.00 120.00 
C 155.00 119.00 155.00 118.00 155.00 117.00
C 154.89 116.65 154.12 116.26 154.00 116.00
C 154.28 117.25 153.40 119.47 155.00 120.00 Z"/>
</g>
<g fill="#9B9B9C" fill-opacity="1.00" stroke="None"><path d="
M 180.00 117.00 
C 180.00 123.67 180.00 130.33 180.00 137.00
C 172.00 137.00 164.00 137.00 156.00 137.00
C 156.19 137.41 156.00 138.00 156.00 138.00
C 164.00 138.00 172.00 138.00 180.00 138.00
C 180.50 140.85 178.92 144.90 181.00 147.00
C 181.00 144.00 181.00 141.00 181.00 138.00
C 184.33 138.00 187.67 138.00 191.00 138.00
C 191.50 140.85 189.92 144.90 192.00 147.00
C 191.96 142.73 190.88 137.36 196.00 137.00
C 194.67 137.00 193.33 137.00 192.00 137.00
C 192.00 137.00 191.50 137.00 191.00 137.00
C 187.67 137.00 184.33 137.00 181.00 137.00
C 181.00 130.33 181.00 123.67 181.00 117.00
C 181.20 116.26 179.77 115.95 180.00 117.00 Z"/>
</g>
<g fill="#FEFDFD" fill-opacity="1.00" stroke="None"><path d="
M 155.00 120.00 
C 155.00 120.00 155.00 120.50 155.00 121.00
C 155.00 122.33 155.00 123.67 155.00 125.00
C 155.00 125.00 155.00 125.50 155.00 126.00
C 155.00 129.33 155.00 132.67 155.00 136.00
C 155.05 136.35 155.88 136.74 156.00 137.00
C 164.00 137.00 172.00 137.00 180.00 137.00
C 180.00 130.33 180.00 123.67 180.00 117.00
C 178.00 117.00 176.00 117.00 174.00 117.00
C 172.00 117.00 170.00 117.00 168.00 117.00
C 168.00 117.00 167.50 117.00 167.00 117.00
C 165.00 117.00 163.00 117.00 161.00 117.00
C 159.00 117.00 157.00 117.00 155.00 117.00
C 155.00 118.00 155.00 119.00 155.00 120.00 Z"/>
</g>
<g fill="#FDFDFD" fill-opacity="1.00" stroke="None"><path d="
M 191.00 137.00 
C 191.00 130.33 191.00 123.67 191.00 117.00
C 187.67 117.00 184.33 117.00 181.00 117.00
C 181.00 123.67 181.00 130.33 181.00 137.00
C 184.33 137.00 187.67 137.00 191.00 137.00 Z"/>
</g>
<g fill="#A96241" fill-opacity="1.00" stroke="None"><path d="
M 143.00 137.00 
C 143.05 137.35 143.95 137.77 144.00 138.00
C 145.89 139.15 146.13 135.02 147.00 137.00
C 149.67 135.25 152.31 137.43 155.00 136.00
C 155.00 132.67 155.00 129.33 155.00 126.00
C 152.99 126.47 154.89 131.51 152.00 129.00
C 152.91 130.94 154.33 132.68 154.00 135.00
C 150.67 135.00 147.33 135.00 144.00 135.00
C 144.00 131.00 144.00 127.00 144.00 123.00
C 146.31 122.55 147.07 125.53 149.00 126.00
C 148.02 123.30 143.96 122.15 144.00 119.00
C 144.00 119.00 143.20 119.24 143.00 119.00
C 143.00 125.00 143.00 131.00 143.00 137.00 Z"/>
</g>
<g fill="#815F4E" fill-opacity="1.00" stroke="None"><path d="
M 108.00 122.00 
C 108.87 121.05 110.68 121.46 111.00 120.00
C 109.58 119.79 108.44 120.71 108.00 122.00 Z"/>
</g>
<g fill="#D48A78" fill-opacity="1.00" stroke="None"><path d="
M 108.00 122.00 
C 105.78 122.26 103.49 123.53 102.00 125.00
C 105.75 127.22 111.49 125.41 116.00 126.00
C 116.00 126.00 116.20 125.40 116.00 125.00
C 114.91 123.00 112.93 121.26 111.00 120.00
C 110.68 121.46 108.87 121.05 108.00 122.00 Z"/>
</g>
<g fill="#E48D78" fill-opacity="1.00" stroke="None"><path d="
M 86.00 125.00 
C 85.68 123.54 83.87 123.95 83.00 123.00
C 81.11 125.92 79.48 120.11 77.00 121.00
C 76.27 123.03 73.81 123.96 73.00 126.00
C 77.18 125.42 82.58 127.21 86.00 125.00 Z"/>
</g>
<g fill="#9F7F6A" fill-opacity="1.00" stroke="None"><path d="
M 155.00 125.00 
C 155.00 123.67 155.00 122.33 155.00 121.00
C 153.43 121.42 153.66 124.53 155.00 125.00 Z"/>
</g>
<g fill="#EA6729" fill-opacity="1.00" stroke="None"><path d="
M 152.00 129.00 
C 151.58 127.64 150.20 126.67 149.00 126.00
C 147.07 125.53 146.31 122.55 144.00 123.00
C 144.00 127.00 144.00 131.00 144.00 135.00
C 147.33 135.00 150.67 135.00 154.00 135.00
C 154.33 132.68 152.91 130.94 152.00 129.00 Z"/>
</g>
<g fill="#985C49" fill-opacity="1.00" stroke="None"><path d="
M 99.00 126.00 
C 98.92 126.49 99.00 127.00 99.00 127.00
C 104.96 127.88 108.73 127.57 115.00 127.00
C 114.16 131.62 107.68 131.96 105.00 135.00
C 108.63 134.21 111.90 132.04 115.00 130.00
C 115.57 129.06 116.15 128.18 116.00 127.00
C 116.00 126.50 116.00 126.00 116.00 126.00
C 111.49 125.41 105.75 127.22 102.00 125.00
C 101.05 125.22 99.26 124.61 99.00 126.00 Z"/>
</g>
<g fill="#544D42" fill-opacity="1.00" stroke="None"><path d="
M 69.00 127.00 
C 69.03 127.35 69.65 127.97 70.00 128.00
C 70.50 128.05 71.00 128.00 71.00 128.00
C 72.42 126.20 70.80 125.64 69.00 126.00
C 69.00 126.00 68.95 126.50 69.00 127.00 Z"/>
</g>
<g fill="#543224" fill-opacity="1.00" stroke="None"><path d="
M 90.00 127.00 
C 93.00 127.00 96.00 127.00 99.00 127.00
C 99.00 127.00 98.92 126.49 99.00 126.00
C 96.00 126.00 93.00 126.00 90.00 126.00
C 90.00 126.00 90.05 126.99 90.00 127.00 Z"/>
</g>
<g fill="#4D3D39" fill-opacity="1.00" stroke="None"><path d="
M 116.00 127.00 
C 116.80 127.13 117.11 128.09 118.00 128.00
C 118.05 127.77 118.77 127.05 119.00 127.00
C 117.86 126.97 117.28 125.47 116.00 126.00
C 116.00 126.00 116.00 126.50 116.00 127.00 Z"/>
</g>
<g fill="#FDFDFD" fill-opacity="1.00" stroke="None"><path d="
M 62.00 137.00 
C 64.67 137.00 67.33 137.00 70.00 137.00
C 70.00 134.00 70.00 131.00 70.00 128.00
C 69.65 127.97 69.03 127.35 69.00 127.00
C 66.00 127.00 63.00 127.00 60.00 127.00
C 60.00 130.00 60.00 133.00 60.00 136.00
C 63.42 134.00 65.55 130.05 69.00 128.00
C 68.51 131.92 63.65 133.52 62.00 137.00 Z"/>
</g>
<g fill="#E88B6F" fill-opacity="1.00" stroke="None"><path d="
M 80.00 134.00 
C 82.17 135.22 84.34 136.42 87.00 136.00
C 87.50 135.98 88.50 136.00 89.00 136.00
C 92.53 136.50 97.53 135.28 100.00 136.00
C 100.50 135.95 101.00 136.00 101.00 136.00
C 102.28 135.72 104.50 136.76 105.00 135.00
C 107.68 131.96 114.16 131.62 115.00 127.00
C 108.73 127.57 104.96 127.88 99.00 127.00
C 96.00 127.00 93.00 127.00 90.00 127.00
C 83.49 128.60 78.21 125.76 72.00 128.00
C 74.59 130.09 78.08 131.26 80.00 134.00 Z"/>
</g>
<g fill="#A4A4A1" fill-opacity="1.00" stroke="None"><path d="
M 115.00 130.00 
C 118.54 127.78 116.42 135.04 117.00 137.00
C 111.84 136.35 105.34 138.31 101.00 136.00
C 101.00 136.00 100.50 135.95 100.00 136.00
C 98.90 136.03 99.19 137.34 99.00 138.00
C 105.00 138.00 111.00 138.00 117.00 138.00
C 117.50 140.85 115.92 144.90 118.00 147.00
C 118.00 144.00 118.00 141.00 118.00 138.00
C 121.00 138.00 124.00 138.00 127.00 138.00
C 126.81 137.59 127.00 137.00 127.00 137.00
C 124.00 137.00 121.00 137.00 118.00 137.00
C 118.00 134.00 118.00 131.00 118.00 128.00
C 117.11 128.09 116.80 127.13 116.00 127.00
C 116.15 128.18 115.57 129.06 115.00 130.00 Z"/>
</g>
<g fill="#FDFDFD" fill-opacity="1.00" stroke="None"><path d="
M 118.00 128.00 
C 118.00 131.00 118.00 134.00 118.00 137.00
C 121.00 137.00 124.00 137.00 127.00 137.00
C 127.03 136.65 127.95 136.23 128.00 136.00
C 128.00 133.00 128.00 130.00 128.00 127.00
C 125.00 127.00 122.00 127.00 119.00 127.00
C 118.77 127.05 118.05 127.77 118.00 128.00 Z"/>
</g>
<g fill="#9C9B9B" fill-opacity="1.00" stroke="None"><path d="
M 62.00 137.00 
C 60.89 136.32 59.40 138.62 59.00 137.00
C 57.75 137.28 55.53 136.40 55.00 138.00
C 60.78 136.76 57.77 143.83 60.00 146.00
C 57.64 138.03 63.48 136.88 70.00 138.00
C 70.50 140.85 68.92 144.90 71.00 147.00
C 71.00 144.00 71.00 141.00 71.00 138.00
C 77.33 138.00 83.67 138.00 90.00 138.00
C 89.87 137.20 88.91 136.89 89.00 136.00
C 88.50 136.00 87.50 135.98 87.00 136.00
C 82.58 138.25 76.18 136.39 71.00 137.00
C 71.67 134.96 69.29 127.96 73.00 130.00
C 72.87 128.97 71.83 128.41 71.00 128.00
C 71.00 128.00 70.50 128.05 70.00 128.00
C 70.00 131.00 70.00 134.00 70.00 137.00
C 67.33 137.00 64.67 137.00 62.00 137.00 Z"/>
</g>
<g fill="#C5C6C5" fill-opacity="1.00" stroke="None"><path d="
M 127.00 136.00 
C 124.90 133.02 121.96 130.21 119.00 128.00
C 119.94 131.37 123.66 135.00 127.00 136.00 Z"/>
</g>
<g fill="#FCFAFA" fill-opacity="1.00" stroke="None"><path d="
M 87.00 136.00 
C 84.34 136.42 82.17 135.22 80.00 134.00
C 77.54 132.82 75.19 131.69 73.00 130.00
C 69.29 127.96 71.67 134.96 71.00 137.00
C 76.18 136.39 82.58 138.25 87.00 136.00 Z"/>
</g>
<g fill="#FCFBFB" fill-opacity="1.00" stroke="None"><path d="
M 115.00 130.00 
C 111.90 132.04 108.63 134.21 105.00 135.00
C 104.50 136.76 102.28 135.72 101.00 136.00
C 105.34 138.31 111.84 136.35 117.00 137.00
C 116.42 135.04 118.54 127.78 115.00 130.00 Z"/>
</g>
<g fill="#907063" fill-opacity="1.00" stroke="None"><path d="
M 89.00 136.00 
C 88.91 136.89 89.87 137.20 90.00 138.00
C 93.00 138.00 96.00 138.00 99.00 138.00
C 99.19 137.34 98.90 136.03 100.00 136.00
C 97.53 135.28 92.53 136.50 89.00 136.00 Z"/>
</g>
<g fill="#686869" fill-opacity="1.00" stroke="None"><path d="
M 127.00 137.00 
C 127.00 137.00 126.81 137.59 127.00 138.00
C 127.12 138.26 127.95 138.65 128.00 139.00
C 128.83 138.59 129.87 138.03 130.00 137.00
C 130.00 137.00 129.50 137.05 129.00 137.00
C 128.65 136.97 128.05 136.35 128.00 136.00
C 127.95 136.23 127.03 136.65 127.00 137.00 Z"/>
</g>
<g fill="#AD8A7C" fill-opacity="1.00" stroke="None"><path d="
M 147.00 137.00 
C 149.02 139.22 153.16 137.41 156.00 138.00
C 156.00 138.00 156.19 137.41 156.00 137.00
C 155.88 136.74 155.05 136.35 155.00 136.00
C 152.31 137.43 149.67 135.25 147.00 137.00 Z"/>
</g>
<g fill="#BABBBA" fill-opacity="1.00" stroke="None"><path d="
M 128.00 139.00 
C 128.47 141.52 126.97 145.23 129.00 147.00
C 129.26 144.31 127.73 138.53 132.00 141.00
C 129.82 138.59 130.64 138.18 133.00 137.00
C 132.00 137.00 131.00 137.00 130.00 137.00
C 129.87 138.03 128.83 138.59 128.00 139.00 Z"/>
</g>
<g fill="#B0AEAE" fill-opacity="1.00" stroke="None"><path d="
M 144.00 138.00 
C 143.95 137.77 143.05 137.35 143.00 137.00
C 141.75 137.28 139.53 136.40 139.00 138.00
C 145.30 136.21 141.51 143.65 144.00 146.00
C 144.00 143.33 144.00 140.67 144.00 138.00 Z"/>
</g>
<g fill="#D2A491" fill-opacity="1.00" stroke="None"><path d="
M 220.00 152.00 
C 148.33 152.00 76.67 152.00 5.00 152.00
C 5.00 161.67 5.00 171.33 5.00 181.00
C 11.51 180.37 19.25 182.28 25.00 180.00
C 18.67 180.00 12.33 180.00 6.00 180.00
C 6.00 171.00 6.00 162.00 6.00 153.00
C 77.00 153.00 148.00 153.00 219.00 153.00
C 219.00 162.00 219.00 171.00 219.00 180.00
C 212.16 180.63 204.09 178.71 198.00 181.00
C 205.33 181.00 212.67 181.00 220.00 181.00
C 220.00 171.33 220.00 161.67 220.00 152.00 Z"/>
</g>
<g fill="#EAB199" fill-opacity="1.00" stroke="None"><path d="
M 12.00 173.00 
C 12.00 168.00 12.00 163.00 12.00 158.00
C 10.30 161.86 10.40 169.07 12.00 173.00 Z"/>
</g>
<g fill="#E36426" fill-opacity="1.00" stroke="None"><path d="
M 12.00 173.00 
C 13.33 173.00 14.67 173.00 16.00 173.00
C 16.00 168.00 16.00 163.00 16.00 158.00
C 14.67 158.00 13.33 158.00 12.00 158.00
C 12.00 163.00 12.00 168.00 12.00 173.00 Z"/>
</g>
<g fill="#E77542" fill-opacity="1.00" stroke="None"><path d="
M 33.00 168.00 
C 29.61 164.13 27.64 156.51 21.00 158.00
C 21.00 163.00 21.00 168.00 21.00 173.00
C 27.22 175.02 25.21 168.93 27.00 166.00
C 29.82 173.99 37.95 172.79 40.00 165.00
C 42.21 167.86 39.14 175.32 46.00 173.00
C 46.00 168.00 46.00 163.00 46.00 158.00
C 38.61 156.14 37.83 165.17 33.00 168.00 Z"/>
</g>
<g fill="#E4713C" fill-opacity="1.00" stroke="None"><path d="
M 70.00 158.00 
C 63.87 159.34 50.46 153.97 51.00 164.00 C 47.93 175.01 60.03 173.25 67.00 173.00 C 74.93 174.29 74.77 160.96 70.00 158.00 Z"/>
</g>
<g fill="#E36B32" fill-opacity="1.00" stroke="None"><path d="
M 78.00 173.00 
C 84.19 172.07 103.15 176.79 97.35 165.69 C 100.97 154.22 84.78 158.87 78.00 158.00
C 78.00 163.00 78.00 168.00 78.00 173.00 Z"/>
</g>
<g fill="#E0713D" fill-opacity="1.00" stroke="None"><path d="
M 109.00 158.00 
C 101.23 155.27 101.33 175.75 109.00 173.00
C 109.00 168.00 109.00 163.00 109.00 158.00 Z"/>
</g>
<g fill="#E1682D" fill-opacity="1.00" stroke="None"><path d="
M 118.00 158.00 
C 110.42 157.31 115.45 168.29 114.00 173.00
C 119.40 171.48 130.60 176.32 132.00 170.00
C 122.47 172.01 114.71 169.01 118.00 158.00 Z"/>
</g>
<g fill="#E26F3A" fill-opacity="1.00" stroke="None"><path d="
M 143.00 162.00 
C 145.28 160.46 150.79 160.28 153.00 162.00
C 154.82 163.22 156.53 164.68 159.00 164.00
C 159.37 154.62 135.95 154.68 137.00 165.00 C 134.10 176.50 157.85 176.26 159.00 168.00
C 153.49 169.78 137.56 173.42 143.00 162.00 Z"/>
</g>
<g fill="#E46C34" fill-opacity="1.00" stroke="None"><path d="
M 187.00 173.00 
C 183.03 168.25 181.24 159.40 175.03 158.03 C 169.67 160.61 167.21 167.91 164.00 173.00
C 171.60 169.33 179.30 169.76 187.00 173.00 Z"/>
</g>
<g fill="#E56D36" fill-opacity="1.00" stroke="None"><path d="
M 213.00 170.00 
C 213.00 167.00 213.00 164.00 213.00 161.00
C 208.51 154.82 198.71 159.42 192.00 158.00
C 192.00 163.00 192.00 168.00 192.00 173.00
C 198.54 171.62 209.36 176.11 213.00 170.00 Z"/>
</g>
<g fill="#FFECE2" fill-opacity="1.00" stroke="None"><path d="
M 93.00 161.00 
C 89.54 161.80 82.45 158.81 82.00 164.00
C 85.40 163.01 93.46 166.51 93.00 161.00 Z"/>
</g>
<g fill="#F7BA9C" fill-opacity="1.00" stroke="None"><path d="
M 143.00 162.00 
C 146.33 162.00 149.67 162.00 153.00 162.00
C 150.79 160.28 145.28 160.46 143.00 162.00 Z"/>
</g>
<g fill="#F5B096" fill-opacity="1.00" stroke="None"><path d="
M 213.00 170.00 
C 214.72 168.11 214.52 162.96 213.00 161.00
C 213.00 164.00 213.00 167.00 213.00 170.00 Z"/>
</g>
<g fill="#FFF9F7" fill-opacity="1.00" stroke="None"><path d="
M 68.00 162.00 
C 62.57 161.67 51.25 160.54 55.78 169.22 C 61.83 171.39 71.21 171.04 68.00 162.00 Z"/>
</g>
<g fill="#FEF9F7" fill-opacity="1.00" stroke="None"><path d="
M 209.00 162.00 
C 204.67 162.00 200.33 162.00 196.00 162.00
C 191.25 173.32 213.77 173.29 209.00 162.00 Z"/>
</g>
<g fill="#FFFCFA" fill-opacity="1.00" stroke="None"><path d="
M 174.00 165.00 
C 174.22 166.28 176.81 166.42 177.00 165.00
C 176.68 162.97 174.34 162.94 174.00 165.00 Z"/>
</g>
<g fill="#FFD7C0" fill-opacity="1.00" stroke="None"><path d="
M 177.00 165.00 
C 176.81 166.42 174.22 166.28 174.00 165.00
C 170.19 167.75 180.78 167.73 177.00 165.00 Z"/>
</g>
<g fill="#FFF2EB" fill-opacity="1.00" stroke="None"><path d="
M 94.00 167.00 
C 90.18 167.84 84.32 165.06 82.00 169.00
C 85.22 170.00 94.26 172.22 94.00 167.00 Z"/>
</g>
<g fill="#444545" fill-opacity="1.00" stroke="None"><path d="
M 31.00 185.00 
C 34.03 181.34 45.91 185.64 43.07 178.93 C 37.79 176.98 27.98 176.41 31.00 185.00 Z"/>
</g>
<g fill="#4E4E4E" fill-opacity="1.00" stroke="None"><path d="
M 68.00 185.00 
C 67.76 184.81 68.00 184.00 68.00 184.00
C 73.55 176.33 52.28 174.30 57.00 185.00
C 60.15 182.03 64.17 183.33 68.00 185.00 Z"/>
</g>
<g fill="#424242" fill-opacity="1.00" stroke="None"><path d="
M 94.00 178.00 
C 89.23 176.53 77.46 178.91 84.00 185.00 C 89.27 186.30 100.86 184.61 94.00 178.00 Z"/>
</g>
<g fill="#999999" fill-opacity="1.00" stroke="None"><path d="
M 111.00 185.00 
C 107.53 185.14 109.56 180.15 109.00 178.00
C 106.76 179.27 107.72 187.97 111.00 185.00 Z"/>
</g>
<g fill="#383838" fill-opacity="1.00" stroke="None"><path d="
M 111.00 185.00 
C 110.44 182.85 112.47 177.86 109.00 178.00
C 109.56 180.15 107.53 185.14 111.00 185.00 Z"/>
</g>
<g fill="#4F4F4F" fill-opacity="1.00" stroke="None"><path d="
M 135.00 179.00 
C 130.32 176.78 119.76 176.47 123.00 185.00
C 126.84 184.43 131.91 186.19 135.00 184.00
C 132.15 183.50 128.10 185.08 126.00 183.00
C 128.52 182.53 132.23 184.03 134.00 182.00
C 132.43 179.34 127.64 182.59 126.00 180.00
C 128.85 179.50 132.90 181.08 135.00 179.00 Z"/>
</g>
<g fill="#414141" fill-opacity="1.00" stroke="None"><path d="
M 161.00 180.00 
C 157.05 176.18 144.92 176.45 148.00 185.00
C 151.92 183.98 159.47 187.21 161.00 183.00
C 157.40 183.27 148.66 186.77 150.00 180.00
C 153.61 179.23 158.41 181.19 161.00 180.00 Z"/>
</g>
<g fill="#484848" fill-opacity="1.00" stroke="None"><path d="
M 186.00 178.00 
C 181.82 178.58 176.42 176.79 173.00 179.00
C 177.92 179.10 178.61 182.49 181.00 185.00
C 178.70 179.16 185.24 181.25 186.00 178.00 Z"/>
</g>
<g fill="#E0E0E0" fill-opacity="1.00" stroke="None"><path d="
M 42.00 181.00 
C 40.43 179.28 35.64 179.50 34.00 181.00
C 35.70 182.88 39.87 182.23 42.00 181.00 Z"/>
</g>
<g fill="#F4F4F4" fill-opacity="1.00" stroke="None"><path d="
M 67.00 180.00 
C 64.48 180.47 60.77 178.97 59.00 181.00
C 61.52 180.53 65.23 182.03 67.00 180.00 Z"/>
</g>
<g fill="#F4F4F4" fill-opacity="1.00" stroke="None"><path d="
M 85.00 184.00 
C 87.60 183.79 95.42 185.27 93.22 180.78 C 90.43 179.35 83.23 178.77 85.00 184.00 Z"/>
</g>
<g fill="#A6A6A6" fill-opacity="1.00" stroke="None"><path d="
M 68.00 185.00 
C 69.30 187.37 70.53 184.26 68.00 184.00
C 68.00 184.00 67.76 184.81 68.00 185.00 Z"/>
</g>
</svg>